<svg width="35" height="35" viewBox="0 0 35 35" fill="none" xmlns="http://www.w3.org/2000/svg">
<path opacity="0.3" d="M32.229 16.7707V18.3748C32.229 19.2498 31.6457 19.8332 30.9165 19.979L29.0207 20.2707C28.729 21.4373 28.2915 22.604 27.5623 23.6248L28.729 25.2289C29.1665 25.8122 29.1665 26.833 28.5832 27.4164L27.4165 28.5832C26.8332 29.1665 25.9582 29.1665 25.229 28.729L23.6248 27.5623C22.604 28.1457 21.4373 28.729 20.2707 29.0207L19.979 30.9165C19.8332 31.6457 19.104 32.229 18.3748 32.229H16.7707C15.8957 32.229 15.3123 31.6457 15.1665 30.9165L14.8748 29.0207C13.7082 28.729 12.5415 28.2915 11.5207 27.5623L9.9165 28.729C9.33317 29.1665 8.31234 29.1665 7.729 28.5832L6.56234 27.4164C5.979 26.833 5.979 25.958 6.4165 25.2289L7.58317 23.6248C6.99984 22.604 6.4165 21.4373 6.12484 20.2707L4.229 19.979C3.49984 19.8332 2.9165 19.104 2.9165 18.3748V16.7707C2.9165 15.8957 3.49984 15.3123 4.229 15.1665L6.12484 14.8748C6.4165 13.7081 6.854 12.5415 7.58317 11.5207L6.4165 9.9164C5.979 9.33307 5.979 8.31224 6.56234 7.7289L7.729 6.56234C8.31234 5.979 9.18734 5.97903 9.9165 6.41653L11.5207 7.5831C12.5415 6.99976 13.7082 6.41643 14.8748 6.12476L15.1665 4.22903C15.3123 3.49987 16.0415 2.9165 16.7707 2.9165H18.3748C19.2498 2.9165 19.8332 3.49987 19.979 4.22903L20.2707 6.12476C21.4373 6.41643 22.604 6.85393 23.6248 7.5831L25.229 6.41653C25.8123 5.97903 26.8332 5.979 27.4165 6.56234L28.5832 7.7289C29.1665 8.31224 29.1665 9.18723 28.729 9.9164L27.5623 11.5207C28.1457 12.5415 28.729 13.7081 29.0207 14.8748L30.9165 15.1665C31.6457 15.3123 32.229 16.0415 32.229 16.7707ZM17.6457 12.5415C14.8748 12.5415 12.5415 14.8748 12.5415 17.6457C12.5415 20.4165 14.8748 22.7498 17.6457 22.7498C20.4165 22.7498 22.7498 20.4165 22.7498 17.6457C22.7498 14.8748 20.4165 12.5415 17.6457 12.5415Z" fill="#0095E8"/>
<path d="M24.9373 17.6457C24.9373 21.729 21.729 24.9374 17.6457 24.9374C13.5623 24.9374 10.354 21.729 10.354 17.6457C10.354 13.5623 13.5623 10.354 17.6457 10.354C21.729 10.354 24.9373 13.5623 24.9373 17.6457ZM17.6457 14.729C16.0415 14.729 14.729 16.0415 14.729 17.6457C14.729 19.2499 16.0415 20.5624 17.6457 20.5624C19.2498 20.5624 20.5623 19.2499 20.5623 17.6457C20.5623 16.0415 19.2498 14.729 17.6457 14.729Z" fill="#0095E8"/>
</svg>
