<svg width="35" height="35" viewBox="0 0 35 35" fill="none" xmlns="http://www.w3.org/2000/svg">
<path opacity="0.3" d="M26.25 31.4998C23.7708 31.4998 21.875 29.604 21.875 27.1248V3.64569C21.875 3.20819 21.2917 2.91645 20.8542 3.20811L18.9583 5.24982L17.0625 3.354C16.4792 2.77067 15.6042 2.77067 15.0208 3.354L13.125 5.24982L11.2292 3.354C10.6458 2.77067 9.77082 2.77067 9.18749 3.354L7.29167 5.24982L5.39585 3.354C5.10418 3.06234 4.375 3.20819 4.375 5.10402V27.1248C4.375 29.604 6.27083 31.4998 8.75 31.4998H26.25Z" fill="#0095E8"/>
<path d="M17.4998 18.375H16.0415C15.1665 18.375 14.5832 17.7917 14.5832 16.9167C14.5832 16.0417 15.1665 15.4584 16.0415 15.4584H17.4998C18.3748 15.4584 18.9582 16.0417 18.9582 16.9167C18.9582 17.7917 18.3748 18.375 17.4998 18.375ZM13.1248 16.9167C13.1248 16.0417 12.5415 15.4584 11.6665 15.4584H8.74984C7.87484 15.4584 7.2915 16.0417 7.2915 16.9167C7.2915 17.7917 7.87484 18.375 8.74984 18.375H11.6665C12.5415 18.375 13.1248 17.7917 13.1248 16.9167ZM13.1248 11.0833C13.1248 10.2083 12.5415 9.625 11.6665 9.625H8.74984C7.87484 9.625 7.2915 10.2083 7.2915 11.0833C7.2915 11.9583 7.87484 12.5417 8.74984 12.5417H11.6665C12.5415 12.5417 13.1248 11.9583 13.1248 11.0833ZM18.9582 11.0833C18.9582 10.2083 18.3748 9.625 17.4998 9.625H16.0415C15.1665 9.625 14.5832 10.2083 14.5832 11.0833C14.5832 11.9583 15.1665 12.5417 16.0415 12.5417H17.4998C18.3748 12.5417 18.9582 11.9583 18.9582 11.0833ZM18.9582 22.75C18.9582 21.875 18.3748 21.2917 17.4998 21.2917H14.5832C13.7082 21.2917 13.1248 21.875 13.1248 22.75C13.1248 23.625 13.7082 24.2084 14.5832 24.2084H17.4998C18.3748 24.2084 18.9582 23.625 18.9582 22.75Z" fill="#0095E8"/>
<path d="M21.875 27.125C21.875 29.6042 23.7708 31.5 26.25 31.5C28.7292 31.5 30.625 29.6042 30.625 27.125V18.2292C30.625 17.7917 30.0417 17.5 29.6042 17.7917L27.7083 19.8333L25.8125 17.9375C25.2292 17.3542 24.3542 17.3542 23.7708 17.9375L21.875 19.8333V27.125Z" fill="#0095E8"/>
</svg>
