<svg width="35" height="35" viewBox="0 0 35 35" fill="none" xmlns="http://www.w3.org/2000/svg">
<path opacity="0.3" d="M29.9542 19.9584L29.6257 20.009L29.5451 20.3313C29.2347 21.573 28.7761 22.7847 28.0272 23.8332L27.8177 24.1265L28.0297 24.4179L29.3066 26.1736L29.3066 26.1736L29.311 26.1795C29.4703 26.392 29.5662 26.7121 29.5507 27.0539C29.5353 27.3927 29.413 27.7051 29.1978 27.9202L29.1978 27.9202L27.9209 29.1973C27.4912 29.627 26.8082 29.6758 26.1554 29.2925L24.4184 28.0292L24.157 27.839L23.8763 27.9994C22.7703 28.6314 21.5411 29.2423 20.3318 29.5447L20.0094 29.6253L19.9589 29.9537L19.6416 32.0166C19.5245 32.5729 18.9383 33.0413 18.3781 33.0413H16.6223C15.9301 33.0413 15.4796 32.5998 15.3588 32.0169L15.0414 29.9537L14.9909 29.6253L14.6685 29.5447C13.4268 29.2342 12.2151 28.7756 11.1666 28.0267L10.8734 27.8172L10.5819 28.0292L8.8261 29.3061L8.82607 29.3061L8.82019 29.3105C8.6077 29.4699 8.28759 29.5657 7.94575 29.5502C7.60701 29.5348 7.2946 29.4125 7.07946 29.1973L5.80254 27.9202L5.80251 27.9202C5.37285 27.4905 5.32402 26.8076 5.70737 26.1548L6.97065 24.4179L7.16082 24.1565L7.00041 23.8758C6.36843 22.7698 5.75749 21.5406 5.45518 20.3313L5.37458 20.009L5.04613 19.9584L2.98327 19.6411C2.4269 19.524 1.9585 18.9378 1.9585 18.3776V16.6218C1.9585 15.9296 2.40005 15.4791 2.98293 15.3583L5.04613 15.0409L5.37458 14.9904L5.45518 14.668C5.76559 13.4263 6.22422 12.2147 6.97316 11.1662L7.18261 10.8729L6.97067 10.5815L5.69372 8.82552L5.69377 8.82549L5.68934 8.81959C5.52998 8.6071 5.4341 8.28699 5.44964 7.94515C5.46503 7.60642 5.58737 7.29402 5.8025 7.07888C5.8025 7.07887 5.80251 7.07887 5.80251 7.07886L7.07945 5.80204L7.07946 5.80203C7.50912 5.37237 8.19207 5.32355 8.84489 5.70692L10.5819 6.9701L10.8434 7.16023L11.1241 6.99984C12.23 6.36787 13.4592 5.75692 14.6685 5.45461L14.9909 5.37401L15.0414 5.04557L15.3588 2.9828C15.4758 2.42642 16.062 1.95801 16.6223 1.95801H18.3781C19.0702 1.95801 19.5208 2.39958 19.6415 2.98248L19.9589 5.04557L20.0095 5.37401L20.3318 5.45461C21.5735 5.76503 22.7852 6.22366 23.8337 6.97259L24.127 7.18205L24.4184 6.9701L26.1742 5.69327L26.1742 5.69331L26.1801 5.68889C26.3926 5.52952 26.7127 5.43363 27.0546 5.44916C27.3933 5.46456 27.7057 5.58689 27.9209 5.80203L27.9209 5.80204L29.1978 7.07886C29.1978 7.07887 29.1978 7.07887 29.1978 7.07888C29.6275 7.50855 29.6763 8.1915 29.293 8.84429L28.0297 10.5815L27.8395 10.8429L27.9999 11.1236C28.6319 12.2296 29.2428 13.4587 29.5451 14.668L29.6257 14.9904L29.9542 15.0409L32.0171 15.3583C32.5734 15.4753 33.0418 16.0615 33.0418 16.6218V18.3776C33.0418 19.0697 32.6003 19.5203 32.0174 19.641L29.9542 19.9584Z" fill="#0095E8" />
<path d="M21.3403 14.4971H20.8061C19.8528 14.4971 18.9776 15.024 18.5316 15.8664L18.0262 16.8211C17.9495 16.966 17.9861 17.1451 18.1136 17.2483L18.4433 17.5152C18.9777 17.9477 19.4002 18.5024 19.6753 19.1324L19.8089 19.4383C19.8635 19.5633 19.9869 19.6441 20.1234 19.6441H23.62C24.525 19.6441 25.1049 18.6811 24.6814 17.8813L23.6147 15.8664C23.1687 15.024 22.2936 14.4971 21.3403 14.4971Z" fill="#0095E8"/>
<path d="M23.0412 11.9237C23.0412 10.9761 22.2731 10.208 21.3255 10.208C20.378 10.208 19.6099 10.9761 19.6099 11.9237C19.6099 12.8712 20.378 13.6394 21.3255 13.6394C22.2731 13.6394 23.0412 12.8712 23.0412 11.9237Z" fill="white"/>
<path d="M11.5932 19.5207C12.2357 18.0336 13.7007 17.0708 15.3206 17.0708C16.9406 17.0708 18.4055 18.0336 19.048 19.5207L20.2901 22.3952C20.7796 23.5279 19.9491 24.7914 18.7152 24.7914H11.9261C10.6921 24.7914 9.86167 23.5279 10.3511 22.3952L11.5932 19.5207Z" fill="#0095E8"/>
<path d="M17.8941 13.6394C17.8941 12.2181 16.7419 11.0659 15.3206 11.0659C13.8993 11.0659 12.7471 12.2181 12.7471 13.6394C12.7471 15.0608 13.8993 16.213 15.3206 16.213C16.7419 16.213 17.8941 15.0608 17.8941 13.6394Z" fill="white"/>
</svg>
