<svg width="23" height="24" viewBox="0 0 23 24" fill="none" xmlns="http://www.w3.org/2000/svg">
<path d="M8.62496 2.41667H3.83329C2.77475 2.41667 1.91663 3.27479 1.91663 4.33333V9.125C1.91663 10.1835 2.77475 11.0417 3.83329 11.0417H8.62496C9.68351 11.0417 10.5416 10.1835 10.5416 9.125V4.33333C10.5416 3.27479 9.68351 2.41667 8.62496 2.41667Z" fill="#A1A5B7"/>
<path opacity="0.3" d="M19.1667 2.41667H14.375C13.3165 2.41667 12.4584 3.27479 12.4584 4.33333V9.125C12.4584 10.1835 13.3165 11.0417 14.375 11.0417H19.1667C20.2253 11.0417 21.0834 10.1835 21.0834 9.125V4.33333C21.0834 3.27479 20.2253 2.41667 19.1667 2.41667Z" fill="#A1A5B7"/>
<path opacity="0.3" d="M19.1667 12.9583H14.375C13.3165 12.9583 12.4584 13.8165 12.4584 14.875V19.6667C12.4584 20.7252 13.3165 21.5833 14.375 21.5833H19.1667C20.2253 21.5833 21.0834 20.7252 21.0834 19.6667V14.875C21.0834 13.8165 20.2253 12.9583 19.1667 12.9583Z" fill="#A1A5B7"/>
<path opacity="0.3" d="M8.62496 12.9583H3.83329C2.77475 12.9583 1.91663 13.8165 1.91663 14.875V19.6667C1.91663 20.7252 2.77475 21.5833 3.83329 21.5833H8.62496C9.68351 21.5833 10.5416 20.7252 10.5416 19.6667V14.875C10.5416 13.8165 9.68351 12.9583 8.62496 12.9583Z" fill="#A1A5B7"/>
</svg>
