<svg width="23" height="24" viewBox="0 0 23 24" fill="none" xmlns="http://www.w3.org/2000/svg">
<path opacity="0.3" d="M19.1666 3.375H3.83329C2.77475 3.375 1.91663 4.23312 1.91663 5.29167V15.8333C1.91663 16.8919 2.77475 17.75 3.83329 17.75H4.31246C4.84173 17.75 5.27079 18.179 5.27079 18.7083V21.1091C5.27079 21.7214 5.95324 22.0867 6.46273 21.747L11.0098 18.7157C11.9543 18.086 13.0641 17.75 14.1993 17.75H19.1666C20.2252 17.75 21.0833 16.8919 21.0833 15.8333V5.29167C21.0833 4.23312 20.2252 3.375 19.1666 3.375Z" fill="#A1A5B7"/>
<path d="M11.5 12H6.70833C6.17906 12 5.75 12.4291 5.75 12.9583C5.75 13.4876 6.17906 13.9167 6.70833 13.9167H11.5C12.0293 13.9167 12.4583 13.4876 12.4583 12.9583C12.4583 12.4291 12.0293 12 11.5 12Z" fill="#A1A5B7"/>
<path d="M16.2917 7.20833H6.70833C6.17906 7.20833 5.75 7.63739 5.75 8.16667C5.75 8.69594 6.17906 9.125 6.70833 9.125H16.2917C16.8209 9.125 17.25 8.69594 17.25 8.16667C17.25 7.63739 16.8209 7.20833 16.2917 7.20833Z" fill="#A1A5B7"/>
</svg>
