<svg width="23" height="24" viewBox="0 0 23 24" fill="none" xmlns="http://www.w3.org/2000/svg">
<path opacity="0.5" d="M21.1755 19.8411L17.0043 15.6698C16.6301 15.2956 16.0233 15.2956 15.649 15.6698C15.2748 16.0441 15.2748 16.6509 15.649 17.0251L19.8202 21.1963C20.1945 21.5706 20.8013 21.5706 21.1755 21.1963C21.5498 20.8221 21.5498 20.2153 21.1755 19.8411Z" fill="#A1A5B7"/>
<path d="M10.5417 18.7083C6.28241 18.7083 2.875 15.3009 2.875 11.0417C2.875 6.78241 6.28241 3.375 10.5417 3.375C14.8009 3.375 18.2083 6.78241 18.2083 11.0417C18.2083 15.3009 14.8009 18.7083 10.5417 18.7083ZM10.5417 5.29167C7.21944 5.29167 4.79167 7.71944 4.79167 11.0417C4.79167 14.3639 7.21944 16.7917 10.5417 16.7917C13.8639 16.7917 16.2917 14.3639 16.2917 11.0417C16.2917 7.71944 13.8639 5.29167 10.5417 5.29167Z" fill="#A1A5B7"/>
</svg>
