<svg width="23" height="24" viewBox="0 0 23 24" fill="none" xmlns="http://www.w3.org/2000/svg">
<path d="M10.5416 10.5625C10.5416 9.76859 9.89804 9.125 9.10413 9.125C8.31022 9.125 7.66663 9.76859 7.66663 10.5625V17.2708C7.66663 18.0647 8.31022 18.7083 9.10413 18.7083C9.89804 18.7083 10.5416 18.0647 10.5416 17.2708V10.5625Z" fill="#A1A5B7"/>
<path opacity="0.5" d="M15.3334 6.72917C15.3334 5.93526 14.6898 5.29167 13.8959 5.29167C13.102 5.29167 12.4584 5.93526 12.4584 6.72917V17.2708C12.4584 18.0647 13.102 18.7083 13.8959 18.7083C14.6898 18.7083 15.3334 18.0647 15.3334 17.2708V6.72917Z" fill="#A1A5B7"/>
<path d="M20.125 12.4792C20.125 11.6853 19.4814 11.0417 18.6875 11.0417C17.8936 11.0417 17.25 11.6853 17.25 12.4792V17.2708C17.25 18.0647 17.8936 18.7083 18.6875 18.7083C19.4814 18.7083 20.125 18.0647 20.125 17.2708V12.4792Z" fill="#A1A5B7"/>
<path d="M5.75 14.3958C5.75 13.6019 5.10641 12.9583 4.3125 12.9583C3.51859 12.9583 2.875 13.6019 2.875 14.3958V17.2708C2.875 18.0647 3.51859 18.7083 4.3125 18.7083C5.10641 18.7083 5.75 18.0647 5.75 17.2708V14.3958Z" fill="#A1A5B7"/>
</svg>
