<svg width="24" height="24" viewBox="0 0 24 24" fill="none" xmlns="http://www.w3.org/2000/svg">
<path d="M23.2819 12.0904C23.2819 11.1377 23.2028 10.4426 23.0316 9.72168H11.8998V14.0214H18.4339C18.3022 15.0899 17.5909 16.6991 16.01 17.7804L15.9878 17.9243L19.5075 20.5888L19.7513 20.6126C21.9908 18.5915 23.2819 15.6176 23.2819 12.0904Z" fill="#4285F4"/>
<path d="M11.9 23.4187C15.1011 23.4187 17.7886 22.3887 19.7515 20.6123L16.0102 17.7801C15.009 18.4624 13.6653 18.9387 11.9 18.9387C8.76464 18.9387 6.10356 16.9176 5.15496 14.124L5.01592 14.1356L1.35609 16.9034L1.30823 17.0334C3.25793 20.8182 7.26278 23.4187 11.9 23.4187Z" fill="#0F9D58"/>
<path d="M5.15477 14.1249C4.90447 13.4041 4.75961 12.6316 4.75961 11.8335C4.75961 11.0353 4.90447 10.2629 5.1416 9.54197L5.13497 9.38843L1.42929 6.57617L1.30804 6.63253C0.504483 8.20311 0.043396 9.96682 0.043396 11.8335C0.043396 13.7001 0.504483 15.4637 1.30804 17.0343L5.15477 14.1249Z" fill="#F4B400"/>
<path d="M11.9 4.72699C14.1263 4.72699 15.6281 5.66674 16.4844 6.45207L19.8305 3.25945C17.7755 1.39281 15.1011 0.24707 11.9 0.24707C7.26277 0.24707 3.25793 2.84748 1.30823 6.63223L5.14179 9.54165C6.10356 6.74813 8.76464 4.72699 11.9 4.72699Z" fill="#DB4437"/>
</svg>
