<svg width="18" height="19" viewBox="0 0 18 19" fill="none" xmlns="http://www.w3.org/2000/svg">
<path d="M0 4.5C0 2.29086 1.79086 0.5 4 0.5H14C16.2091 0.5 18 2.29086 18 4.5V14.5C18 16.7091 16.2091 18.5 14 18.5H4C1.79086 18.5 0 16.7091 0 14.5V4.5Z" fill="#FFA800"/>
<path opacity="0.5" d="M8.25 5.75V13.25C8.25 13.6642 8.58579 14 9 14C9.41421 14 9.75 13.6642 9.75 13.25V5.75C9.75 5.33579 9.41421 5 9 5C8.58579 5 8.25 5.33579 8.25 5.75Z" fill="white"/>
<path d="M12.75 8.75H5.25C4.83579 8.75 4.5 9.08579 4.5 9.5C4.5 9.91421 4.83579 10.25 5.25 10.25H12.75C13.1642 10.25 13.5 9.91421 13.5 9.5C13.5 9.08579 13.1642 8.75 12.75 8.75Z" fill="white"/>
</svg>
