<svg width="18" height="18" viewBox="0 0 18 18" fill="none" xmlns="http://www.w3.org/2000/svg">
<path d="M13.0078 2.82983C11.9215 2.82983 11.0391 3.71226 11.0391 4.79858C11.0391 5.67925 11.6209 6.42632 12.4189 6.67769V8.36343L5.625 10.5888V5.59136C6.40195 5.32769 6.96094 4.59116 6.96094 3.72632C6.96094 2.63999 6.07852 1.75757 4.99219 1.75757C3.90586 1.75757 3.02344 2.63999 3.02344 3.72632C3.02344 4.59116 3.58242 5.32593 4.35938 5.59136V12.4099C3.58242 12.6736 3.02344 13.4101 3.02344 14.275C3.02344 15.3613 3.90586 16.2437 4.99219 16.2437C6.07852 16.2437 6.96094 15.3613 6.96094 14.275C6.96094 13.4101 6.40195 12.6753 5.625 12.4099V11.9212L13.0693 9.48316C13.2481 9.42504 13.4038 9.31169 13.5141 9.15943C13.6243 9.00718 13.6834 8.82387 13.6828 8.63589V6.6478C14.4369 6.37007 14.9766 5.64585 14.9766 4.79858C14.9766 3.71226 14.0941 2.82983 13.0078 2.82983ZM4.14844 3.72632C4.15294 3.50552 4.24382 3.29529 4.40156 3.14074C4.55931 2.98618 4.77135 2.89962 4.99219 2.89962C5.21303 2.89962 5.42507 2.98618 5.58281 3.14074C5.74056 3.29529 5.83143 3.50552 5.83594 3.72632C5.83143 3.94711 5.74056 4.15734 5.58281 4.3119C5.42507 4.46646 5.21303 4.55302 4.99219 4.55302C4.77135 4.55302 4.55931 4.46646 4.40156 4.3119C4.24382 4.15734 4.15294 3.94711 4.14844 3.72632ZM5.83594 14.2732C5.83143 14.494 5.74056 14.7042 5.58281 14.8588C5.42507 15.0133 5.21303 15.0999 4.99219 15.0999C4.77135 15.0999 4.55931 15.0133 4.40156 14.8588C4.24382 14.7042 4.15294 14.494 4.14844 14.2732C4.15294 14.0524 4.24382 13.8422 4.40156 13.6876C4.55931 13.5331 4.77135 13.4465 4.99219 13.4465C5.21303 13.4465 5.42507 13.5331 5.58281 13.6876C5.74056 13.8422 5.83143 14.0524 5.83594 14.2732ZM13.0078 5.64233C12.787 5.63783 12.5768 5.54695 12.4222 5.38921C12.2677 5.23147 12.1811 5.01942 12.1811 4.79858C12.1811 4.57774 12.2677 4.3657 12.4222 4.20796C12.5768 4.05022 12.787 3.95934 13.0078 3.95483C13.2286 3.95934 13.4388 4.05022 13.5934 4.20796C13.7479 4.3657 13.8345 4.57774 13.8345 4.79858C13.8345 5.01942 13.7479 5.23147 13.5934 5.38921C13.4388 5.54695 13.2286 5.63783 13.0078 5.64233Z" fill="#FFA800"/>
</svg>
