<svg width="120" height="82" viewBox="0 0 120 82" fill="none" xmlns="http://www.w3.org/2000/svg">
<path d="M83.932 17.236H36.0679C34.6546 17.236 33.4858 16.0688 33.4858 14.6574C33.4858 13.2459 34.6546 12.0787 36.0679 12.0787H83.932C85.3454 12.0787 86.5141 13.2459 86.5141 14.6574C86.5141 16.0688 85.3726 17.236 83.932 17.236Z" fill="#B5B5C3"/>
<path d="M102.741 46.578V35.3949C102.741 33.9834 103.909 32.8163 105.323 32.8163C106.736 32.8163 107.905 33.9834 107.905 35.3949V46.578C107.905 47.9894 106.736 49.1566 105.323 49.1566C103.909 49.1566 102.741 48.0166 102.741 46.578Z" fill="#B5B5C3"/>
<path d="M105.323 29.3148C113.429 29.3148 120 22.7525 120 14.6574C120 6.56234 113.429 0 105.323 0C97.2167 0 90.6455 6.56234 90.6455 14.6574C90.6455 22.7525 97.2167 29.3148 105.323 29.3148Z" fill="#7239EA"/>
<path d="M105.323 22.8004C109.826 22.8004 113.477 19.1547 113.477 14.6574C113.477 10.1601 109.826 6.5144 105.323 6.5144C100.819 6.5144 97.1687 10.1601 97.1687 14.6574C97.1687 19.1547 100.819 22.8004 105.323 22.8004Z" fill="#F8F5FF"/>
<path d="M105.323 82C113.429 82 120 75.4376 120 67.3426C120 59.2475 113.429 52.6852 105.323 52.6852C97.2167 52.6852 90.6455 59.2475 90.6455 67.3426C90.6455 75.4376 97.2167 82 105.323 82Z" fill="#50CD89"/>
<path d="M105.323 75.4856C109.826 75.4856 113.477 71.8398 113.477 67.3426C113.477 62.8453 109.826 59.1996 105.323 59.1996C100.819 59.1996 97.1687 62.8453 97.1687 67.3426C97.1687 71.8398 100.819 75.4856 105.323 75.4856Z" fill="#E8FFF3"/>
<path d="M14.6772 29.3148C22.7832 29.3148 29.3545 22.7525 29.3545 14.6574C29.3545 6.56234 22.7832 0 14.6772 0C6.57122 0 0 6.56234 0 14.6574C0 22.7525 6.57122 29.3148 14.6772 29.3148Z" fill="#7239EA"/>
<path d="M14.6772 22.8004C19.1806 22.8004 22.8312 19.1547 22.8312 14.6574C22.8312 10.1601 19.1806 6.5144 14.6772 6.5144C10.1739 6.5144 6.52319 10.1601 6.52319 14.6574C6.52319 19.1547 10.1739 22.8004 14.6772 22.8004Z" fill="#F8F5FF"/>
</svg>
