<svg width="18" height="18" viewBox="0 0 18 18" fill="none" xmlns="http://www.w3.org/2000/svg">
<path fill-rule="evenodd" clip-rule="evenodd" d="M6.31799 5.544C6.0107 6.00711 5.57245 6.36821 5.05911 6.58125C4.89261 6.64875 4.54386 6.7365 4.54386 6.7365V12.3705C5.26985 12.5202 5.90788 12.9493 6.32024 13.5653C6.62736 14.0288 6.79161 14.5721 6.79161 15.1268C6.80061 15.5126 6.72749 15.8963 6.57786 16.2518C6.36331 16.7726 5.99642 17.2165 5.52526 17.5252C5.05411 17.834 4.50068 17.9932 3.93749 17.982C3.38167 17.9838 2.83797 17.8197 2.37599 17.5106C1.91253 17.2029 1.55132 16.764 1.33851 16.25C1.1257 15.736 1.07094 15.1703 1.18124 14.625C1.28811 14.0783 1.55361 13.5765 1.94624 13.1816C2.33886 12.7958 2.83499 12.5303 3.37386 12.4166V6.69263C2.83547 6.57709 2.34062 6.31192 1.94624 5.92763C1.55422 5.53266 1.28801 5.0304 1.18124 4.48425C1.07071 3.93921 1.12513 3.3736 1.33753 2.85962C1.54993 2.34565 1.91069 1.90663 2.37374 1.59863C2.83634 1.28887 3.38075 1.12398 3.93749 1.125C4.31395 1.11891 4.68781 1.18835 5.03697 1.32922C5.38614 1.47008 5.70352 1.67951 5.97036 1.94513C6.23697 2.21195 6.44701 2.5298 6.58792 2.87968C6.72884 3.22955 6.79774 3.60426 6.79049 3.98138C6.79274 4.53713 6.62849 5.08163 6.31799 5.544ZM5.46749 14.3876C5.32327 14.1183 5.10864 13.8932 4.84649 13.7363C4.58552 13.578 4.2854 13.4962 3.98024 13.5C3.73081 13.4993 3.48434 13.554 3.25869 13.6603C3.03303 13.7666 2.83384 13.9217 2.67554 14.1145C2.51724 14.3072 2.40379 14.5328 2.34342 14.7748C2.28305 15.0168 2.27727 15.2692 2.32649 15.5138C2.39064 15.8418 2.55124 16.1433 2.78773 16.3796C3.02422 16.6159 3.32584 16.7763 3.65399 16.8401C3.97799 16.9054 4.31324 16.8739 4.62149 16.7501C4.93199 16.6185 5.19749 16.3991 5.38649 16.1201C5.55524 15.8659 5.65086 15.5689 5.66661 15.2651C5.68032 14.96 5.61153 14.6569 5.46749 14.3876ZM3.04649 5.33363C3.32436 5.51475 3.64949 5.61488 3.98024 5.61488C4.28511 5.61488 4.58549 5.5305 4.84649 5.3775C5.10763 5.21952 5.32153 4.99427 5.4658 4.72531C5.61008 4.45635 5.67943 4.15357 5.66661 3.84863C5.65128 3.54355 5.55413 3.24823 5.38536 2.99363C5.19661 2.7141 4.93089 2.49528 4.62036 2.36363C4.31382 2.23876 3.97718 2.20745 3.65286 2.27363C3.32483 2.33792 3.02342 2.49856 2.78716 2.73503C2.55089 2.9715 2.3905 3.27304 2.32649 3.60113C2.26124 3.92513 2.29274 4.26038 2.41649 4.56863C2.54811 4.87913 2.76749 5.14463 3.04649 5.33363ZM14.6666 12.4166C15.2066 12.5258 15.7039 12.7935 16.0942 13.1816C16.6185 13.7104 16.9144 14.427 16.9099 15.1684C16.9121 15.723 16.7479 16.2675 16.4374 16.7299C16.129 17.1934 15.6899 17.5549 15.1758 17.7686C14.6617 17.9823 14.0958 18.0385 13.5497 17.9302C13.0036 17.8219 12.502 17.5539 12.1084 17.1601C11.7148 16.7664 11.447 16.2646 11.3389 15.7185C11.2311 15.1727 11.2877 14.6073 11.5013 14.0936C11.715 13.58 12.0762 13.1412 12.5392 12.8329C12.8396 12.627 13.1816 12.4864 13.5394 12.4166V6.17513C13.5391 5.72777 13.3611 5.29884 13.0447 4.98261C12.7283 4.66639 12.2992 4.48875 11.8519 4.48875H9.77286L11.2005 5.9175L10.4017 6.71513L8.00661 4.32V3.5325L10.4029 1.13625L11.2016 1.93613L9.77399 3.36488H11.8552C12.4122 3.36175 12.9574 3.52512 13.4208 3.83401C13.8842 4.14291 14.2448 4.58324 14.4562 5.0985C14.5969 5.43825 14.6689 5.805 14.6666 6.17513V12.4166ZM15.2932 16.3643C15.5703 16.0899 15.7432 15.7277 15.7825 15.3397C15.8217 14.9518 15.7247 14.5623 15.5081 14.238C15.3192 13.9589 15.0535 13.7405 14.7431 13.6091C14.4366 13.4843 14.0999 13.4529 13.7756 13.5191C13.4475 13.5833 13.146 13.7439 12.9097 13.9804C12.6735 14.2169 12.5131 14.5185 12.4492 14.8466C12.3831 15.1709 12.4144 15.5076 12.5392 15.8141C12.6441 16.0719 12.8112 16.2997 13.0256 16.4771C13.24 16.6544 13.4951 16.7759 13.768 16.8305C14.0408 16.8851 14.323 16.8712 14.5892 16.79C14.8554 16.7089 15.0973 16.563 15.2932 16.3654V16.3643Z" fill="#6993FF"/>
</svg>
