<svg width="8" height="8" viewBox="0 0 8 8" fill="none" xmlns="http://www.w3.org/2000/svg">
<path d="M4.38683 2.31673L4.97671 2.90661L3.94443 3.93889C3.70009 4.18323 3.70009 4.57937 3.94443 4.82371C4.18876 5.06804 4.58491 5.06804 4.82924 4.82371L6.30393 3.34902C6.87405 2.7789 6.87405 1.85456 6.30393 1.28445C5.73382 0.714335 4.80948 0.714335 4.23936 1.28445L1.28998 4.23383C0.719867 4.80395 0.719867 5.72829 1.28998 6.2984L1.43745 6.44587C1.92612 6.93454 2.71841 6.93454 3.20708 6.44587L3.79696 7.03575C2.98251 7.8502 1.66202 7.8502 0.847574 7.03575L0.700105 6.88828C-0.19579 5.99238 -0.19579 4.53985 0.700105 3.64396L3.64949 0.694573C4.54538 -0.201322 5.99791 -0.201322 6.89381 0.694573C7.7897 1.59047 7.7897 3.043 6.89381 3.93889L5.41912 5.41359C4.849 5.9837 3.92466 5.9837 3.35455 5.41359C2.78443 4.84347 2.78443 3.91913 3.35455 3.34902L4.38683 2.31673Z" fill="#D6D6E0"/>
</svg>
