<svg width="11" height="12" viewBox="0 0 11 12" fill="none" xmlns="http://www.w3.org/2000/svg">
<path fill-rule="evenodd" clip-rule="evenodd" d="M9.82004 8.41453C10.0059 8.60037 10.3236 8.46811 10.3227 8.20529L10.3164 6.46097V3.29974C10.3164 2.71778 9.84467 2.246 9.2627 2.246H4.34525C3.76328 2.246 3.2915 2.71778 3.2915 3.29974V4.74865H5.6285C6.60415 4.74865 7.39507 5.53957 7.39507 6.51522V7.51471H8.92022L9.82004 8.41453Z" fill="#D6D6E0"/>
<path opacity="0.3" fill-rule="evenodd" clip-rule="evenodd" d="M1.54932 8.50266V6.41713C1.54932 5.95641 1.92281 5.58292 2.38353 5.58292H5.72038C6.1811 5.58292 6.55459 5.95641 6.55459 6.41713V8.50266C6.55459 8.96338 6.1811 9.33687 5.72038 9.33687H2.4318L2.05823 9.69442C1.87098 9.87365 1.56022 9.74093 1.56022 9.48172V8.63791C1.55305 8.59389 1.54932 8.54871 1.54932 8.50266ZM3.22406 7.04278C3.22406 6.9276 3.31743 6.83423 3.43261 6.83423H5.51814C5.63332 6.83423 5.72669 6.9276 5.72669 7.04278C5.72669 7.15796 5.63332 7.25134 5.51814 7.25134H3.43261C3.31743 7.25134 3.22406 7.15796 3.22406 7.04278ZM4.68393 7.66842C4.56875 7.66842 4.47537 7.76179 4.47537 7.87697C4.47537 7.99215 4.56875 8.08552 4.68393 8.08552H5.51814C5.63332 8.08552 5.72669 7.99215 5.72669 7.87697C5.72669 7.76179 5.63332 7.66842 5.51814 7.66842H4.68393Z" fill="#D6D6E0"/>
</svg>
