<svg width="115" height="115" viewBox="0 0 115 115" fill="none" xmlns="http://www.w3.org/2000/svg">
<path d="M53.6732 1.58513C56.1234 0.570189 58.8766 0.570187 61.3268 1.58513L94.3318 15.2562C96.7821 16.2712 98.7288 18.2179 99.7438 20.6682L113.415 53.6732C114.43 56.1234 114.43 58.8766 113.415 61.3268L99.7438 94.3318C98.7288 96.7821 96.7821 98.7288 94.3318 99.7438L61.3268 113.415C58.8766 114.43 56.1234 114.43 53.6732 113.415L20.6682 99.7438C18.2179 98.7288 16.2712 96.7821 15.2562 94.3318L1.58513 61.3268C0.570189 58.8766 0.570187 56.1234 1.58513 53.6732L15.2562 20.6682C16.2712 18.2179 18.2179 16.2712 20.6682 15.2562L53.6732 1.58513Z" fill="#7239EA"/>
</svg>
