<svg width="26" height="26" viewBox="0 0 26 26" fill="none" xmlns="http://www.w3.org/2000/svg">
<g clip-path="url(#clip0_7538_25701)">
<path d="M12.8308 0.625977C9.93216 0.626097 7.12814 1.65763 4.92047 3.53599C2.71279 5.41436 1.24553 8.01699 0.781204 10.8782C0.316881 13.7394 0.885801 16.6725 2.38617 19.1526C3.88654 21.6327 6.22044 23.498 8.97028 24.4148C9.58064 24.5216 9.80953 24.1554 9.80953 23.8349C9.80953 23.545 9.79426 22.5837 9.79426 21.5614C6.72718 22.1259 5.93371 20.8137 5.68957 20.127C5.41866 19.4592 4.98921 18.8674 4.43832 18.4027C4.01107 18.1739 3.40071 17.6093 4.42305 17.594C4.81343 17.6364 5.18783 17.7722 5.51455 17.99C5.84127 18.2078 6.11067 18.5012 6.29993 18.8452C6.46689 19.1452 6.69139 19.4092 6.96057 19.6222C7.22975 19.8352 7.53832 19.9931 7.86859 20.0866C8.19887 20.1802 8.54436 20.2076 8.88527 20.1674C9.22618 20.1272 9.5558 20.0202 9.85525 19.8523C9.9081 19.2318 10.1847 18.6515 10.6335 18.2197C7.91738 17.9145 5.0792 16.8616 5.0792 12.1924C5.06205 10.9791 5.50973 9.80533 6.33044 8.91166C5.95725 7.85723 6.00091 6.70006 6.45252 5.67675C6.45252 5.67675 7.47483 5.3563 9.8095 6.92799C11.807 6.37863 13.9157 6.37863 15.9131 6.92799C18.2477 5.34105 19.2701 5.67675 19.2701 5.67675C19.7218 6.70005 19.7654 7.85724 19.3922 8.91166C20.2154 9.8038 20.6634 10.9786 20.6434 12.1924C20.6434 16.8768 17.7899 17.9145 15.0739 18.2197C15.3652 18.5149 15.5896 18.8695 15.7317 19.2591C15.8739 19.6488 15.9306 20.0645 15.8979 20.478C15.8979 22.1107 15.8826 23.423 15.8826 23.835C15.8826 24.1554 16.1115 24.5369 16.7218 24.4148C19.4668 23.4906 21.794 21.6209 23.288 19.1395C24.782 16.6581 25.3455 13.7266 24.8779 10.8681C24.4104 8.00969 22.9422 5.41044 20.7355 3.53436C18.5288 1.65828 15.7272 0.627484 12.8308 0.625977V0.625977Z" fill="black"/>
</g>
<defs>
<clipPath id="clip0_7538_25701">
<rect width="24.4146" height="24.4146" fill="white" transform="translate(0.623535 0.625977)"/>
</clipPath>
</defs>
</svg>