<svg width="50" height="50" viewBox="0 0 50 50" fill="none" xmlns="http://www.w3.org/2000/svg">
<path opacity="0.3" d="M24.2858 23.3334C19.026 23.3334 14.762 19.0694 14.762 13.8096C14.762 8.54972 19.026 4.28577 24.2858 4.28577C29.5457 4.28577 33.8096 8.54972 33.8096 13.8096C33.8096 19.0694 29.5457 23.3334 24.2858 23.3334Z" fill="#FFA800"/>
<path d="M2.85866 45.2362C3.78153 33.8726 13.0045 28.0952 24.246 28.0952C35.6457 28.0952 45.0116 33.5552 45.7093 45.2381C45.7371 45.7035 45.7093 47.1428 43.9207 47.1428C35.0979 47.1428 21.9874 47.1428 4.58926 47.1428C3.99214 47.1428 2.80839 45.8552 2.85866 45.2362Z" fill="#FFA800"/>
</svg>
