<svg width="40" height="40" viewBox="0 0 40 40" fill="none" xmlns="http://www.w3.org/2000/svg">
<path d="M28.3333 3.33331H11.6666C7.06427 3.33331 3.33331 7.06427 3.33331 11.6666V28.3333C3.33331 32.9357 7.06427 36.6666 11.6666 36.6666H28.3333C32.9357 36.6666 36.6666 32.9357 36.6666 28.3333V11.6666C36.6666 7.06427 32.9357 3.33331 28.3333 3.33331Z" fill="white"/>
<path d="M24.6303 12.5592L12.8452 24.3443C12.1943 24.9952 12.1943 26.0505 12.8452 26.7013C13.4961 27.3522 14.5513 27.3522 15.2022 26.7013L26.9873 14.9162C27.6382 14.2654 27.6382 13.2101 26.9873 12.5592C26.3365 11.9083 25.2812 11.9083 24.6303 12.5592Z" fill="#9C74F0"/>
<path d="M26.9873 24.6303L15.2022 12.8452C14.5513 12.1943 13.496 12.1943 12.8452 12.8452C12.1943 13.4961 12.1943 14.5513 12.8452 15.2022L24.6303 26.9873C25.2812 27.6382 26.3364 27.6382 26.9873 26.9873C27.6382 26.3365 27.6382 25.2812 26.9873 24.6303Z" fill="#9C74F0"/>
</svg>
