<svg width="50" height="50" viewBox="0 0 50 50" fill="none" xmlns="http://www.w3.org/2000/svg">
<path opacity="0.3" d="M47.0588 25C47.0588 12.8172 37.1827 2.94116 25 2.94116C12.8172 2.94116 2.94116 12.8172 2.94116 25C2.94116 37.1827 12.8172 47.0588 25 47.0588C37.1827 47.0588 47.0588 37.1827 47.0588 25Z" fill="#F1416C"/>
<path d="M33.3942 24.2037C33.1081 23.9176 32.7612 23.7746 32.3524 23.7746H31.8625V20.8333C31.8625 18.9543 31.1886 17.3408 29.8406 15.9928C28.4926 14.6446 26.8792 13.9706 25 13.9706C23.1206 13.9706 21.507 14.6446 20.1591 15.9927C18.811 17.3408 18.1372 18.9542 18.1372 20.8333V23.7746H17.647C17.2387 23.7746 16.8913 23.9176 16.6054 24.2037C16.3194 24.4893 16.1765 24.8368 16.1765 25.2453V34.069C16.1765 34.4773 16.3194 34.8248 16.6054 35.1107C16.8913 35.3965 17.2387 35.5395 17.647 35.5395H32.3528C32.7614 35.5395 33.1086 35.3965 33.3947 35.1107C33.6803 34.8248 33.8235 34.4773 33.8235 34.069V25.2453C33.8237 24.8368 33.6803 24.4896 33.3942 24.2037ZM28.9214 23.7746H21.0784V20.8333C21.0784 19.7509 21.4613 18.8266 22.2274 18.0608C22.9933 17.2948 23.9176 16.912 25 16.912C26.0828 16.912 27.0067 17.2948 27.7728 18.0608C28.5384 18.8265 28.9214 19.7509 28.9214 20.8333V23.7746Z" fill="#F1416C"/>
</svg>
