<svg width="50" height="50" viewBox="0 0 50 50" fill="none" xmlns="http://www.w3.org/2000/svg">
<path d="M18.1698 6.02448H10.0727C7.83669 6.02448 6.02408 7.83708 6.02408 10.0731V18.1702C6.02408 20.4062 7.83669 22.2188 10.0727 22.2188H18.1698C20.4058 22.2188 22.2184 20.4062 22.2184 18.1702V10.0731C22.2184 7.83708 20.4058 6.02448 18.1698 6.02448Z" fill="#7239EA" stroke="#7239EA" stroke-width="2.76923"/>
<path opacity="0.6" d="M40.437 6.02411L32.3399 6.02411C30.1039 6.02411 28.2913 7.83672 28.2913 10.0727V18.1698C28.2913 20.4058 30.1039 22.2184 32.3399 22.2184H40.437C42.673 22.2184 44.4856 20.4058 44.4856 18.1698V10.0727C44.4856 7.83672 42.673 6.02411 40.437 6.02411Z" fill="#7239EA" stroke="#7239EA" stroke-width="2.76923"/>
<path d="M18.1699 28.2914H10.0727C7.83678 28.2914 6.02417 30.1041 6.02417 32.34V40.4372C6.02417 42.6731 7.83678 44.4857 10.0727 44.4857H18.1699C20.4059 44.4857 22.2185 42.6731 22.2185 40.4372V32.34C22.2185 30.1041 20.4059 28.2914 18.1699 28.2914Z" fill="#7239EA" stroke="#7239EA" stroke-width="2.76923"/>
<path d="M40.437 28.2914H32.3399C30.1039 28.2914 28.2913 30.1041 28.2913 32.34V40.4372C28.2913 42.6731 30.1039 44.4857 32.3399 44.4857H40.437C42.673 44.4857 44.4856 42.6731 44.4856 40.4372V32.34C44.4856 30.1041 42.673 28.2914 40.437 28.2914Z" fill="#7239EA" stroke="#7239EA" stroke-width="2.76923"/>
</svg>
