<svg width="40" height="40" viewBox="0 0 40 40" fill="none" xmlns="http://www.w3.org/2000/svg">
<path opacity="0.3" fill-rule="evenodd" clip-rule="evenodd" d="M8.33337 11.6667C8.33337 15.3486 11.3181 18.3333 15 18.3333C18.6819 18.3333 21.6667 15.3486 21.6667 11.6667C21.6667 7.98477 18.6819 5 15 5C11.3181 5 8.33337 7.98477 8.33337 11.6667ZM25 18.3333C25 21.0948 27.2386 23.3333 30 23.3333C32.7615 23.3333 35 21.0948 35 18.3333C35 15.5719 32.7615 13.3333 30 13.3333C27.2386 13.3333 25 15.5719 25 18.3333Z" fill="white"/>
<path fill-rule="evenodd" clip-rule="evenodd" d="M14.9722 21.6666C7.10319 21.6666 0.647098 25.7108 0.00108614 33.6653C-0.0341029 34.0986 0.79452 35 1.2125 35H28.7445C29.9965 35 30.016 33.9924 29.9965 33.6666C29.5081 25.4886 22.952 21.6666 14.9722 21.6666ZM39.0933 34.9999H32.6666C32.6666 31.2484 31.4271 27.7863 29.3353 25.001C35.0128 25.063 39.6486 27.9335 39.9975 33.9999C40.0115 34.2443 39.9975 34.9999 39.0933 34.9999Z" fill="white"/>
</svg>
