<svg width="40" height="40" viewBox="0 0 40 40" fill="none" xmlns="http://www.w3.org/2000/svg">
<path d="M13.092 1.25024H5.1973C3.01723 1.25024 1.24994 3.01754 1.24994 5.1976V13.0923C1.24994 15.2724 3.01723 17.0397 5.1973 17.0397H13.092C15.2721 17.0397 17.0394 15.2724 17.0394 13.0923V5.1976C17.0394 3.01754 15.2721 1.25024 13.092 1.25024Z" fill="white" stroke="white" stroke-width="2"/>
<path opacity="0.6" d="M34.8025 1.25L26.9078 1.25C24.7277 1.25 22.9604 3.01729 22.9604 5.19736V13.0921C22.9604 15.2721 24.7277 17.0394 26.9078 17.0394H34.8025C36.9826 17.0394 38.7499 15.2721 38.7499 13.0921V5.19736C38.7499 3.01729 36.9826 1.25 34.8025 1.25Z" fill="white" stroke="white" stroke-width="2"/>
<path d="M13.0921 22.9607H5.19736C3.01729 22.9607 1.25 24.728 1.25 26.9081V34.8028C1.25 36.9828 3.01729 38.7501 5.19736 38.7501H13.0921C15.2721 38.7501 17.0394 36.9828 17.0394 34.8028V26.9081C17.0394 24.728 15.2721 22.9607 13.0921 22.9607Z" fill="white" stroke="white" stroke-width="2"/>
<path d="M34.8025 22.9607H26.9078C24.7277 22.9607 22.9604 24.728 22.9604 26.9081V34.8028C22.9604 36.9828 24.7277 38.7501 26.9078 38.7501H34.8025C36.9826 38.7501 38.7499 36.9828 38.7499 34.8028V26.9081C38.7499 24.728 36.9826 22.9607 34.8025 22.9607Z" fill="white" stroke="white" stroke-width="2"/>
</svg>
