<svg width="40" height="40" viewBox="0 0 40 40" fill="none" xmlns="http://www.w3.org/2000/svg">
<path d="M33.125 38.75H6.875C5.75 38.75 5 38 5 36.875V3.125C5 2 5.75 1.25 6.875 1.25H23.75L35 12.5V36.875C35 38 34.25 38.75 33.125 38.75ZM25.625 29.375C25.625 28.25 24.875 27.5 23.75 27.5H12.5C11.375 27.5 10.625 28.25 10.625 29.375C10.625 30.5 11.375 31.25 12.5 31.25H23.75C24.875 31.25 25.625 30.5 25.625 29.375ZM29.375 20C29.375 18.875 28.625 18.125 27.5 18.125H12.5C11.375 18.125 10.625 18.875 10.625 20C10.625 21.125 11.375 21.875 12.5 21.875H27.5C28.625 21.875 29.375 21.125 29.375 20ZM29.375 10.625C29.375 9.5 28.625 8.75 27.5 8.75H12.5C11.375 8.75 10.625 9.5 10.625 10.625C10.625 11.75 11.375 12.5 12.5 12.5H27.5C28.625 12.5 29.375 11.75 29.375 10.625Z" fill="white"/>
<path d="M25.625 12.5H35L23.75 1.25V10.625C23.75 11.75 24.5 12.5 25.625 12.5Z" fill="#A681F4"/>
</svg>
