<svg width="35" height="41" viewBox="0 0 35 41" fill="none" xmlns="http://www.w3.org/2000/svg">
<path opacity="0.3" d="M32.2857 40.7293H2.28569C0.99998 40.7293 0.142838 39.9281 0.142838 38.7264V2.67469C0.142838 1.47296 0.99998 0.671814 2.28569 0.671814H21.5714L34.4286 12.6891V38.7264C34.4286 39.9281 33.5714 40.7293 32.2857 40.7293ZM23.7143 30.7149C23.7143 29.5132 22.8571 28.712 21.5714 28.712H8.71427C7.42855 28.712 6.57141 29.5132 6.57141 30.7149C6.57141 31.9166 7.42855 32.7178 8.71427 32.7178H21.5714C22.8571 32.7178 23.7143 31.9166 23.7143 30.7149ZM28 20.7005C28 19.4988 27.1428 18.6977 25.8571 18.6977H8.71427C7.42855 18.6977 6.57141 19.4988 6.57141 20.7005C6.57141 21.9023 7.42855 22.7034 8.71427 22.7034H25.8571C27.1428 22.7034 28 21.9023 28 20.7005ZM28 10.6862C28 9.48446 27.1428 8.68331 25.8571 8.68331H8.71427C7.42855 8.68331 6.57141 9.48446 6.57141 10.6862C6.57141 11.8879 7.42855 12.6891 8.71427 12.6891H25.8571C27.1428 12.6891 28 11.8879 28 10.6862Z" fill="#009EF7"/>
</svg>
