<svg width="32" height="33" viewBox="0 0 32 33" fill="none" xmlns="http://www.w3.org/2000/svg">
<g clip-path="url(#clip0_2589_3314)">
<path d="M8 0.5C6.9 0.5 6 1.4 6 2.5V30.5C6 31.6 6.9 32.5 8 32.5H28C29.1 32.5 30 31.6 30 30.5V8.5L22 0.5H8Z" fill="#E2E5E7"/>
<path d="M24 8.5H30L22 0.5V6.5C22 7.6 22.9 8.5 24 8.5Z" fill="#B0B7BD"/>
<path d="M30 14.5L24 8.5H30V14.5Z" fill="#CAD1D8"/>
<path d="M26 26.5C26 27.05 25.55 27.5 25 27.5H3C2.45 27.5 2 27.05 2 26.5V16.5C2 15.95 2.45 15.5 3 15.5H25C25.55 15.5 26 15.95 26 16.5V26.5Z" fill="#576D7E"/>
<path d="M25 27.5H6V28.5H25C25.55 28.5 26 28.05 26 27.5V26.5C26 27.05 25.55 27.5 25 27.5Z" fill="#CAD1D8"/>
</g>
<defs>
<clipPath id="clip0_2589_3314">
<rect width="32" height="32" fill="white" transform="translate(0 0.5)"/>
</clipPath>
</defs>
</svg>
