<?xml version="1.0" encoding="utf-8"?>
<!-- Generator: Adobe Illustrator 23.0.3, SVG Export Plug-In . SVG Version: 6.00 Build 0)  -->
<svg version="1.1" id="Calque_1" xmlns="http://www.w3.org/2000/svg" xmlns:xlink="http://www.w3.org/1999/xlink" x="0px" y="0px"
	 viewBox="0 0 180 180" style="enable-background:new 0 0 180 180;" xml:space="preserve">
<style type="text/css">
	.st0{fill:#FFFFFF;}
	.st1{fill:#FAF3FF;}
	.st2{display:none;}
	.st3{display:inline;fill:none;stroke:#FFFFFF;stroke-miterlimit:10;}
	.st4{display:inline;fill:#D800FF;}
	.st5{display:inline;fill:#9D00FF;}
	.st6{display:inline;fill:#8A00EC;}
	.st7{display:inline;fill:#B001F0;}
	.st8{display:inline;fill:#B44CFF;}
	.st9{display:inline;fill:#BB00FF;}
	.st10{display:inline;fill:#DB01FF;}
	.st11{display:inline;fill:#C402FF;}
	.st12{display:inline;fill:#F300FF;}
	.st13{display:inline;fill:#A701FF;}
	.st14{display:inline;fill:#B052FF;}
	.st15{fill:none;stroke:#FFFFFF;stroke-miterlimit:10;}
	.st16{fill:#EE05F2;}
	.st17{fill:#AB05F2;}
	.st18{fill:#7C05F2;}
	.st19{fill:#AB63F2;}
	.st20{opacity:0.1;fill:#AB05F2;}
	.st21{fill:url(#SVGID_1_);}
	.st22{fill:url(#SVGID_2_);}
	.st23{fill:#DC00FF;}
	.st24{fill:url(#SVGID_3_);}
	.st25{fill:url(#SVGID_4_);}
	.st26{fill:url(#SVGID_5_);}
	.st27{fill:url(#SVGID_6_);}
	.st28{fill:url(#SVGID_7_);}
	.st29{fill:url(#SVGID_8_);}
	.st30{fill:url(#SVGID_9_);}
	.st31{fill:#D400FF;}
	.st32{fill:#8C00EA;}
	.st33{fill:url(#SVGID_10_);}
	.st34{fill:url(#SVGID_11_);}
	.st35{fill:url(#SVGID_12_);}
	.st36{fill:url(#SVGID_13_);}
	.st37{fill:url(#SVGID_14_);}
	.st38{fill:url(#SVGID_15_);}
	.st39{fill:url(#SVGID_16_);}
	.st40{fill:url(#SVGID_17_);}
	.st41{fill:url(#SVGID_18_);}
	.st42{fill:url(#SVGID_19_);}
	.st43{fill:url(#SVGID_20_);}
	.st44{fill:url(#SVGID_21_);}
	.st45{fill:url(#SVGID_22_);}
	.st46{fill:url(#SVGID_23_);}
	.st47{fill:url(#SVGID_24_);}
	.st48{fill:url(#SVGID_25_);}
	.st49{fill:url(#SVGID_26_);}
	.st50{fill:url(#SVGID_27_);}
	.st51{fill:url(#SVGID_28_);}
	.st52{fill:url(#SVGID_29_);}
	.st53{fill:url(#SVGID_30_);}
	.st54{fill:url(#SVGID_31_);}
	.st55{fill:url(#SVGID_32_);}
	.st56{fill:url(#SVGID_33_);}
	.st57{fill:url(#SVGID_34_);}
	.st58{fill:url(#SVGID_35_);}
	.st59{fill:url(#SVGID_36_);}
	.st60{fill:url(#SVGID_37_);}
	.st61{fill:url(#SVGID_38_);}
	.st62{fill:url(#SVGID_39_);}
	.st63{fill:url(#SVGID_40_);}
	.st64{fill:url(#SVGID_41_);}
	.st65{fill:url(#SVGID_42_);}
	.st66{fill:url(#SVGID_43_);}
	.st67{fill:url(#SVGID_44_);}
	.st68{fill:url(#SVGID_45_);}
	.st69{fill:url(#SVGID_46_);}
	.st70{fill:url(#SVGID_47_);}
	.st71{fill:url(#SVGID_48_);}
	.st72{fill:url(#SVGID_49_);}
	.st73{fill:url(#SVGID_50_);}
	.st74{fill:url(#SVGID_51_);}
	.st75{fill:url(#SVGID_52_);}
	.st76{fill:url(#SVGID_53_);}
	.st77{fill:url(#SVGID_54_);}
	.st78{fill:url(#SVGID_55_);}
	.st79{fill:url(#SVGID_56_);}
	.st80{fill:url(#SVGID_57_);}
	.st81{fill:url(#SVGID_58_);}
	.st82{fill:url(#SVGID_59_);}
	.st83{stroke:#000000;stroke-width:4;stroke-miterlimit:10;}
	.st84{fill:url(#SVGID_60_);}
	.st85{fill:url(#SVGID_61_);}
	.st86{fill:url(#SVGID_62_);}
	.st87{fill:url(#SVGID_63_);}
	.st88{fill:url(#SVGID_64_);}
	.st89{fill:url(#SVGID_65_);}
	.st90{fill:url(#SVGID_66_);}
	.st91{fill:url(#SVGID_67_);}
	.st92{fill:url(#SVGID_68_);}
	.st93{fill:url(#SVGID_69_);}
	.st94{fill:url(#SVGID_70_);}
	.st95{fill:url(#SVGID_71_);}
	.st96{fill:url(#SVGID_72_);}
	.st97{fill:url(#SVGID_73_);}
	.st98{fill:url(#SVGID_74_);}
	.st99{fill:url(#SVGID_75_);}
	.st100{fill:url(#SVGID_76_);}
	.st101{fill:url(#SVGID_77_);}
	.st102{fill:url(#SVGID_78_);}
	.st103{fill:url(#SVGID_79_);}
	.st104{fill:url(#SVGID_80_);}
	.st105{fill:url(#SVGID_81_);}
	.st106{fill:url(#SVGID_82_);}
	.st107{fill:url(#SVGID_83_);}
	.st108{fill:url(#SVGID_84_);}
	.st109{fill:url(#SVGID_85_);}
	.st110{fill:url(#SVGID_86_);}
	.st111{fill:url(#SVGID_87_);}
	.st112{fill:url(#SVGID_88_);}
	.st113{fill:url(#SVGID_89_);}
	.st114{fill:url(#SVGID_90_);}
	.st115{fill:url(#SVGID_91_);}
	.st116{fill:url(#SVGID_92_);}
	.st117{fill:url(#SVGID_93_);}
	.st118{fill:url(#SVGID_94_);}
	.st119{fill:url(#SVGID_95_);}
	.st120{fill:url(#SVGID_96_);}
	.st121{fill:url(#SVGID_97_);}
	.st122{fill:url(#SVGID_98_);}
	.st123{fill:none;}
	.st124{fill:url(#SVGID_99_);}
	.st125{fill:url(#SVGID_100_);}
	.st126{fill:url(#SVGID_101_);}
	.st127{fill:url(#SVGID_102_);}
	.st128{fill:url(#SVGID_103_);}
	.st129{fill:url(#SVGID_104_);}
	.st130{fill:url(#SVGID_105_);}
	.st131{fill:url(#SVGID_106_);}
	.st132{fill:url(#SVGID_107_);}
	.st133{fill:url(#SVGID_108_);}
	.st134{fill:url(#SVGID_109_);}
	.st135{fill:url(#SVGID_110_);}
	.st136{fill:url(#SVGID_111_);}
	.st137{fill:url(#SVGID_112_);}
	.st138{fill:url(#SVGID_113_);}
	.st139{fill:url(#SVGID_114_);}
	.st140{fill:url(#SVGID_115_);}
	.st141{fill:url(#SVGID_116_);}
	.st142{fill:url(#SVGID_117_);}
	.st143{fill:url(#SVGID_118_);}
	.st144{fill:url(#SVGID_119_);}
	.st145{fill:url(#SVGID_120_);}
	.st146{fill:url(#SVGID_121_);}
	.st147{fill:url(#SVGID_122_);}
	.st148{fill:url(#SVGID_123_);}
	.st149{fill:url(#SVGID_124_);}
	.st150{fill:url(#SVGID_125_);}
	.st151{fill:url(#SVGID_126_);}
	.st152{fill:url(#SVGID_127_);}
	.st153{fill:url(#SVGID_128_);}
	.st154{fill:url(#SVGID_129_);}
	.st155{fill:url(#SVGID_130_);}
	.st156{fill:url(#SVGID_131_);}
	.st157{fill:url(#SVGID_132_);}
	.st158{fill:url(#SVGID_133_);}
	.st159{fill:url(#SVGID_134_);}
	.st160{fill:url(#SVGID_135_);}
	.st161{fill:url(#SVGID_136_);}
	.st162{fill:url(#SVGID_137_);}
	.st163{fill:url(#SVGID_138_);}
	.st164{fill:url(#SVGID_139_);}
	.st165{fill:url(#SVGID_140_);}
	.st166{fill:url(#SVGID_141_);}
	.st167{fill:url(#SVGID_142_);}
	.st168{fill:url(#SVGID_143_);}
	.st169{fill:url(#SVGID_144_);}
	.st170{fill:url(#SVGID_145_);}
	.st171{fill:url(#SVGID_146_);}
	.st172{fill:url(#SVGID_147_);}
	.st173{fill:url(#SVGID_148_);}
	.st174{fill:url(#SVGID_149_);}
	.st175{fill:url(#SVGID_150_);}
	.st176{fill:url(#SVGID_151_);}
	.st177{fill:url(#SVGID_152_);}
	.st178{fill:url(#SVGID_153_);}
	.st179{fill:url(#SVGID_154_);}
	.st180{fill:url(#SVGID_155_);}
	.st181{fill:url(#SVGID_156_);}
	.st182{fill:url(#SVGID_157_);}
	.st183{fill:url(#SVGID_158_);}
	.st184{fill:url(#SVGID_159_);}
	.st185{fill:url(#SVGID_160_);}
	.st186{fill:url(#SVGID_161_);}
	.st187{fill:url(#SVGID_162_);}
	.st188{fill:url(#SVGID_163_);}
	.st189{fill:url(#SVGID_164_);}
	.st190{fill:url(#SVGID_165_);}
	.st191{fill:url(#SVGID_166_);}
	.st192{fill:url(#SVGID_167_);}
	.st193{fill:url(#SVGID_168_);}
	.st194{fill:url(#SVGID_169_);}
	.st195{fill:url(#SVGID_170_);}
	.st196{fill:url(#SVGID_171_);}
	.st197{fill:url(#SVGID_172_);}
	.st198{fill:url(#SVGID_173_);}
	.st199{fill:url(#SVGID_174_);}
	.st200{fill:url(#SVGID_175_);}
	.st201{fill:url(#SVGID_176_);}
	.st202{fill:url(#SVGID_177_);}
	.st203{fill:url(#SVGID_178_);}
	.st204{fill:url(#SVGID_179_);}
	.st205{fill:url(#SVGID_180_);}
	.st206{fill:url(#SVGID_181_);}
	.st207{fill:url(#SVGID_182_);}
	.st208{fill:url(#SVGID_183_);}
	.st209{fill:url(#SVGID_184_);}
	.st210{fill:url(#SVGID_185_);}
	.st211{fill:url(#SVGID_186_);}
	.st212{fill:url(#SVGID_187_);}
	.st213{fill:url(#SVGID_188_);}
	.st214{fill:url(#SVGID_189_);}
	.st215{fill:url(#SVGID_190_);}
	.st216{fill:url(#SVGID_191_);}
	.st217{fill:url(#SVGID_192_);}
	.st218{fill:url(#SVGID_193_);}
	.st219{fill:url(#SVGID_194_);}
	.st220{fill:url(#SVGID_195_);}
	.st221{fill:url(#SVGID_196_);}
	.st222{fill:url(#SVGID_197_);}
	.st223{fill:url(#SVGID_198_);}
	.st224{fill:url(#SVGID_199_);}
	.st225{fill:url(#SVGID_200_);}
	.st226{fill:url(#SVGID_201_);}
	.st227{fill:url(#SVGID_202_);}
	.st228{fill:url(#SVGID_203_);}
	.st229{fill:url(#SVGID_204_);}
	.st230{fill:url(#SVGID_205_);}
	.st231{fill:url(#SVGID_206_);}
	.st232{fill:url(#SVGID_207_);}
	.st233{fill:url(#SVGID_208_);}
	.st234{fill:url(#SVGID_209_);}
	.st235{fill:url(#SVGID_210_);}
	.st236{fill:url(#SVGID_211_);}
	.st237{fill:url(#SVGID_212_);}
	.st238{fill:url(#SVGID_213_);}
	.st239{fill:url(#SVGID_214_);}
	.st240{fill:url(#SVGID_215_);}
	.st241{fill:url(#SVGID_216_);}
	.st242{fill:url(#SVGID_217_);}
	.st243{fill:url(#SVGID_218_);}
	.st244{fill:url(#SVGID_219_);}
	.st245{fill:url(#SVGID_220_);}
	.st246{fill:url(#SVGID_221_);}
	.st247{fill:url(#SVGID_222_);}
	.st248{fill:url(#SVGID_223_);}
	.st249{fill:url(#SVGID_224_);}
	.st250{fill:url(#SVGID_225_);}
	.st251{fill:url(#SVGID_226_);}
	.st252{fill:url(#SVGID_227_);}
	.st253{fill:url(#SVGID_228_);}
	.st254{fill:url(#SVGID_229_);}
	.st255{fill:url(#SVGID_230_);}
	.st256{fill:none;stroke:#FFFFFF;stroke-width:4;stroke-miterlimit:10;}
	.st257{fill:url(#SVGID_231_);}
	.st258{fill:url(#SVGID_232_);}
	.st259{fill:url(#SVGID_233_);}
	.st260{fill:url(#SVGID_234_);}
	.st261{fill:url(#SVGID_235_);}
	.st262{fill:url(#SVGID_236_);}
	.st263{fill:url(#SVGID_237_);}
	.st264{fill:url(#SVGID_238_);}
	.st265{fill:url(#SVGID_239_);}
	.st266{fill:url(#SVGID_240_);}
	.st267{fill:url(#SVGID_241_);}
	.st268{fill:url(#SVGID_242_);}
	.st269{fill:url(#SVGID_243_);}
	.st270{fill:url(#SVGID_244_);}
	.st271{fill:url(#SVGID_245_);}
	.st272{fill:url(#SVGID_246_);}
	.st273{fill:url(#SVGID_247_);}
	.st274{fill:url(#SVGID_248_);}
	.st275{fill:url(#SVGID_249_);}
	.st276{fill:url(#SVGID_250_);}
	.st277{fill:url(#SVGID_251_);}
	.st278{fill:url(#SVGID_252_);}
	.st279{fill:url(#SVGID_253_);}
	.st280{fill:url(#SVGID_254_);}
	.st281{fill:url(#SVGID_255_);}
	.st282{fill:url(#SVGID_256_);}
	.st283{display:inline;fill:url(#SVGID_257_);}
	.st284{display:inline;fill:url(#SVGID_258_);}
	.st285{fill:url(#SVGID_259_);}
	.st286{fill:url(#SVGID_260_);}
	.st287{fill:url(#SVGID_261_);}
	.st288{fill:url(#SVGID_262_);}
	.st289{fill:url(#SVGID_263_);}
	.st290{fill:url(#SVGID_264_);}
	.st291{fill:url(#SVGID_265_);}
	.st292{fill:url(#SVGID_266_);}
	.st293{fill:url(#SVGID_267_);}
	.st294{fill:url(#SVGID_268_);}
	.st295{fill:url(#SVGID_269_);}
	.st296{fill:url(#SVGID_270_);}
	.st297{fill:url(#SVGID_271_);}
	.st298{fill:url(#SVGID_272_);}
	.st299{fill:url(#SVGID_273_);}
	.st300{fill:url(#SVGID_274_);}
	.st301{fill:url(#SVGID_275_);}
	.st302{fill:url(#SVGID_276_);}
	.st303{fill:url(#SVGID_277_);}
	.st304{fill:url(#SVGID_278_);}
	.st305{fill:url(#SVGID_279_);}
	.st306{fill:url(#SVGID_280_);}
	.st307{fill:url(#SVGID_281_);}
	.st308{fill:url(#SVGID_282_);}
	.st309{fill:url(#SVGID_283_);}
	.st310{fill:url(#SVGID_284_);}
	.st311{fill:url(#SVGID_285_);}
	.st312{fill:url(#SVGID_286_);}
	.st313{opacity:0.1;fill:#181C32;}
	.st314{fill:url(#SVGID_287_);}
	.st315{fill:url(#SVGID_288_);}
	.st316{fill:url(#SVGID_289_);}
	.st317{fill:url(#SVGID_290_);}
	.st318{fill:url(#SVGID_291_);}
	.st319{fill:url(#SVGID_292_);}
	.st320{fill:url(#SVGID_293_);}
	.st321{fill:url(#SVGID_294_);}
	.st322{fill:url(#SVGID_295_);}
	.st323{fill:url(#SVGID_296_);}
	.st324{fill:url(#SVGID_297_);}
	.st325{fill:url(#SVGID_298_);}
	.st326{fill:url(#SVGID_299_);}
	.st327{fill:#181C32;}
	.st328{fill:url(#SVGID_300_);}
	.st329{fill:url(#SVGID_301_);}
	.st330{fill:url(#SVGID_302_);}
	.st331{fill:url(#SVGID_303_);}
	.st332{fill:url(#SVGID_304_);}
	.st333{fill:url(#SVGID_305_);}
	.st334{fill:url(#SVGID_306_);}
	.st335{fill:url(#SVGID_307_);}
	.st336{fill:url(#SVGID_308_);}
	.st337{fill:url(#SVGID_309_);}
	.st338{fill:url(#SVGID_310_);}
	.st339{fill:url(#SVGID_311_);}
	.st340{fill:url(#SVGID_312_);}
	.st341{fill:url(#SVGID_313_);}
	.st342{fill:url(#SVGID_314_);}
	.st343{fill:url(#SVGID_315_);}
	.st344{fill:url(#SVGID_316_);}
	.st345{fill:url(#SVGID_317_);}
	.st346{fill:url(#SVGID_318_);}
	.st347{fill:url(#SVGID_319_);}
	.st348{fill:url(#SVGID_320_);}
	.st349{fill:url(#SVGID_321_);}
	.st350{fill:url(#SVGID_322_);}
	.st351{fill:url(#SVGID_323_);}
	.st352{fill:url(#SVGID_324_);}
	.st353{fill:url(#SVGID_325_);}
	.st354{fill:url(#SVGID_326_);}
	.st355{fill:url(#SVGID_327_);}
	.st356{fill:url(#SVGID_328_);}
	.st357{fill:url(#SVGID_329_);}
	.st358{fill:url(#SVGID_330_);}
	.st359{fill:url(#SVGID_331_);}
	.st360{fill:url(#SVGID_332_);}
	.st361{fill:url(#SVGID_333_);}
	.st362{fill:url(#SVGID_334_);}
	.st363{fill:url(#SVGID_335_);}
	.st364{fill:url(#SVGID_336_);}
	.st365{fill:url(#SVGID_337_);}
	.st366{fill:url(#SVGID_338_);}
	.st367{fill:url(#SVGID_339_);}
	.st368{fill:url(#SVGID_340_);}
	.st369{fill:url(#SVGID_341_);}
	.st370{fill:url(#SVGID_342_);}
	.st371{fill:url(#SVGID_343_);}
	.st372{fill:url(#SVGID_344_);}
	.st373{fill:url(#SVGID_345_);}
	.st374{fill:url(#SVGID_346_);}
	.st375{fill:url(#SVGID_347_);}
	.st376{fill:url(#SVGID_348_);}
	.st377{fill:url(#SVGID_349_);}
	.st378{fill:url(#SVGID_350_);}
	.st379{fill:url(#SVGID_351_);}
	.st380{fill:url(#SVGID_352_);}
	.st381{fill:url(#SVGID_353_);}
	.st382{fill:url(#SVGID_354_);}
	.st383{fill:url(#SVGID_355_);}
	.st384{fill:url(#SVGID_356_);}
	.st385{fill:url(#SVGID_357_);}
	.st386{fill:url(#SVGID_358_);}
	.st387{fill:url(#SVGID_359_);}
</style>
<g>
	<linearGradient id="SVGID_1_" gradientUnits="userSpaceOnUse" x1="6.3373" y1="109.0352" x2="57.9863" y2="-4.2841">
		<stop  offset="0" style="stop-color:#CA00FF"/>
		<stop  offset="0.9995" style="stop-color:#AB00FF"/>
	</linearGradient>
	<path class="st21" d="M79.7,0.6C68.4,9.3,59.4,21,53.9,34.4C39,49.1,29.1,68.9,27,90.9c-0.3,2.9-0.4,5.9-0.4,8.9c0,0.6,0,1.1,0,1.7
		c-1.4,5.4-2.4,11-2.9,16.7c-1.3-1.9-2.6-3.8-3.8-5.7C10.8,97.6,5.2,80.4,4.4,62C15.2,29.1,44.3,4.6,79.7,0.6z"/>
	<linearGradient id="SVGID_2_" gradientUnits="userSpaceOnUse" x1="53.925" y1="17.221" x2="128.3186" y2="17.221">
		<stop  offset="0" style="stop-color:#C730FF"/>
		<stop  offset="0.9995" style="stop-color:#AD55FF"/>
	</linearGradient>
	<path class="st22" d="M128.3,8.5c-3.3-0.4-6.6-0.5-9.9-0.5c-12.9,0-25.2,2.7-36.4,7.5c0,0,0,0,0,0c-10.5,4.5-20,11-28.1,18.9
		C59.4,21,68.4,9.3,79.7,0.6C83.1,0.2,86.5,0,90,0c9.6,0,18.9,1.5,27.6,4.3h0C121.3,5.5,124.9,6.9,128.3,8.5z"/>
	<path class="st23" d="M27.9,155.1c-2.7-2.6-5.3-5.3-7.6-8.2C7.6,131.4,0,111.6,0,90c0-9.8,1.6-19.2,4.4-28
		c0.8,18.4,6.3,35.7,15.5,50.4c1.2,2,2.5,3.9,3.8,5.7c-0.2,2.6-0.3,5.3-0.3,8C23.4,136.2,25,146,27.9,155.1z"/>
	<linearGradient id="SVGID_3_" gradientUnits="userSpaceOnUse" x1="50.5952" y1="172.6957" x2="32.0941" y2="105.6291">
		<stop  offset="0" style="stop-color:#E200FF"/>
		<stop  offset="0.9995" style="stop-color:#EF02FE"/>
	</linearGradient>
	<path class="st24" d="M69.9,177.8c-16.1-3.7-30.5-11.6-42-22.6c-2.9-9.1-4.5-18.9-4.5-29c0-2.7,0.1-5.4,0.3-8
		c0.5-5.7,1.5-11.3,2.9-16.7c0.2,8.8,1.6,17.3,4,25.4C37.2,148.2,51.3,166.2,69.9,177.8z"/>
	<linearGradient id="SVGID_4_" gradientUnits="userSpaceOnUse" x1="52.1005" y1="33.5223" x2="29.745" y2="93.2655">
		<stop  offset="0" style="stop-color:#AD01FF"/>
		<stop  offset="0.9995" style="stop-color:#9800FF"/>
	</linearGradient>
	<path class="st25" d="M53.9,34.4c-0.1,0.3-0.2,0.5-0.3,0.8c-3.3,8.4-5,17.6-5.3,27.1c-1.4,1.6-3.1,3.1-4.4,4.8
		c-0.1,0.1-0.2,0.2-0.3,0.3c-7.8,9.9-13.6,21.4-16.9,33.9c0-0.6,0-1.1,0-1.7c0-3,0.1-6,0.4-8.9C29.1,68.9,39,49.1,53.9,34.4z"/>
	<linearGradient id="SVGID_5_" gradientUnits="userSpaceOnUse" x1="48.1236" y1="38.4933" x2="169.452" y2="38.4933">
		<stop  offset="0" style="stop-color:#C300FF"/>
		<stop  offset="1" style="stop-color:#A802EA"/>
	</linearGradient>
	<path class="st26" d="M169.5,58.6c0,3.6-0.3,7-1,10.4c-15.8-16.7-38.2-27.1-63-27.2c0,0,0,0,0,0c-4.8-1.5-9.8-2.3-15.1-2.3
		c-6.2,0-12.1,1.1-17.5,3.1c0,0,0,0,0,0c-4,1.5-7.7,3.4-11.2,5.8c-4.9,3.4-9.2,7.7-12.6,12.6c0,0,0,0,0,0c-0.3,0.4-0.6,0.9-0.8,1.3
		c-0.8-7,2-18.7,5.3-27.1c0.1-0.3,0.2-0.5,0.3-0.8C62,26.5,71.5,20,82,15.5c0,0,0,0,0,0C93.2,10.7,105.4,8,118.4,8
		c3.4,0,6.7,0.2,9.9,0.5c16.4,7.7,30.1,20.3,39.2,35.8c0,0.1,0.1,0.2,0.1,0.3C168.8,49.1,169.5,53.8,169.5,58.6z"/>
	<linearGradient id="SVGID_6_" gradientUnits="userSpaceOnUse" x1="35.4238" y1="84.6083" x2="158.7645" y2="124.694">
		<stop  offset="0" style="stop-color:#C800FF"/>
		<stop  offset="1.964279e-02" style="stop-color:#C400FF"/>
		<stop  offset="0.1306" style="stop-color:#B300FD"/>
		<stop  offset="0.2681" style="stop-color:#A800FD"/>
		<stop  offset="0.4618" style="stop-color:#A100FC"/>
		<stop  offset="0.9995" style="stop-color:#9F00FC"/>
	</linearGradient>
	<path class="st27" d="M180,90c0,17.7-5.1,34.3-14,48.2c-2.6,4.2-5.6,8.1-8.9,11.7c-14.5,7.6-31,12-48.5,12c-31,0-58.9-13.5-78-35.1
		c-2.5-8-3.9-16.5-4-25.4c3.3-12.5,9.2-24,16.9-33.9c0.1-0.1,0.2-0.2,0.3-0.3c0.9-1.3,3-3.3,4.4-4.8c0,0.1-0.3,0.3-0.3,0.4v0
		c-0.3,0.5-0.6,0.9-0.9,1.4c0,0,0,0,0,0c-4.5,7.5-7,16.3-7,25.6c0,26.4,20.3,48,46.1,50.1c8.9,7.2,20.2,11.5,32.5,11.5
		c8.4,0,16.4-2,23.4-5.6h0c16.7-8.5,28-25.8,28-45.8c0-7.5-1.6-14.7-4.5-21.2c1.3-3.2,2.2-6.5,2.9-9.9c4.3,4.5,8.1,9.5,11.3,14.9
		C179.9,85.9,180,87.9,180,90z"/>
	<linearGradient id="SVGID_7_" gradientUnits="userSpaceOnUse" x1="30.6411" y1="153.4062" x2="157.1591" y2="153.4062">
		<stop  offset="0" style="stop-color:#AA00FF"/>
		<stop  offset="1" style="stop-color:#C402FF"/>
	</linearGradient>
	<path class="st28" d="M157.2,149.9C140.7,168.4,116.7,180,90,180c-6.9,0-13.6-0.8-20.1-2.2c-18.6-11.6-32.7-29.6-39.3-50.9
		c19.1,21.5,47,35.1,78,35.1C126.2,161.9,142.7,157.5,157.2,149.9z"/>
	<linearGradient id="SVGID_8_" gradientUnits="userSpaceOnUse" x1="119.1995" y1="78.4142" x2="165.5503" y2="78.4142">
		<stop  offset="0" style="stop-color:#CA5CFF"/>
		<stop  offset="1" style="stop-color:#B947FF"/>
	</linearGradient>
	<path class="st29" d="M165.6,78.9c-5.3,13.1-15.5,23.7-28.4,29.4c2.3-5.7,3.5-11.9,3.5-18.5c0-17.1-8.5-32.1-21.5-41.2
		C139.8,48.8,157.6,61.2,165.6,78.9z"/>
	<linearGradient id="SVGID_9_" gradientUnits="userSpaceOnUse" x1="93.1771" y1="151.6001" x2="182.2137" y2="94.1696">
		<stop  offset="0" style="stop-color:#BF01FF"/>
		<stop  offset="0.9995" style="stop-color:#A502FF"/>
	</linearGradient>
	<path class="st30" d="M170.1,100c0,20-11.4,37.3-28,45.8h0c-7,3.6-15,5.6-23.4,5.6c-12.3,0-23.6-4.3-32.5-11.5
		c1.4,0.1,2.8,0.2,4.2,0.2c2,0,4-0.1,5.9-0.3c18.7-2.2,34.2-14.6,40.9-31.5c12.9-5.7,23.1-16.3,28.4-29.4
		C168.5,85.3,170.1,92.5,170.1,100z"/>
	<path class="st31" d="M168.5,69c-0.7,3.4-1.6,6.7-2.9,9.9c-8-17.7-25.7-30.1-46.4-30.3c-4.2-2.9-8.8-5.2-13.8-6.8
		C130.3,41.8,152.6,52.3,168.5,69z"/>
	<path class="st32" d="M168.5,69c0.7-3.4,1-6.8,1-10.4c0-4.8-0.6-9.5-1.8-13.9c0-0.1-0.1-0.2-0.1-0.3c0.1,0.2,0.2,0.3,0.3,0.4
		c6.8,11.6,11,24.9,12,39.1C176.5,78.5,172.7,73.5,168.5,69z"/>
</g>
</svg>
