<svg id="Calque_1" data-name="Calque 1" xmlns="http://www.w3.org/2000/svg" xmlns:xlink="http://www.w3.org/1999/xlink" viewBox="0 0 416.49 88.71"><defs><style>.cls-1{fill:#181c32;}.cls-2{fill:url(#Dégradé_sans_nom_12);}.cls-3{fill:url(#Dégradé_sans_nom_10);}.cls-4{fill:#dc00ff;}.cls-5{fill:url(#Dégradé_sans_nom_14);}.cls-6{fill:url(#Dégradé_sans_nom_20);}.cls-7{fill:url(#Dégradé_sans_nom_7);}.cls-8{fill:url(#Dégradé_sans_nom_24);}.cls-9{fill:url(#Dégradé_sans_nom_3);}.cls-10{fill:url(#Dégradé_sans_nom_5);}.cls-11{fill:url(#Dégradé_sans_nom_18);}.cls-12{fill:#d400ff;}.cls-13{fill:#8c00ea;}</style><linearGradient id="Dégradé_sans_nom_12" x1="3.12" y1="53.74" x2="28.58" y2="-2.11" gradientUnits="userSpaceOnUse"><stop offset="0" stop-color="#ca00ff"/><stop offset="1" stop-color="#ab00ff"/></linearGradient><linearGradient id="Dégradé_sans_nom_10" x1="26.58" y1="8.49" x2="63.24" y2="8.49" gradientUnits="userSpaceOnUse"><stop offset="0" stop-color="#c730ff"/><stop offset="1" stop-color="#ad55ff"/></linearGradient><linearGradient id="Dégradé_sans_nom_14" x1="24.94" y1="85.11" x2="15.82" y2="52.06" gradientUnits="userSpaceOnUse"><stop offset="0" stop-color="#e200ff"/><stop offset="1" stop-color="#ef02fe"/></linearGradient><linearGradient id="Dégradé_sans_nom_20" x1="25.68" y1="16.52" x2="14.66" y2="45.97" gradientUnits="userSpaceOnUse"><stop offset="0" stop-color="#ad01ff"/><stop offset="1" stop-color="#9800ff"/></linearGradient><linearGradient id="Dégradé_sans_nom_7" x1="23.72" y1="18.97" x2="83.51" y2="18.97" gradientUnits="userSpaceOnUse"><stop offset="0" stop-color="#c300ff"/><stop offset="1" stop-color="#a802ea"/></linearGradient><linearGradient id="Dégradé_sans_nom_24" x1="17.46" y1="41.7" x2="78.25" y2="61.45" gradientUnits="userSpaceOnUse"><stop offset="0" stop-color="#c800ff"/><stop offset="0.02" stop-color="#c400ff"/><stop offset="0.13" stop-color="#b300fd"/><stop offset="0.27" stop-color="#a800fd"/><stop offset="0.46" stop-color="#a100fc"/><stop offset="1" stop-color="#9f00fc"/></linearGradient><linearGradient id="Dégradé_sans_nom_3" x1="15.1" y1="75.6" x2="77.45" y2="75.6" gradientUnits="userSpaceOnUse"><stop offset="0" stop-color="#a0f"/><stop offset="1" stop-color="#c402ff"/></linearGradient><linearGradient id="Dégradé_sans_nom_5" x1="58.75" y1="38.65" x2="81.59" y2="38.65" gradientUnits="userSpaceOnUse"><stop offset="0" stop-color="#ca5cff"/><stop offset="1" stop-color="#b947ff"/></linearGradient><linearGradient id="Dégradé_sans_nom_18" x1="45.92" y1="74.71" x2="89.8" y2="46.41" gradientUnits="userSpaceOnUse"><stop offset="0" stop-color="#bf01ff"/><stop offset="1" stop-color="#a502ff"/></linearGradient></defs><title>Logo Devfactory</title><path class="cls-1" d="M118.71,16.76H130.4c13.09,0,19,6.61,19,20.66,0,13-5.27,21.81-19,21.81H118.71ZM124.77,54h5.39c9.15,0,13-4.91,13-15.87,0-12-4.84-16.06-13.2-16.06h-5.15Z"/><path class="cls-1" d="M181.83,56.5c-2.36,1.82-5.76,3.21-11,3.21-9.81,0-15-5.15-15-17.26,0-11.69,6.54-17.14,14.6-17.14s12.48,5.2,12.48,13.2a54,54,0,0,1-.3,5.82H161.72c.36,7.33,3.45,10.41,9.81,10.41A11.86,11.86,0,0,0,179.16,52Zm-20-16.66H177c.06-.48.06-1.39.06-1.63,0-5.15-2.24-8-7.08-8C165.78,30.21,162.14,33,161.84,39.84Z"/><path class="cls-1" d="M198.49,44.63c1.09,3.57,1.75,6.12,2.36,8.9h.24c.61-2.72,1.33-5.33,2.36-8.9l5.82-18.72h6.12l-11,33.32h-6.84L186.07,25.91h6.54Z"/><path class="cls-1" d="M221.44,59.23V16.76h23.14V22h-17V36.39h14.9v5.27h-14.9V59.23Z"/><path class="cls-1" d="M271.18,35.78V50.32c0,2.67.84,4.3,3,4.3h.91v4.3a5.32,5.32,0,0,1-2.54.61,6,6,0,0,1-6.06-3.94h-.24c-1.52,1.82-4.12,4.24-9.51,4.24-6.24,0-9.69-4.36-9.69-8.9,0-7.51,7.14-11.09,18.53-10.78V36.81c0-4.9-2.42-6.36-6.36-6.36a7.59,7.59,0,0,0-7,3.94l-4.31-3.33a13.4,13.4,0,0,1,11.45-5.69C266.81,25.37,271.18,28.45,271.18,35.78Zm-5.64,8.79c-7.33-.37-12.6,1.45-12.6,5.81,0,2.61,1.88,4.73,5.27,4.73a8.84,8.84,0,0,0,7.33-3.94Z"/><path class="cls-1" d="M294.62,25.31c5.33,0,8.6,2,10.11,3.87l-4,4.18a8.17,8.17,0,0,0-6.3-2.91c-4.91,0-8.18,3.21-8.18,11.94s3,12.29,8.18,12.29a7.69,7.69,0,0,0,6.24-2.84l3.75,3.87c-1.51,1.82-4.42,4.06-10.54,4.06-8.42,0-13.81-4.78-13.81-16.78S286.2,25.31,294.62,25.31Z"/><path class="cls-1" d="M311.94,49.84V30.64h-4.72V26.88l4.72-1.21,1.94-8.42h4v8.66h8.9v4.73h-8.9V49.72c0,3.27,1.69,4.72,4.42,4.72a8.44,8.44,0,0,0,5-1.27l1.57,4.66c-1.21.79-3.51,1.7-8,1.7C315.27,59.53,311.94,56.62,311.94,49.84Z"/><path class="cls-1" d="M332.66,42.69c0-10.3,4-17.38,14.41-17.38s14.06,6.84,14.06,17.08-4,17.38-14.42,17.38S332.66,52.93,332.66,42.69ZM347.07,54.8c5.82,0,7.88-3.93,7.88-12,0-8.36-2.36-12.48-8.24-12.48-5.63,0-7.87,3.94-7.87,12.06C338.84,50.63,341.26,54.8,347.07,54.8Z"/><path class="cls-1" d="M386.63,31.73a15.65,15.65,0,0,0-3.76-.49c-3.09,0-6.36,1.27-8.05,3.82V59.23h-5.94V25.91h4.6L374.76,30H375a9.28,9.28,0,0,1,8.42-4.66,14.13,14.13,0,0,1,3.21.3Z"/><path class="cls-1" d="M389.17,66.07a9.11,9.11,0,0,0,3.27.67c3.82,0,6-2.12,7.09-6.73l-12.17-34.1H394l4.9,14.84c1.76,5.33,2.79,9.09,3.52,12h.24a106.42,106.42,0,0,1,3.09-12l4.6-14.84h6.18L404.92,61.35c-2,6.18-5.33,10.6-12.48,10.6a12.11,12.11,0,0,1-4.3-.73Z"/><path class="cls-2" d="M39.28.29A40.35,40.35,0,0,0,26.58,17,45,45,0,0,0,13.32,44.79c-.14,1.44-.21,2.91-.21,4.39V50a46.3,46.3,0,0,0-1.42,8.22c-.66-.92-1.29-1.86-1.88-2.83A51.14,51.14,0,0,1,2.19,30.55,44.39,44.39,0,0,1,39.28.29Z"/><path class="cls-3" d="M63.24,4.21A46.73,46.73,0,0,0,58.34,4,45,45,0,0,0,40.41,7.64h0A45.13,45.13,0,0,0,26.58,17,40.35,40.35,0,0,1,39.28.29,44.81,44.81,0,0,1,44.35,0,44.29,44.29,0,0,1,58,2.12h0A44.06,44.06,0,0,1,63.24,4.21Z"/><path class="cls-4" d="M13.74,76.45a43.54,43.54,0,0,1-3.75-4,44.44,44.44,0,0,1-7.8-41.85A51.14,51.14,0,0,0,9.81,55.39c.59,1,1.22,1.91,1.88,2.83-.11,1.3-.17,2.61-.17,3.94A46.85,46.85,0,0,0,13.74,76.45Z"/><path class="cls-5" d="M34.47,87.6A44.26,44.26,0,0,1,13.74,76.45a46.85,46.85,0,0,1-2.22-14.29c0-1.33.06-2.64.17-3.94A46.3,46.3,0,0,1,13.11,50,45.15,45.15,0,0,0,34.47,87.6Z"/><path class="cls-6" d="M26.58,17l-.16.4a40.2,40.2,0,0,0-2.64,13.36c-.71.79-1.53,1.55-2.19,2.39l-.13.16A46.83,46.83,0,0,0,13.11,50v-.82c0-1.48.07-3,.21-4.39A45,45,0,0,1,26.58,17Z"/><path class="cls-7" d="M83.51,28.88A27,27,0,0,1,83,34,42.7,42.7,0,0,0,52,20.6h0a24.55,24.55,0,0,0-7.42-1.13A25,25,0,0,0,35.91,21h0a24.18,24.18,0,0,0-5.5,2.87,25,25,0,0,0-6.22,6.21h0c-.14.19-.28.44-.41.63-.38-3.43,1-9.23,2.64-13.36l.16-.4A45,45,0,0,1,40.41,7.64h0A45,45,0,0,1,58.34,4a46.73,46.73,0,0,1,4.9.26A44.58,44.58,0,0,1,82.58,21.84l0,.17A26.79,26.79,0,0,1,83.51,28.88Z"/><path class="cls-8" d="M88.71,44.35A44.1,44.1,0,0,1,77.45,73.88,51.44,51.44,0,0,1,15.1,62.5a45.26,45.26,0,0,1-2-12.5,46.83,46.83,0,0,1,8.35-16.71l.13-.16c.47-.64,1.48-1.64,2.19-2.39,0,0-.12.16-.14.2h0c-.15.22-.29.45-.43.68h0A24.79,24.79,0,0,0,42.47,69,25.41,25.41,0,0,0,70,71.88h0a25.41,25.41,0,0,0,11.59-33A26.42,26.42,0,0,0,83,34a42.91,42.91,0,0,1,5.59,7.33C88.68,42.33,88.71,43.34,88.71,44.35Z"/><path class="cls-9" d="M77.45,73.88a44.39,44.39,0,0,1-43,13.72A45.34,45.34,0,0,1,15.1,62.5,51.44,51.44,0,0,0,77.45,73.88Z"/><path class="cls-10" d="M81.59,38.86a26.87,26.87,0,0,1-14,14.49,24.82,24.82,0,0,0-8.86-29.41A25.37,25.37,0,0,1,81.59,38.86Z"/><path class="cls-11" d="M83.82,49.29A25.35,25.35,0,0,1,70,71.88h0A25.39,25.39,0,0,1,42.48,69q1,.09,2.07.09a25.41,25.41,0,0,0,2.91-.17A24.8,24.8,0,0,0,67.61,53.35a26.87,26.87,0,0,0,14-14.49A25.37,25.37,0,0,1,83.82,49.29Z"/><path class="cls-12" d="M83,34a26.42,26.42,0,0,1-1.43,4.86A25.37,25.37,0,0,0,58.75,23.94,24.62,24.62,0,0,0,52,20.6,42.7,42.7,0,0,1,83,34Z"/><path class="cls-13" d="M83,34a27,27,0,0,0-.4-12l0-.17.13.22a44.06,44.06,0,0,1,5.9,19.27A42.91,42.91,0,0,0,83,34Z"/></svg>