<svg width="127" height="23" viewBox="0 0 127 23" fill="none" xmlns="http://www.w3.org/2000/svg">
<g clip-path="url(#clip0_74_1087)">
<path d="M28.417 5.44775H31.3672C34.6703 5.44775 36.158 7.15914 36.158 10.8153C36.158 14.1862 34.8216 16.468 31.3672 16.468H28.417V5.44775ZM29.9551 15.0938H31.3167C33.6113 15.0938 34.5947 13.8232 34.5947 10.9709C34.5947 7.85925 33.3844 6.79612 31.2663 6.79612H29.9551V15.0938Z" fill="#181C32"/>
<path d="M44.3279 15.742C43.7227 16.2088 42.8654 16.5718 41.5542 16.5718C39.0832 16.5718 37.772 15.2234 37.772 12.0859C37.772 9.05208 39.4109 7.65186 41.4534 7.65186C43.4958 7.65186 44.6052 9.00022 44.6052 11.0746C44.6052 11.5673 44.58 12.0859 44.5296 12.5786H39.2597C39.3605 14.4715 40.117 15.2753 41.7307 15.2753C42.4368 15.2753 43.1176 15.016 43.6471 14.5752L44.3279 15.742ZM39.2849 11.4117H43.1176C43.1428 11.2821 43.1428 11.0487 43.1428 10.9968C43.1428 9.64847 42.588 8.92243 41.3525 8.92243C40.2935 8.92243 39.3605 9.64847 39.2849 11.4117Z" fill="#181C32"/>
<path d="M48.5388 12.6565C48.8161 13.59 48.9926 14.2383 49.1439 14.9643H49.1944C49.3457 14.2642 49.5222 13.59 49.7995 12.6565L51.262 7.80762H52.8001L50.0265 16.4423H48.3118L45.4121 7.80762H47.0511L48.5388 12.6565Z" fill="#181C32"/>
<path d="M54.313 16.4421V5.44775H60.1377V6.79612H55.8511V10.5301H59.6081V11.9043H55.8511V16.468H54.313V16.4421Z" fill="#181C32"/>
<path d="M66.8698 10.3744V14.1342C66.8698 14.8343 67.0715 15.2492 67.6262 15.2492H67.8532V16.3642C67.6515 16.4679 67.4245 16.5198 67.2228 16.5198C66.542 16.5717 65.9368 16.1568 65.6847 15.5085H65.6343C65.256 15.9753 64.6004 16.5976 63.2388 16.5976C61.6755 16.5976 60.793 15.4567 60.793 14.2898C60.793 12.345 62.5832 11.4116 65.4578 11.4894V10.6337C65.4578 9.36308 64.8526 8.97413 63.844 8.97413C63.1128 8.9482 62.4319 9.33715 62.0789 9.9854L60.9947 9.12971C61.6503 8.1703 62.7345 7.59984 63.8944 7.6517C65.7603 7.67763 66.8698 8.48146 66.8698 10.3744ZM65.4325 12.6562C63.5918 12.5525 62.2554 13.0452 62.2554 14.1602C62.2554 14.8343 62.7345 15.3789 63.5918 15.3789C64.3231 15.3789 65.0291 14.9899 65.4325 14.3676V12.6562Z" fill="#181C32"/>
<path d="M72.7704 7.65186C74.1068 7.65186 74.9389 8.17046 75.3172 8.66313L74.3086 9.75219C73.9051 9.25952 73.3252 9.00022 72.72 9.00022C71.4845 9.00022 70.6524 9.82999 70.6524 12.0859C70.6524 14.3418 71.4088 15.2753 72.72 15.2753C73.3252 15.3012 73.9051 15.016 74.2833 14.5493L75.2415 15.5605C74.8633 16.0273 74.132 16.6237 72.5939 16.6237C70.4759 16.6237 69.1143 15.379 69.1143 12.2674C69.1143 9.1558 70.6524 7.65186 72.7704 7.65186Z" fill="#181C32"/>
<path d="M77.1324 14.0045V9.0259H75.9473V8.04056L77.1324 7.7294L77.6115 5.55127H78.6201V7.80719H80.8642V9.0259H78.6201V13.9786C78.6201 14.8342 79.0487 15.1973 79.7295 15.1973C80.1834 15.2232 80.612 15.1195 80.9903 14.8602L81.3937 16.0789C81.0911 16.2863 80.5112 16.5197 79.3765 16.5197C77.9897 16.5197 77.1324 15.7677 77.1324 14.0045Z" fill="#181C32"/>
<path d="M82.3774 12.1637C82.3774 9.49289 83.386 7.65186 86.0084 7.65186C88.6308 7.65186 89.5637 9.4151 89.5637 12.0859C89.5637 14.7567 88.5551 16.5977 85.9328 16.5977C83.3104 16.5977 82.3774 14.8086 82.3774 12.1637ZM86.0084 15.3012C87.4709 15.3012 88.0004 14.29 88.0004 12.1896C88.0004 10.0115 87.3952 8.94836 85.9328 8.94836C84.5207 8.94836 83.9408 9.95964 83.9408 12.0859C83.9156 14.2122 84.5459 15.3012 86.0084 15.3012Z" fill="#181C32"/>
<path d="M95.968 9.31143C95.6654 9.23364 95.3376 9.18178 95.0098 9.18178C94.2281 9.18178 93.396 9.51887 92.9926 10.1671V16.4422H91.5049V7.80749H92.6648L92.9926 8.87062H93.043C93.4717 8.09272 94.3038 7.62598 95.1611 7.65191C95.4384 7.65191 95.7158 7.67784 95.968 7.7297V9.31143Z" fill="#181C32"/>
<path d="M96.6238 18.2315C96.8759 18.3352 97.1533 18.387 97.4559 18.413C98.4141 18.413 98.9688 17.8684 99.2462 16.6757L96.1699 7.8335H97.8341L99.0697 11.6712C99.5235 13.0454 99.7757 14.0308 99.9522 14.7828H100.003C100.204 13.7196 100.456 12.6824 100.784 11.6712L101.944 7.8335H103.508L100.583 17.0128C100.078 18.6204 99.2462 19.7613 97.4307 19.7613C97.0524 19.7613 96.6994 19.7095 96.3464 19.5798L96.6238 18.2315Z" fill="#181C32"/>
<path d="M9.90996 0.0776367C8.49791 1.21856 7.38845 2.69658 6.70765 4.40796C4.7913 6.32679 3.6062 8.89387 3.35405 11.6165C3.32883 11.9796 3.30362 12.3685 3.30362 12.7575V12.9649C3.12711 13.665 3.00103 14.3651 2.9506 15.0912C2.7741 14.8578 2.62281 14.5985 2.47152 14.3651C1.31163 12.4204 0.630821 10.2163 0.555176 7.93446C1.91679 3.65599 5.57297 0.596239 9.90996 0.0776367Z" fill="url(#paint0_linear_74_1087)"/>
<path d="M15.9362 1.08906C15.5328 1.06313 15.1293 1.0372 14.7007 1.0372C13.1374 1.0372 11.5992 1.34837 10.1872 1.97069C8.90123 2.56708 7.71612 3.37091 6.70752 4.40812C7.38833 2.69673 8.49779 1.19278 9.90983 0.0777903C10.3385 0.0259301 10.7671 0 11.1706 0C12.3557 0 13.5156 0.181511 14.625 0.544532C15.0789 0.700113 15.5076 0.881623 15.9362 1.08906Z" fill="url(#paint1_linear_74_1087)"/>
<path d="M3.45465 19.8106C3.12686 19.4735 2.79906 19.1364 2.49648 18.7734C0.101051 15.7395 -0.630185 11.6685 0.554922 7.93457C0.655782 10.2164 1.31137 12.4205 2.47126 14.3652C2.62256 14.6245 2.77385 14.8579 2.95035 15.0913C2.92514 15.4284 2.89992 15.7655 2.89992 16.1026C2.89992 17.3731 3.10164 18.6178 3.45465 19.8106Z" fill="#DC00FF"/>
<path d="M8.69954 22.7146C6.73276 22.2478 4.91728 21.2625 3.48002 19.8104C3.1018 18.6176 2.92529 17.373 2.92529 16.1024C2.92529 15.7653 2.95051 15.4282 2.97572 15.0911C3.02615 14.3651 3.15223 13.665 3.32873 12.9648C3.37916 16.9321 5.39637 20.6142 8.69954 22.7146Z" fill="url(#paint2_linear_74_1087)"/>
<path d="M6.70774 4.4082L6.65731 4.51192C6.25387 5.62692 6.02694 6.79377 6.00172 7.98656C5.82522 8.194 5.6235 8.37551 5.44699 8.60888L5.42177 8.66074C4.43839 9.93132 3.73237 11.4093 3.30371 12.9911V12.7836C3.30371 12.3947 3.32893 12.0057 3.35414 11.6427C3.60629 8.89411 4.7914 6.32703 6.70774 4.4082Z" fill="url(#paint3_linear_74_1087)"/>
<path d="M21.0547 7.49371C21.0547 7.93452 21.0042 8.37533 20.9286 8.81614C18.8862 6.61208 16.0621 5.34151 13.1119 5.34151C12.5068 5.13407 11.8764 5.05628 11.246 5.05628C10.4896 5.05628 9.75834 5.18593 9.05232 5.44523C8.57323 5.62674 8.09414 5.88604 7.66549 6.1972C7.06033 6.63801 6.53081 7.18254 6.10216 7.80487C6.07694 7.85673 6.02651 7.90859 6.0013 7.96045C5.90044 7.07882 6.25345 5.57488 6.65689 4.48581L6.70732 4.38209C7.71592 3.37082 8.90103 2.54106 10.187 1.97059C11.6243 1.34827 13.1624 1.03711 14.7005 1.03711C15.1039 1.03711 15.5326 1.06304 15.936 1.1149C17.9784 2.10024 19.6678 3.68198 20.8025 5.6786V5.70453C20.979 6.30092 21.0547 6.89731 21.0547 7.49371Z" fill="url(#paint4_linear_74_1087)"/>
<path d="M22.3663 11.487C22.3663 14.3134 21.3577 17.036 19.517 19.1364C14.247 21.9887 7.76677 20.77 3.80801 16.1803C3.50543 15.1172 3.32893 14.0281 3.30371 12.9391C3.70715 11.3573 4.43839 9.87933 5.42177 8.60875L5.44699 8.55689C5.57307 8.40131 5.82522 8.14201 6.00172 7.93457L5.97651 7.98643C5.95129 8.03829 5.90086 8.11608 5.87565 8.16794C4.11059 11.2277 5.09398 15.1691 8.04414 16.9842C8.85102 17.4768 9.78398 17.788 10.7169 17.8658C12.6837 19.4994 15.4069 19.7846 17.6511 18.6178C20.6769 17.0101 21.9628 13.2502 20.576 10.0608C20.7273 9.64596 20.8534 9.23108 20.929 8.79026C21.4585 9.36073 21.9376 10.009 22.3411 10.6832C22.3663 10.9684 22.3663 11.2277 22.3663 11.487Z" fill="url(#paint5_linear_74_1087)"/>
<path d="M19.5166 19.1621C16.7934 22.2996 12.6581 23.648 8.67412 22.7145C6.32912 21.2106 4.6145 18.9028 3.80762 16.2061C7.76638 20.7957 14.2466 22.0144 19.5166 19.1621Z" fill="url(#paint6_linear_74_1087)"/>
<path d="M20.5755 10.0867C19.9199 11.7722 18.6592 13.1206 17.0454 13.8466C18.1044 11.0721 17.1715 7.93453 14.8013 6.22314C17.2976 6.22314 19.5417 7.75302 20.5755 10.0867Z" fill="url(#paint7_linear_74_1087)"/>
<path d="M21.1306 12.7837C21.1306 15.2471 19.7942 17.5289 17.6509 18.6439C15.4068 19.8367 12.6836 19.5255 10.7168 17.8919C10.8933 17.9179 11.0698 17.9179 11.2463 17.9179C11.4985 17.9179 11.7254 17.8919 11.9775 17.866C14.2721 17.5808 16.2137 16.025 17.071 13.8209C18.6848 13.0949 19.9455 11.7465 20.6011 10.061C20.9541 10.9167 21.1306 11.8502 21.1306 12.7837Z" fill="url(#paint8_linear_74_1087)"/>
<path d="M20.929 8.81628C20.8533 9.25709 20.7272 9.67197 20.576 10.0869C19.5421 7.75315 17.298 6.2492 14.8269 6.22327C14.2974 5.83432 13.7427 5.54909 13.1123 5.36758C16.0625 5.34165 18.8866 6.61222 20.929 8.81628Z" fill="#D400FF"/>
<path d="M20.929 8.8163C21.1307 7.7791 21.0803 6.71597 20.8281 5.70469V5.65283L20.8533 5.70469C21.7107 7.23457 22.215 8.94595 22.341 10.7092C21.9376 10.035 21.4585 9.38677 20.929 8.8163Z" fill="#8C00EA"/>
<path d="M112.244 13.2893C112.571 13.3557 112.834 13.5115 113.033 13.7568C113.238 14.002 113.34 14.2882 113.34 14.6152C113.34 15.0648 113.189 15.4225 112.888 15.6882C112.586 15.9488 112.149 16.0791 111.577 16.0791H109.423V10.668H111.539C112.08 10.668 112.494 10.7907 112.78 11.0359C113.072 11.2761 113.217 11.6082 113.217 12.0323C113.217 12.3746 113.128 12.6531 112.949 12.8677C112.77 13.0772 112.535 13.2177 112.244 13.2893ZM110.297 12.998H111.378C111.684 12.998 111.917 12.9265 112.075 12.7834C112.239 12.6403 112.321 12.4411 112.321 12.1856C112.321 11.9352 112.239 11.7385 112.075 11.5954C111.917 11.4524 111.674 11.3808 111.347 11.3808H110.297V12.998ZM111.401 15.3586C111.733 15.3586 111.988 15.2846 112.167 15.1364C112.351 14.9831 112.443 14.771 112.443 14.5002C112.443 14.2294 112.351 14.0174 112.167 13.8641C111.983 13.7108 111.725 13.6342 111.393 13.6342H110.297V15.3586H111.401ZM115.035 11.3732V13.0133H117.028V13.6878H115.035V15.3663H117.258V16.0791H114.161V10.668H117.258V11.3732H115.035ZM121.585 10.668V11.3732H120.076V16.0791H119.194V11.3732H117.692V10.668H121.585ZM125.464 14.9064H123.18L122.766 16.0791H121.831L123.824 10.7523H124.828L126.813 16.0791H125.878L125.464 14.9064ZM125.219 14.232L124.322 11.7027L123.425 14.232H125.219Z" fill="#7239EA"/>
</g>
<defs>
<linearGradient id="paint0_linear_74_1087" x1="0.786423" y1="13.9343" x2="7.50891" y2="-0.405693" gradientUnits="userSpaceOnUse">
<stop stop-color="#CA00FF"/>
<stop offset="1" stop-color="#AB00FF"/>
</linearGradient>
<linearGradient id="paint1_linear_74_1087" x1="6.70248" y1="2.20403" x2="15.9463" y2="2.20403" gradientUnits="userSpaceOnUse">
<stop stop-color="#C730FF"/>
<stop offset="1" stop-color="#AD55FF"/>
</linearGradient>
<linearGradient id="paint2_linear_74_1087" x1="6.28827" y1="22.0691" x2="3.86624" y2="13.5339" gradientUnits="userSpaceOnUse">
<stop stop-color="#E200FF"/>
<stop offset="1" stop-color="#EF02FE"/>
</linearGradient>
<linearGradient id="paint3_linear_74_1087" x1="6.47652" y1="4.28402" x2="3.5586" y2="11.8669" gradientUnits="userSpaceOnUse">
<stop stop-color="#AD01FF"/>
<stop offset="1" stop-color="#9800FF"/>
</linearGradient>
<linearGradient id="paint4_linear_74_1087" x1="5.98022" y1="4.92657" x2="21.0572" y2="4.92657" gradientUnits="userSpaceOnUse">
<stop stop-color="#C300FF"/>
<stop offset="1" stop-color="#A802EA"/>
</linearGradient>
<linearGradient id="paint5_linear_74_1087" x1="4.40314" y1="10.8127" x2="19.8114" y2="15.6806" gradientUnits="userSpaceOnUse">
<stop stop-color="#C800FF"/>
<stop offset="0.02" stop-color="#C400FF"/>
<stop offset="0.13" stop-color="#B300FD"/>
<stop offset="0.27" stop-color="#A800FD"/>
<stop offset="0.46" stop-color="#A100FC"/>
<stop offset="1" stop-color="#9F00FC"/>
</linearGradient>
<linearGradient id="paint6_linear_74_1087" x1="3.80762" y1="19.6048" x2="19.5292" y2="19.6048" gradientUnits="userSpaceOnUse">
<stop stop-color="#AA00FF"/>
<stop offset="1" stop-color="#C402FF"/>
</linearGradient>
<linearGradient id="paint7_linear_74_1087" x1="14.8088" y1="10.0206" x2="20.573" y2="10.0206" gradientUnits="userSpaceOnUse">
<stop stop-color="#CA5CFF"/>
<stop offset="1" stop-color="#B947FF"/>
</linearGradient>
<linearGradient id="paint8_linear_74_1087" x1="11.5804" y1="19.3745" x2="22.8244" y2="12.3227" gradientUnits="userSpaceOnUse">
<stop stop-color="#BF01FF"/>
<stop offset="1" stop-color="#A502FF"/>
</linearGradient>
<clipPath id="clip0_74_1087">
<rect width="127" height="23" fill="white"/>
</clipPath>
</defs>
</svg>
