<svg width="35" height="35" viewBox="0 0 35 35" fill="none" xmlns="http://www.w3.org/2000/svg">
<path d="M26.2498 31.4998C24.2082 29.7498 13.2707 29.604 9.18734 30.9165C8.31234 31.2082 7.43734 30.9165 6.854 30.3332L2.9165 26.2498C6.12484 23.0415 15.7498 22.0207 23.0415 23.0415C23.6248 26.6873 24.7915 29.8957 26.2498 31.4998ZM27.4165 4.08317C26.8332 3.49984 25.9582 3.20819 25.0832 3.49985C20.9998 4.81235 10.0623 4.6665 8.02067 2.9165C9.9165 4.81234 10.7915 8.02067 11.229 11.229C13.1248 11.5207 15.0207 11.6665 17.0623 11.6665C23.0415 11.6665 28.8748 10.4998 31.354 8.02067L27.4165 4.08317Z" fill="#0095E8"/>
<path opacity="0.3" d="M30.9167 25.229C31.2083 26.104 30.9167 26.979 30.3333 27.5623L26.25 31.4998C23.0417 28.2915 22.0208 18.6665 23.0417 11.3748C26.6875 10.7915 29.75 9.77069 31.3542 8.16652C29.75 10.2082 29.4583 21.1457 30.9167 25.229ZM11.6667 17.0623C11.6667 13.1248 11.2292 6.12484 8.02082 2.9165L4.08332 6.99984C3.49999 7.58317 3.20832 8.45819 3.49999 9.33319C3.93749 10.7915 4.375 13.4165 4.52083 17.0623C4.52083 22.604 3.5 25.6665 3.0625 26.2498C4.66667 24.6457 7.72915 23.6248 11.375 23.0415C11.6667 20.7082 11.6667 18.5207 11.6667 17.0623Z" fill="#0095E8"/>
</svg>
