<svg width="175" height="59" viewBox="0 0 175 59" fill="none" xmlns="http://www.w3.org/2000/svg">
<path d="M77.1125 36.425H85.5125V41.375H70.7V15.05H77.1125V36.425ZM101.021 41.6375C98.5461 41.6375 96.2711 41.0625 94.1961 39.9125C92.1461 38.7625 90.5086 37.1625 89.2836 35.1125C88.0836 33.0375 87.4836 30.7125 87.4836 28.1375C87.4836 25.5625 88.0836 23.25 89.2836 21.2C90.5086 19.15 92.1461 17.55 94.1961 16.4C96.2711 15.25 98.5461 14.675 101.021 14.675C103.496 14.675 105.759 15.25 107.809 16.4C109.884 17.55 111.509 19.15 112.684 21.2C113.884 23.25 114.484 25.5625 114.484 28.1375C114.484 30.7125 113.884 33.0375 112.684 35.1125C111.484 37.1625 109.859 38.7625 107.809 39.9125C105.759 41.0625 103.496 41.6375 101.021 41.6375ZM101.021 35.7875C103.121 35.7875 104.796 35.0875 106.046 33.6875C107.321 32.2875 107.959 30.4375 107.959 28.1375C107.959 25.8125 107.321 23.9625 106.046 22.5875C104.796 21.1875 103.121 20.4875 101.021 20.4875C98.8961 20.4875 97.1961 21.175 95.9211 22.55C94.6711 23.925 94.0461 25.7875 94.0461 28.1375C94.0461 30.4625 94.6711 32.325 95.9211 33.725C97.1961 35.1 98.8961 35.7875 101.021 35.7875ZM135.526 23.375C135.051 22.5 134.364 21.8375 133.464 21.3875C132.589 20.9125 131.551 20.675 130.351 20.675C128.276 20.675 126.614 21.3625 125.364 22.7375C124.114 24.0875 123.489 25.9 123.489 28.175C123.489 30.6 124.139 32.5 125.439 33.875C126.764 35.225 128.576 35.9 130.876 35.9C132.451 35.9 133.776 35.5 134.851 34.7C135.951 33.9 136.751 32.75 137.251 31.25H129.114V26.525H143.064V32.4875C142.589 34.0875 141.776 35.575 140.626 36.95C139.501 38.325 138.064 39.4375 136.314 40.2875C134.564 41.1375 132.589 41.5625 130.389 41.5625C127.789 41.5625 125.464 41 123.414 39.875C121.389 38.725 119.801 37.1375 118.651 35.1125C117.526 33.0875 116.964 30.775 116.964 28.175C116.964 25.575 117.526 23.2625 118.651 21.2375C119.801 19.1875 121.389 17.6 123.414 16.475C125.439 15.325 127.751 14.75 130.351 14.75C133.501 14.75 136.151 15.5125 138.301 17.0375C140.476 18.5625 141.914 20.675 142.614 23.375H135.526ZM159.066 41.6375C156.591 41.6375 154.316 41.0625 152.241 39.9125C150.191 38.7625 148.553 37.1625 147.328 35.1125C146.128 33.0375 145.528 30.7125 145.528 28.1375C145.528 25.5625 146.128 23.25 147.328 21.2C148.553 19.15 150.191 17.55 152.241 16.4C154.316 15.25 156.591 14.675 159.066 14.675C161.541 14.675 163.803 15.25 165.853 16.4C167.928 17.55 169.553 19.15 170.728 21.2C171.928 23.25 172.528 25.5625 172.528 28.1375C172.528 30.7125 171.928 33.0375 170.728 35.1125C169.528 37.1625 167.903 38.7625 165.853 39.9125C163.803 41.0625 161.541 41.6375 159.066 41.6375ZM159.066 35.7875C161.166 35.7875 162.841 35.0875 164.091 33.6875C165.366 32.2875 166.003 30.4375 166.003 28.1375C166.003 25.8125 165.366 23.9625 164.091 22.5875C162.841 21.1875 161.166 20.4875 159.066 20.4875C156.941 20.4875 155.241 21.175 153.966 22.55C152.716 23.925 152.091 25.7875 152.091 28.1375C152.091 30.4625 152.716 32.325 153.966 33.725C155.241 35.1 156.941 35.7875 159.066 35.7875Z" fill="#19204A"/>
<path opacity="0.3" d="M53.375 17.625H16.625L27.125 7.125H45.5C47.075 7.125 48.65 8.17497 49.4375 9.48747L53.375 17.625ZM4.8125 46.7625C5.6 48.3375 7.175 49.125 8.75 49.125H27.125L37.625 38.625H0.875L4.8125 46.7625ZM45.7625 50.4375C47.3375 49.65 48.125 48.075 48.125 46.5V28.125L37.625 17.625V54.375L45.7625 50.4375ZM8.4875 5.8125C6.9125 6.6 6.125 8.175 6.125 9.75V28.125L16.625 38.625V1.875L8.4875 5.8125Z" fill="#19204A"/>
<path d="M53.375 17.625L48.125 28.125L37.625 17.625H53.375ZM16.625 38.625L6.125 28.125L0.875 38.625H16.625ZM37.625 38.625L27.125 49.125L37.625 54.375V38.625ZM16.625 17.625L27.125 7.125L16.625 1.875V17.625Z" fill="#19204A"/>
</svg>
