<svg width="52" height="84" viewBox="0 0 52 84" fill="none" xmlns="http://www.w3.org/2000/svg">
<g opacity="0.5" clip-path="url(#clip0_1_120)">
<path d="M26.5909 26.567H51.81V42.5531L26.5909 26.567Z" fill="#EAC584"/>
<path fill-rule="evenodd" clip-rule="evenodd" d="M51.9157 19.0956V5.84345L39.4432 10.4557C39.6734 10.9898 39.7885 11.5655 39.7809 12.1461C39.7014 13.313 39.1765 14.4064 38.3125 15.2051C37.4486 16.0038 36.3101 16.4482 35.1274 16.4482C33.9447 16.4482 32.8061 16.0038 31.9422 15.2051C31.0783 14.4064 30.5536 13.313 30.4741 12.1461C30.4757 11.6503 30.5539 11.1576 30.7062 10.6852C30.9143 10.0577 31.2582 9.48241 31.7137 8.99949C32.1693 8.51656 32.7255 8.13749 33.3442 7.88863L25.9367 -0.104324L25.6736 0.189236V19.0956H51.9157Z" fill="#EAC584"/>
<path fill-rule="evenodd" clip-rule="evenodd" d="M25.6736 23.833H51.5357C51.7921 23.833 52 23.6275 52 23.3739V22.1634C52 21.9099 51.7921 21.7043 51.5357 21.7043H25.6736V23.833Z" fill="#EAC584"/>
<path fill-rule="evenodd" clip-rule="evenodd" d="M25.6736 83.9456L25.7257 83.9791L51.6412 67.5965V56.5983L25.6736 39.8904V54.7876L36.7841 61.753L26.1266 68.1391L25.6736 67.8559V83.9456Z" fill="#EAC584"/>
<path fill-rule="evenodd" clip-rule="evenodd" d="M25.6737 19.0956H0.126648V5.84345L12.2403 10.6643C12.088 11.1367 12.0098 11.6294 12.0082 12.1252C12.0135 12.9471 12.2408 13.7526 12.6666 14.4584C13.0924 15.1642 13.7012 15.7447 14.43 16.1398C15.1588 16.5349 15.9812 16.7301 16.8119 16.7055C17.6426 16.6808 18.4514 16.4372 19.1549 15.9997C19.8585 15.5621 20.4309 14.9465 20.8132 14.2168C21.1955 13.487 21.3737 12.6695 21.3292 11.8488C21.2848 11.0281 21.0194 10.234 20.5605 9.54874C20.1016 8.86351 19.4658 8.31205 18.719 7.9513L25.6737 0.189233V19.0956ZM25.8432 2.58535e-06L25.9367 -0.104324L26.0334 2.58535e-06H25.8432Z" fill="#EAC584" fill-opacity="0.64"/>
<path fill-rule="evenodd" clip-rule="evenodd" d="M25.6736 21.7043H0.527579C0.271161 21.7043 0.0632935 21.9099 0.0632935 22.1634V23.3739C0.0632935 23.6275 0.271161 23.833 0.527579 23.833H25.6736V21.7043Z" fill="#EAC584" fill-opacity="0.64"/>
<path fill-rule="evenodd" clip-rule="evenodd" d="M25.6736 39.8905L5.12825 26.6713L0 26.567V38.6922L25.6736 54.7877V39.8905ZM25.6736 67.8559L0.126623 51.8818V67.4713L25.6736 83.9456V67.8559Z" fill="#EAC584" fill-opacity="0.64"/>
</g>
<defs>
<clipPath id="clip0_1_120">
<rect width="52" height="84" fill="white"/>
</clipPath>
</defs>
</svg>
