<svg width="18" height="18" viewBox="0 0 18 18" fill="none" xmlns="http://www.w3.org/2000/svg">
<path fill-rule="evenodd" clip-rule="evenodd" d="M2.25 0C1.65326 0 1.08097 0.237053 0.65901 0.65901C0.237053 1.08097 0 1.65326 0 2.25L0 15.75C0 16.3467 0.237053 16.919 0.65901 17.341C1.08097 17.7629 1.65326 18 2.25 18H15.75C16.3467 18 16.919 17.7629 17.341 17.341C17.7629 16.919 18 16.3467 18 15.75V2.25C18 1.65326 17.7629 1.08097 17.341 0.65901C16.919 0.237053 16.3467 0 15.75 0L2.25 0ZM6.02325 5.22675C5.91763 5.12113 5.77437 5.06179 5.625 5.06179C5.47563 5.06179 5.33237 5.12113 5.22675 5.22675C5.12113 5.33237 5.06179 5.47563 5.06179 5.625C5.06179 5.77437 5.12113 5.91763 5.22675 6.02325L8.20463 9L5.22675 11.9767C5.17445 12.029 5.13297 12.0911 5.10466 12.1595C5.07636 12.2278 5.06179 12.301 5.06179 12.375C5.06179 12.449 5.07636 12.5222 5.10466 12.5905C5.13297 12.6589 5.17445 12.721 5.22675 12.7733C5.33237 12.8789 5.47563 12.9382 5.625 12.9382C5.69896 12.9382 5.7722 12.9236 5.84053 12.8953C5.90886 12.867 5.97095 12.8255 6.02325 12.7733L9 9.79537L11.9767 12.7733C12.029 12.8255 12.0911 12.867 12.1595 12.8953C12.2278 12.9236 12.301 12.9382 12.375 12.9382C12.449 12.9382 12.5222 12.9236 12.5905 12.8953C12.6589 12.867 12.721 12.8255 12.7733 12.7733C12.8255 12.721 12.867 12.6589 12.8953 12.5905C12.9236 12.5222 12.9382 12.449 12.9382 12.375C12.9382 12.301 12.9236 12.2278 12.8953 12.1595C12.867 12.0911 12.8255 12.029 12.7733 11.9767L9.79537 9L12.7733 6.02325C12.8255 5.97095 12.867 5.90886 12.8953 5.84053C12.9236 5.7722 12.9382 5.69896 12.9382 5.625C12.9382 5.55104 12.9236 5.4778 12.8953 5.40947C12.867 5.34114 12.8255 5.27905 12.7733 5.22675C12.721 5.17445 12.6589 5.13297 12.5905 5.10466C12.5222 5.07636 12.449 5.06179 12.375 5.06179C12.301 5.06179 12.2278 5.07636 12.1595 5.10466C12.0911 5.13297 12.029 5.17445 11.9767 5.22675L9 8.20463L6.02325 5.22675Z" fill="#7E8299"/>
</svg>
