<svg width="18" height="18" viewBox="0 0 18 18" fill="none" xmlns="http://www.w3.org/2000/svg">
<path fill-rule="evenodd" clip-rule="evenodd" d="M2.25 0C1.65326 0 1.08097 0.237053 0.65901 0.65901C0.237053 1.08097 0 1.65326 0 2.25L0 15.75C0 16.3467 0.237053 16.919 0.65901 17.341C1.08097 17.7629 1.65326 18 2.25 18H15.75C16.3467 18 16.919 17.7629 17.341 17.341C17.7629 16.919 18 16.3467 18 15.75V2.25C18 1.65326 17.7629 1.08097 17.341 0.65901C16.919 0.237053 16.3467 0 15.75 0L2.25 0ZM13.5337 5.59125C13.4534 5.51117 13.3577 5.44812 13.2524 5.40587C13.1471 5.36361 13.0344 5.34303 12.921 5.34534C12.8076 5.34765 12.6958 5.37281 12.5923 5.41931C12.4888 5.46582 12.3958 5.53272 12.3187 5.616L8.41163 10.5941L6.057 8.23837C5.89705 8.08933 5.6855 8.0082 5.46691 8.01205C5.24832 8.01591 5.03977 8.10446 4.88518 8.25905C4.73059 8.41364 4.64204 8.6222 4.63818 8.84079C4.63432 9.05938 4.71546 9.27093 4.8645 9.43088L7.84125 12.4087C7.92144 12.4888 8.01693 12.5519 8.12203 12.5942C8.22713 12.6366 8.33968 12.6573 8.45296 12.6552C8.56625 12.6531 8.67795 12.6282 8.78141 12.582C8.88486 12.5358 8.97795 12.4692 9.05512 12.3863L13.5461 6.7725C13.6992 6.61331 13.7838 6.40043 13.7817 6.17958C13.7796 5.95872 13.691 5.74749 13.5349 5.59125H13.5337Z" fill="#7E8299"/>
</svg>
