<svg width="20" height="19" viewBox="0 0 20 19" fill="none" xmlns="http://www.w3.org/2000/svg">
<path fill-rule="evenodd" clip-rule="evenodd" d="M2.82971 5.51697C2.88486 5.46167 2.95039 5.4178 3.02252 5.38787C3.09465 5.35794 3.17199 5.34253 3.25008 5.34253C3.32818 5.34253 3.40552 5.35794 3.47765 5.38787C3.54978 5.4178 3.61531 5.46167 3.67046 5.51697L10.3751 12.2228L17.0797 5.51697C17.1349 5.46176 17.2005 5.41797 17.2726 5.38809C17.3447 5.35822 17.422 5.34284 17.5001 5.34284C17.5782 5.34284 17.6555 5.35822 17.7276 5.38809C17.7997 5.41797 17.8653 5.46176 17.9205 5.51697C17.9757 5.57217 18.0195 5.63771 18.0493 5.70983C18.0792 5.78196 18.0946 5.85927 18.0946 5.93734C18.0946 6.01541 18.0792 6.09272 18.0493 6.16485C18.0195 6.23697 17.9757 6.30251 17.9205 6.35772L10.7955 13.4827C10.7403 13.538 10.6748 13.5819 10.6026 13.6118C10.5305 13.6417 10.4532 13.6572 10.3751 13.6572C10.297 13.6572 10.2197 13.6417 10.1475 13.6118C10.0754 13.5819 10.0099 13.538 9.95471 13.4827L2.82971 6.35772C2.77442 6.30256 2.73055 6.23704 2.70061 6.16491C2.67068 6.09277 2.65527 6.01544 2.65527 5.93734C2.65527 5.85924 2.67068 5.78191 2.70061 5.70978C2.73055 5.63764 2.77442 5.57212 2.82971 5.51697Z" fill="#A1A5B7"/>
</svg>
