<svg width="30" height="31" viewBox="0 0 30 31" fill="none" xmlns="http://www.w3.org/2000/svg">
<path opacity="0.3" d="M25.8569 16.5762C25.1182 16.5762 24.6257 16.0838 24.6257 15.3451C24.6257 14.6063 25.1182 14.1139 25.8569 14.1139H26.965C26.3494 8.32726 21.794 3.64873 16.0074 3.15625V4.26432C16.0074 5.00304 15.5149 5.49552 14.7762 5.49552C14.0375 5.49552 13.545 5.00304 13.545 4.26432V3.15625C7.7584 3.77185 3.07988 8.32726 2.5874 14.1139H3.69546C4.43418 14.1139 4.92666 14.6063 4.92666 15.3451C4.92666 16.0838 4.43418 16.5762 3.69546 16.5762H2.5874C3.203 22.3628 7.7584 27.0414 13.545 27.5339V26.4258C13.545 25.6871 14.0375 25.1946 14.7762 25.1946C15.5149 25.1946 16.0074 25.6871 16.0074 26.4258V27.5339C21.794 26.9183 26.4725 22.3628 26.965 16.5762H25.8569Z" fill="white"/>
<path d="M20.9321 14.1137H16.8691C16.6229 13.7443 16.3767 13.4981 16.0073 13.2519V7.95775C16.0073 7.21904 15.5148 6.72656 14.7761 6.72656C14.0374 6.72656 13.5449 7.21904 13.5449 7.95775V13.2519C13.1756 13.4981 12.9293 13.7443 12.6831 14.1137H12.3137C11.575 14.1137 11.0825 14.6062 11.0825 15.3449C11.0825 16.0836 11.575 16.5761 12.3137 16.5761H12.6831C12.9293 16.9454 13.1756 17.1917 13.5449 17.4379V17.8073C13.5449 18.546 14.0374 19.0385 14.7761 19.0385C15.5148 19.0385 16.0073 18.546 16.0073 17.8073V17.4379C16.3767 17.1917 16.6229 16.9454 16.8691 16.5761H20.9321C21.6708 16.5761 22.1633 16.0836 22.1633 15.3449C22.1633 14.6062 21.6708 14.1137 20.9321 14.1137Z" fill="white"/>
</svg>
