<svg aria-hidden="true" focusable="false" data-prefix="fad" data-icon="compress-wide" role="img" xmlns="http://www.w3.org/2000/svg" viewBox="0 0 512 512" class="svg-inline--fa fa-compress-wide fa-w-16 fa-2x">
<g class="fa-group">
<path opacity="0.3" fill="currentColor"  d="M500 160h-84V76a12 12 0 0 0-12-12h-40a12 12 0 0 0-12 12v124a23.94 23.94 0 0 0 24 24h124a12 12 0 0 0 12-12v-40a12 12 0 0 0-12-12zM136 288H12a12 12 0 0 0-12 12v40a12 12 0 0 0 12 12h84v84a12 12 0 0 0 12 12h40a12 12 0 0 0 12-12V312a23.94 23.94 0 0 0-24-24z" class="fa-secondary"></path>
<path fill="currentColor" d="M500 288H376a23.94 23.94 0 0 0-24 24v124a12 12 0 0 0 12 12h40a12 12 0 0 0 12-12v-84h84a12 12 0 0 0 12-12v-40a12 12 0 0 0-12-12zM148 64h-40a12 12 0 0 0-12 12v84H12a12 12 0 0 0-12 12v40a12 12 0 0 0 12 12h124a23.94 23.94 0 0 0 24-24V76a12 12 0 0 0-12-12z" class="fa-primary"></path></g></svg>