<svg width="12" height="16" viewBox="0 0 12 16" fill="none" xmlns="http://www.w3.org/2000/svg">
<path d="M4.4 0C4.1784 0 4 0.181092 4 0.406011V1.62406H0.800001C0.356799 1.62406 0 1.98621 0 2.43609C0 2.88595 0.356799 3.24811 0.800001 3.24811H11.2C11.6432 3.24811 12 2.88595 12 2.43609C12 1.98621 11.6432 1.62406 11.2 1.62406H8V0.406011C8 0.181092 7.82161 0 7.6 0H4.4ZM4.8 0.812023H7.2V1.62406H4.8V0.812023ZM0.800001 4.06015C0.356799 4.06015 -0.0603762 4.42848 0.0125032 4.87218L1.6 14.6165C1.67232 15.0603 1.9568 15.4286 2.4 15.4286H9.6C10.0432 15.4286 10.3271 15.0602 10.4 14.6165L11.9875 4.87218C12.0598 4.4284 11.6432 4.06015 11.2 4.06015H0.800001Z" fill="#5E6278"/>
</svg>
