<svg width="34" height="34" viewBox="0 0 34 34" fill="white" xmlns="http://www.w3.org/2000/svg">
<path d="M17.2142 26.5494C16.8876 26.3967 16.7771 26.137 16.7921 25.7805C16.8122 25.2 16.7972 24.6246 16.8022 24.0441C16.8022 23.9219 16.772 23.8557 16.6565 23.7997C16.0183 23.484 15.6716 22.9595 15.6716 22.2364C15.6716 21.5133 16.0233 20.9939 16.6565 20.6731C16.762 20.6222 16.8022 20.5713 16.8022 20.4491C16.7972 19.8176 16.7972 19.1913 16.8022 18.5599C16.8022 18.4529 16.7821 18.3918 16.6766 18.3409C16.2796 18.1678 15.9932 17.8724 15.8173 17.4752C15.7771 17.3785 15.7269 17.3428 15.6214 17.3479C15.2646 17.353 14.9078 17.353 14.541 17.353C14.541 16.966 14.541 16.5994 14.541 16.2022C14.8576 16.2022 15.1741 16.192 15.4957 16.2073C15.6766 16.2124 15.7821 16.1818 15.8676 15.9883C16.0233 15.6268 16.3098 15.3722 16.6665 15.2143C16.767 15.1685 16.8072 15.1227 16.8072 15.0055C16.8022 14.3639 16.8072 13.7223 16.7972 13.0756C16.7972 13.0145 16.7419 12.9229 16.6866 12.8974C16.0384 12.5715 15.6766 12.047 15.6766 11.3087C15.6766 10.5754 16.0334 10.056 16.6816 9.74027C16.7921 9.68935 16.8022 9.62315 16.8022 9.52131C16.8022 8.8746 16.7972 8.22281 16.8022 7.57611C16.8022 7.28076 17.0132 7.04652 17.2896 7.00579C17.566 6.96505 17.8323 7.14327 17.9077 7.41825C17.9278 7.49463 17.9328 7.5812 17.9328 7.66267C17.9328 8.27882 17.9378 8.89497 17.9328 9.51622C17.9328 9.64352 17.973 9.70462 18.0885 9.75555C18.4554 9.92359 18.7367 10.1986 18.8975 10.5703C18.9629 10.718 19.0382 10.7485 19.1789 10.7434C19.5106 10.7332 19.8422 10.7383 20.1889 10.7383C20.1889 11.1202 20.1889 11.492 20.1889 11.8892C19.8372 11.8892 19.4854 11.8942 19.1387 11.8841C19.0232 11.8841 18.9629 11.9095 18.9126 12.0266C18.7418 12.4187 18.4554 12.709 18.0684 12.8821C17.9629 12.928 17.9328 12.9891 17.9378 13.096C17.9428 13.7325 17.9428 14.369 17.9378 15.0055C17.9378 15.1074 17.9679 15.1583 18.0634 15.2041C18.7217 15.5199 19.0734 16.0494 19.0684 16.7929C19.0634 17.516 18.7116 18.0354 18.0684 18.346C17.9629 18.3969 17.9378 18.4529 17.9378 18.5599C17.9428 19.1964 17.9428 19.8329 17.9378 20.4694C17.9378 20.5713 17.9629 20.6273 18.0634 20.668C18.4604 20.8411 18.7518 21.1314 18.9227 21.5337C18.9679 21.6406 19.0282 21.6661 19.1337 21.6661C19.4854 21.661 19.8322 21.6661 20.199 21.6661C20.199 22.0531 20.199 22.4248 20.199 22.8169C19.8422 22.8169 19.4905 22.822 19.1438 22.8169C19.0382 22.8169 18.9729 22.8322 18.9277 22.9442C18.7568 23.3465 18.4704 23.6418 18.0735 23.815C17.9629 23.8608 17.9479 23.927 17.9479 24.0339C17.9529 24.6195 17.9328 25.2051 17.9529 25.7907C17.9679 26.1523 17.8574 26.4069 17.5308 26.5596C17.4152 26.5494 17.3147 26.5494 17.2142 26.5494ZM17.9328 16.7776C17.9378 16.4619 17.6866 16.2022 17.38 16.1971C17.0685 16.192 16.8122 16.4415 16.8022 16.7522C16.7921 17.073 17.0484 17.3428 17.365 17.3428C17.6715 17.3428 17.9278 17.0882 17.9328 16.7776ZM17.3549 22.8067C17.6665 22.8118 17.9227 22.5623 17.9278 22.2466C17.9328 21.9258 17.6765 21.6559 17.3599 21.661C17.0534 21.661 16.7972 21.9207 16.7972 22.2313C16.7972 22.5419 17.0484 22.8016 17.3549 22.8067ZM17.37 10.7332C17.0585 10.7332 16.8022 10.9828 16.8022 11.2985C16.7972 11.6193 17.0585 11.8841 17.375 11.8841C17.6815 11.879 17.9378 11.6193 17.9378 11.3087C17.9328 10.9929 17.6815 10.7383 17.37 10.7332Z" fill="#7239EA"/>
<path d="M10.8478 18.4937C10.1142 18.4937 9.38057 18.4937 8.64192 18.4937C8.22486 18.4937 8.00377 18.2696 8.00377 17.847C7.99874 17.129 7.99874 16.411 8.00377 15.6879C8.00377 15.2652 8.22486 15.0463 8.64694 15.0463C10.1092 15.0463 11.5714 15.0463 13.0336 15.0463C13.4507 15.0463 13.6718 15.2703 13.6718 15.693C13.6718 16.411 13.6718 17.129 13.6718 17.8521C13.6718 18.2645 13.4507 18.4937 13.0487 18.4937C12.3151 18.4937 11.5814 18.4937 10.8478 18.4937Z" fill="#7239EA" fill-opacity="0.3"/>
<path d="M23.9023 23.9576C23.1737 23.9576 22.4451 23.9576 21.7165 23.9576C21.2643 23.9576 21.0532 23.7437 21.0532 23.2803C21.0532 22.5725 21.0532 21.8698 21.0532 21.162C21.0532 20.7393 21.2743 20.5153 21.6914 20.5153C23.1586 20.5153 24.6309 20.5153 26.0981 20.5153C26.4951 20.5153 26.7212 20.7393 26.7262 21.1365C26.7312 21.8698 26.7312 22.5979 26.7262 23.3312C26.7262 23.7437 26.5001 23.9576 26.0881 23.9626C25.3595 23.9576 24.6309 23.9576 23.9023 23.9576Z" fill="#7239EA" fill-opacity="0.3"/>
<path d="M23.8822 9.58243C24.6108 9.58243 25.3394 9.58243 26.068 9.58243C26.5101 9.58243 26.7262 9.7963 26.7262 10.2495C26.7262 10.9573 26.7262 11.66 26.7262 12.3678C26.7262 12.8159 26.5051 13.0298 26.0629 13.0298C24.6108 13.0298 23.1636 13.0298 21.7115 13.0298C21.2693 13.0298 21.0532 12.8109 21.0532 12.3627C21.0532 11.6498 21.0532 10.9369 21.0532 10.224C21.0532 9.81157 21.2743 9.58243 21.6763 9.58243C22.4149 9.58243 23.1486 9.58243 23.8822 9.58243Z" fill="#7239EA" fill-opacity="0.3"/>
</svg>
