<svg width="30" height="30" viewBox="0 0 30 30" fill="none" xmlns="http://www.w3.org/2000/svg">
<path opacity="0.3" d="M30 15C30 6.71573 23.2843 0 15 0C6.71573 0 0 6.71573 0 15C0 23.2843 6.71573 30 15 30C23.2843 30 30 23.2843 30 15Z" fill="#F1416C"/>
<path d="M20.7081 14.4585C20.5135 14.2639 20.2776 14.1667 19.9997 14.1667H19.6665V12.1667C19.6665 10.8889 19.2083 9.79176 18.2916 8.87508C17.3749 7.95835 16.2779 7.5 15 7.5C13.722 7.5 12.6248 7.95835 11.7082 8.87505C10.7915 9.79176 10.3333 10.8889 10.3333 12.1667V14.1667H9.99997C9.72229 14.1667 9.48612 14.2639 9.29166 14.4585C9.0972 14.6528 9 14.889 9 15.1668V21.1669C9 21.4446 9.09723 21.6809 9.29166 21.8752C9.48612 22.0696 9.72229 22.1669 9.99997 22.1669H19.9999C20.2777 22.1669 20.5139 22.0696 20.7084 21.8752C20.9026 21.6809 21 21.4446 21 21.1669V15.1668C21.0001 14.889 20.9026 14.6529 20.7081 14.4585ZM17.6666 14.1667H12.3333V12.1667C12.3333 11.4306 12.5937 10.8021 13.1147 10.2813C13.6355 9.7605 14.2639 9.50015 15 9.50015C15.7364 9.50015 16.3646 9.76045 16.8855 10.2813C17.4061 10.802 17.6666 11.4306 17.6666 12.1667V14.1667Z" fill="#F1416C"/>
</svg>
