<svg width="33" height="33" viewBox="0 0 33 33" fill="none" xmlns="http://www.w3.org/2000/svg">
<path opacity="0.3" d="M27.1483 24.0552H5.85201C5.0534 24.0552 4.521 23.5228 4.521 22.7242V9.41403C4.521 8.61542 5.0534 8.08301 5.85201 8.08301H27.1483C27.9469 8.08301 28.4793 8.61542 28.4793 9.41403V22.7242C28.4793 23.5228 27.9469 24.0552 27.1483 24.0552ZM16.5002 10.745C14.2374 10.745 12.5071 13.1409 12.5071 16.0691C12.5071 18.9974 14.2374 21.3932 16.5002 21.3932C18.7629 21.3932 20.4932 18.9974 20.4932 16.0691C20.4932 13.1409 18.7629 10.745 16.5002 10.745Z" fill="white"/>
<path d="M24.4863 8.08301H27.1483C27.9469 8.08301 28.4793 8.61542 28.4793 9.41403V12.0761C26.2166 12.0761 24.4863 10.3457 24.4863 8.08301ZM8.51405 8.08301H5.85201C5.0534 8.08301 4.521 8.61542 4.521 9.41403V12.0761C6.78373 12.0761 8.51405 10.3457 8.51405 8.08301ZM28.4793 22.7242V20.0622C26.2166 20.0622 24.4863 21.7925 24.4863 24.0552H27.1483C27.9469 24.0552 28.4793 23.5228 28.4793 22.7242ZM4.521 20.0622V22.7242C4.521 23.5228 5.0534 24.0552 5.85201 24.0552H8.51405C8.51405 21.7925 6.78373 20.0622 4.521 20.0622Z" fill="white"/>
</svg>
