<svg width="14" height="14" viewBox="0 0 14 14" fill="none" xmlns="http://www.w3.org/2000/svg">
<circle opacity="0.3" cx="7" cy="7" r="7" fill="#7239EA"/>
<path d="M7.98002 7.00002C7.98002 6.45878 7.54126 6.02002 7.00002 6.02002C6.45878 6.02002 6.02002 6.45878 6.02002 7.00002C6.02002 7.54126 6.45878 7.98002 7.00002 7.98002C7.54126 7.98002 7.98002 7.54126 7.98002 7.00002Z" fill="#7239EA"/>
<path d="M11.2002 7.00002C11.2002 6.45878 10.7615 6.02002 10.2202 6.02002C9.67899 6.02002 9.24023 6.45878 9.24023 7.00002C9.24023 7.54126 9.67899 7.98002 10.2202 7.98002C10.7615 7.98002 11.2002 7.54126 11.2002 7.00002Z" fill="#7239EA"/>
<path d="M4.7598 7.00002C4.7598 6.45878 4.32104 6.02002 3.7798 6.02002C3.23857 6.02002 2.7998 6.45878 2.7998 7.00002C2.7998 7.54126 3.23857 7.98002 3.7798 7.98002C4.32104 7.98002 4.7598 7.54126 4.7598 7.00002Z" fill="#7239EA"/>
</svg>
