<svg width="15" height="16" viewBox="0 0 15 16" fill="none" xmlns="http://www.w3.org/2000/svg">
	<path fill="#F64E60" class="c1" opacity="0.3" d="M15 7.3044V8.15015C15 8.61148 14.7015 8.91901 14.3284 8.9959L13.3582 9.14974C13.209 9.76484 12.9851 10.3799 12.6119 10.9181L13.209 11.7639C13.4328 12.0714 13.4328 12.6096 13.1343 12.9172L12.5373 13.5323C12.2388 13.8399 11.791 13.8399 11.4179 13.6092L10.597 12.9942C10.0746 13.3017 9.47761 13.6093 8.8806 13.763L8.73134 14.7625C8.65671 15.147 8.28358 15.4545 7.91045 15.4545H7.08955C6.64179 15.4545 6.34328 15.147 6.26866 14.7625L6.1194 13.763C5.52239 13.6093 4.92537 13.3786 4.40298 12.9942L3.58209 13.6092C3.28358 13.8399 2.76119 13.8399 2.46269 13.5323L1.86567 12.9172C1.56716 12.6096 1.56716 12.1483 1.79104 11.7639L2.38806 10.9181C2.08955 10.3799 1.79104 9.76484 1.64179 9.14974L0.67164 8.9959C0.298506 8.91901 0 8.53459 0 8.15015V7.3044C0 6.84307 0.298506 6.53553 0.67164 6.45864L1.64179 6.30481C1.79104 5.6897 2.01492 5.07465 2.38806 4.53643L1.79104 3.69059C1.56716 3.38303 1.56716 2.84481 1.86567 2.53726L2.46269 1.92221C2.76119 1.61466 3.20895 1.61467 3.58209 1.84534L4.40298 2.46039C4.92537 2.15284 5.52239 1.84528 6.1194 1.69151L6.26866 0.692014C6.34328 0.307572 6.71642 0 7.08955 0H7.91045C8.35821 0 8.65671 0.307572 8.73134 0.692014L8.8806 1.69151C9.47761 1.84528 10.0746 2.07595 10.597 2.46039L11.4179 1.84534C11.7164 1.61467 12.2388 1.61466 12.5373 1.92221L13.1343 2.53726C13.4328 2.84481 13.4328 3.30614 13.209 3.69059L12.6119 4.53643C12.9104 5.07465 13.209 5.6897 13.3582 6.30481L14.3284 6.45864C14.7015 6.53553 15 6.91995 15 7.3044ZM7.53731 5.07461C6.1194 5.07461 4.92537 6.30483 4.92537 7.76571C4.92537 9.22659 6.1194 10.4568 7.53731 10.4568C8.95522 10.4568 10.1493 9.22659 10.1493 7.76571C10.1493 6.30483 8.95522 5.07461 7.53731 5.07461Z" />
	<path fill="#F64E60" class="c1" d="M11.3636 7.9547C11.3636 10.1183 9.66363 11.8183 7.49999 11.8183C5.33635 11.8183 3.63635 10.1183 3.63635 7.9547C3.63635 5.79106 5.33635 4.09106 7.49999 4.09106C9.66363 4.09106 11.3636 5.79106 11.3636 7.9547ZM7.49999 6.40925C6.64999 6.40925 5.95453 7.1047 5.95453 7.9547C5.95453 8.8047 6.64999 9.50016 7.49999 9.50016C8.34999 9.50016 9.04544 8.8047 9.04544 7.9547C9.04544 7.1047 8.34999 6.40925 7.49999 6.40925Z" />
</svg>
