<svg width="15" height="15" viewBox="0 0 15 15" fill="none" xmlns="http://www.w3.org/2000/svg">
	<path class="c1" opacity="0.3" d="M14.2306 9.39105H7.30756C6.84602 9.39105 6.53833 9.07054 6.53833 8.58977V6.18593C6.53833 5.70516 6.84602 5.38464 7.30756 5.38464H14.2306C14.6922 5.38464 14.9999 5.70516 14.9999 6.18593V8.58977C14.9999 9.07054 14.6922 9.39105 14.2306 9.39105ZM14.9999 14.1987V11.7949C14.9999 11.3141 14.6922 10.9936 14.2306 10.9936H7.30756C6.84602 10.9936 6.53833 11.3141 6.53833 11.7949V14.1987C6.53833 14.6795 6.84602 15 7.30756 15H14.2306C14.6922 15 14.9999 14.6795 14.9999 14.1987Z" fill="#0BB783" />
	<path class="c1" d="M14.2105 3.94737H0.789474C0.315789 3.94737 0 3.63158 0 3.15789V0.789474C0 0.315789 0.315789 0 0.789474 0H14.2105C14.6842 0 15 0.315789 15 0.789474V3.15789C15 3.63158 14.6842 3.94737 14.2105 3.94737ZM3.94737 5.52632H0.789474C0.315789 5.52632 0 5.84211 0 6.31579V14.2105C0 14.6842 0.315789 15 0.789474 15H3.94737C4.42105 15 4.73684 14.6842 4.73684 14.2105V6.31579C4.73684 5.84211 4.42105 5.52632 3.94737 5.52632Z" fill="#0BB783" />
</svg>
