<svg width="32" height="33" viewBox="0 0 32 33" fill="none" xmlns="http://www.w3.org/2000/svg">
<path opacity="0.3" d="M28.8767 16.4686C28.8767 23.6062 23.0369 29.4461 15.8993 29.4461C8.76172 29.4461 2.92188 23.6062 2.92188 16.4686C2.92188 9.33106 8.76172 3.49121 15.8993 3.49121C23.0369 3.49121 28.8767 9.33106 28.8767 16.4686ZM15.8993 9.97993C13.6931 9.97993 12.0061 11.667 12.0061 13.8732C12.0061 16.0793 13.6931 17.7664 15.8993 17.7664C18.1055 17.7664 19.7925 16.0793 19.7925 13.8732C19.7925 11.667 18.1055 9.97993 15.8993 9.97993Z" fill="white"/>
<path d="M15.8992 29.446C19.2734 29.446 22.388 28.1483 24.5941 26.0719C23.5559 22.8275 20.052 20.3618 15.8992 20.3618C11.7465 20.3618 8.24254 22.8275 7.20435 26.0719C9.41051 28.1483 12.5251 29.446 15.8992 29.446Z" fill="white"/>
</svg>
