<svg width="32" height="32" viewBox="0 0 32 32" fill="none" xmlns="http://www.w3.org/2000/svg">
<path d="M10.4737 1.00049H4.15789C2.41383 1.00049 1 2.41432 1 4.15838V10.4742C1 12.2182 2.41383 13.632 4.15789 13.632H10.4737C12.2177 13.632 13.6316 12.2182 13.6316 10.4742V4.15838C13.6316 2.41432 12.2177 1.00049 10.4737 1.00049Z" fill="#7239EA" stroke="#7239EA" stroke-width="2"/>
<path opacity="0.6" d="M27.8421 1L21.5263 1C19.7822 1 18.3684 2.41383 18.3684 4.15789V10.4737C18.3684 12.2177 19.7822 13.6316 21.5263 13.6316H27.8421C29.5861 13.6316 31 12.2177 31 10.4737V4.15789C31 2.41383 29.5861 1 27.8421 1Z" fill="#7239EA" stroke="#7239EA" stroke-width="2"/>
<path d="M10.4737 18.3687H4.15789C2.41383 18.3687 1 19.7825 1 21.5265V27.8423C1 29.5864 2.41383 31.0002 4.15789 31.0002H10.4737C12.2177 31.0002 13.6316 29.5864 13.6316 27.8423V21.5265C13.6316 19.7825 12.2177 18.3687 10.4737 18.3687Z" fill="#7239EA" stroke="#7239EA" stroke-width="2"/>
<path d="M27.8421 18.3687H21.5263C19.7822 18.3687 18.3684 19.7825 18.3684 21.5265V27.8423C18.3684 29.5864 19.7822 31.0002 21.5263 31.0002H27.8421C29.5861 31.0002 31 29.5864 31 27.8423V21.5265C31 19.7825 29.5861 18.3687 27.8421 18.3687Z" fill="#7239EA" stroke="#7239EA" stroke-width="2"/>
</svg>
