<svg width="30" height="30" viewBox="0 0 30 30" fill="none" xmlns="http://www.w3.org/2000/svg">
<path opacity="0.3" d="M15.0002 13.3333C11.3183 13.3333 8.3335 10.3486 8.3335 6.66667C8.3335 2.98477 11.3183 0 15.0002 0C18.6821 0 21.6668 2.98477 21.6668 6.66667C21.6668 10.3486 18.6821 13.3333 15.0002 13.3333Z" fill="#FFA800"/>
<path d="M0.00108614 28.6652C0.647098 20.7107 7.10319 16.6665 14.9722 16.6665C22.952 16.6665 29.5081 20.4885 29.9965 28.6665C30.016 28.9923 29.9965 29.9998 28.7445 29.9998C22.5685 29.9998 13.3912 29.9998 1.2125 29.9998C0.79452 29.9998 -0.0341029 29.0985 0.00108614 28.6652Z" fill="#FFA800"/>
</svg>
