<svg width="32" height="32" viewBox="0 0 32 32" fill="none" xmlns="http://www.w3.org/2000/svg">
<path opacity="0.3" fill-rule="evenodd" clip-rule="evenodd" d="M6.66675 9.33333C6.66675 12.2789 9.05456 14.6667 12.0001 14.6667C14.9456 14.6667 17.3334 12.2789 17.3334 9.33333C17.3334 6.38781 14.9456 4 12.0001 4C9.05456 4 6.66675 6.38781 6.66675 9.33333ZM20.0001 14.6667C20.0001 16.8758 21.7909 18.6667 24.0001 18.6667C26.2092 18.6667 28.0001 16.8758 28.0001 14.6667C28.0001 12.4575 26.2092 10.6667 24.0001 10.6667C21.7909 10.6667 20.0001 12.4575 20.0001 14.6667Z" fill="white"/>
<path fill-rule="evenodd" clip-rule="evenodd" d="M11.9778 17.3335C5.68255 17.3335 0.517678 20.5688 0.000868912 26.9324C-0.0272823 27.2791 0.635616 28.0002 0.970003 28.0002H22.9956C23.9972 28.0002 24.0128 27.1941 23.9972 26.9335C23.6065 20.3911 18.3616 17.3335 11.9778 17.3335ZM31.2746 28.0001L26.1333 28.0001C26.1333 24.9989 25.1417 22.2293 23.4682 20.001C28.0103 20.0506 31.7189 22.347 31.998 27.2001C32.0092 27.3956 31.998 28.0001 31.2746 28.0001Z" fill="white"/>
</svg>
