<svg width="24" height="30" viewBox="0 0 24 30" fill="none" xmlns="http://www.w3.org/2000/svg">
<path d="M22.5 30H1.5C0.6 30 0 29.4 0 28.5V1.5C0 0.6 0.6 0 1.5 0H15L24 9V28.5C24 29.4 23.4 30 22.5 30ZM16.5 22.5C16.5 21.6 15.9 21 15 21H6C5.1 21 4.5 21.6 4.5 22.5C4.5 23.4 5.1 24 6 24H15C15.9 24 16.5 23.4 16.5 22.5ZM19.5 15C19.5 14.1 18.9 13.5 18 13.5H6C5.1 13.5 4.5 14.1 4.5 15C4.5 15.9 5.1 16.5 6 16.5H18C18.9 16.5 19.5 15.9 19.5 15ZM19.5 7.5C19.5 6.6 18.9 6 18 6H6C5.1 6 4.5 6.6 4.5 7.5C4.5 8.4 5.1 9 6 9H18C18.9 9 19.5 8.4 19.5 7.5Z" fill="white"/>
</svg>
