<svg width="70" height="70" viewBox="0 0 70 70" fill="none" xmlns="http://www.w3.org/2000/svg">
<path d="M11.4871 23.5172C9.27066 23.5161 7.47418 25.3169 7.47363 27.5318L7.47637 44.3405C7.47691 46.563 9.27449 48.3568 11.4915 48.3562C13.7096 48.3562 15.5067 46.5625 15.5045 44.3411V27.5296C15.5034 25.3153 13.7047 23.5161 11.4871 23.5172ZM43.8583 8.42233L46.66 3.30632C46.8093 3.0389 46.7114 2.69874 46.4407 2.54726C46.1672 2.40233 45.8298 2.50077 45.6849 2.76983L42.8548 7.93944C40.4737 6.8796 37.8088 6.28569 34.9891 6.28843C32.1771 6.28569 29.5132 6.87796 27.142 7.93179L24.3086 2.7753C24.1615 2.50351 23.8225 2.40507 23.555 2.55327C23.2827 2.70038 23.1826 3.04108 23.3341 3.30796L26.1368 8.42069C20.6298 11.2606 16.9089 16.6692 16.9121 22.879L53.0704 22.8746C53.0715 16.667 49.3571 11.2694 43.8583 8.42233V8.42233ZM26.7652 16.3285C25.9334 16.3269 25.2542 15.6498 25.2542 14.8131C25.2542 13.9802 25.9312 13.2955 26.7668 13.2961C27.6052 13.2955 28.2833 13.9802 28.2844 14.8131C28.2844 15.6487 27.6046 16.328 26.7652 16.3285ZM43.2294 16.3258C42.3938 16.3269 41.7135 15.6493 41.7135 14.8104C41.7168 13.9791 42.3927 13.2944 43.23 13.2912C44.0618 13.2939 44.7437 13.9791 44.7432 14.8109C44.7448 15.6476 44.065 16.3263 43.2294 16.3258V16.3258ZM17.0598 24.2757L17.0658 50.3261C17.0642 52.6957 18.981 54.6087 21.3489 54.6087L24.2654 54.6098L24.2687 63.5041C24.2682 65.719 26.0685 67.5193 28.28 67.5193C30.4982 67.5193 32.2952 65.7173 32.2957 63.5014L32.2936 54.6092L37.7125 54.6076L37.7147 63.5014C37.7147 65.7146 39.5156 67.5187 41.7277 67.5144C43.9458 67.516 45.7439 65.7141 45.7434 63.4981L45.7407 54.6065L48.6675 54.6043C51.03 54.6054 52.9518 52.6902 52.9529 50.3201L52.9479 24.2697L17.0598 24.2757V24.2757ZM62.5237 27.5258C62.5232 25.3082 60.7267 23.5112 58.5091 23.5123C56.2926 23.5101 54.4967 25.3098 54.4967 27.5274L54.5 44.3373C54.4994 46.5565 56.2954 48.3502 58.5135 48.3508C60.7305 48.3502 62.5259 46.5565 62.5264 44.3351L62.5237 27.5258Z" fill="#A4C439"/>
</svg>
