<svg width="42" height="46" viewBox="0 0 42 46" fill="none" xmlns="http://www.w3.org/2000/svg">
<path d="M38.787 35.805L42 7.60964L21 0L0 7.60964L3.21491 35.805L21 45.8182L38.787 35.805ZM12.7756 34.9574H7.854L21 5.061L34.1575 34.9574H29.2454L26.5975 28.2679H15.4235L12.7756 34.9574Z" fill="#F44336"/>
<path d="M17.1494 24.1462H24.8507L21.0001 14.7783L17.1494 24.1462Z" fill="#F44336"/>
<path d="M21.0001 5.06055L7.85406 34.9569H12.7757L15.4236 28.2675H21.0001V24.1457H17.1494L21.0001 14.7778V5.06055Z" fill="#DEDEDE"/>
<path d="M21 0L0 7.60964L3.21491 35.805L21 45.8182V28.2679H15.4235L12.7756 34.9574H7.854L21 5.061V0Z" fill="#D43A2F"/>
<path d="M21.0001 14.7783L17.1494 24.1462H21.0001V14.7783Z" fill="#D43A2F"/>
</svg>
