<svg width="58" height="13" viewBox="0 0 58 13" fill="none" xmlns="http://www.w3.org/2000/svg">
<path d="M17.8076 12.8092V0.251065H18.4893V2.22661C18.5698 2.13909 18.6442 2.04612 18.7119 1.94836C18.9905 1.37013 19.4281 0.883281 19.9735 0.544886C20.5188 0.20649 21.1494 0.0305687 21.7912 0.0377423C23.3447 -0.00863194 24.6061 0.566409 25.3481 1.94836C25.8202 2.80685 26.08 3.76585 26.1058 4.74526C26.1316 5.72466 25.9227 6.69602 25.4965 7.57819C24.8055 9.12709 23.0989 9.8969 21.2718 9.61402C20.7032 9.56558 20.1558 9.37555 19.6795 9.06126C19.2032 8.74697 18.8131 8.31841 18.545 7.8147V12.8092H17.8076ZM18.4893 4.69371C18.5496 5.30585 18.5728 5.74177 18.6424 6.16841C18.9113 7.84716 19.9037 8.8442 21.4619 9.02506C22.1935 9.14533 22.9442 9.00816 23.5861 8.63693C24.2279 8.2657 24.7211 7.68339 24.9817 6.98923C25.2811 6.27524 25.4252 5.50571 25.4045 4.73175C25.3837 3.95779 25.1985 3.19711 24.8611 2.50021C24.583 1.87805 24.1099 1.36329 23.5135 1.03368C22.917 0.70406 22.2294 0.577486 21.5547 0.67307C20.9211 0.718971 20.3176 0.961133 19.8281 1.36589C19.3386 1.77064 18.9873 2.31787 18.8232 2.93149C18.678 3.51196 18.5665 4.10035 18.4893 4.69371Z" fill="black"/>
<path d="M40.0117 6.39994C39.9084 7.28412 39.4875 8.1007 38.8273 8.69781C38.1671 9.29492 37.3124 9.63192 36.4224 9.64613C33.5657 9.7899 32.2255 7.89319 32.0122 5.70433C31.8641 4.51566 32.0571 3.30939 32.5687 2.22626C32.9249 1.4833 33.5083 0.872978 34.2345 0.483634C34.9607 0.0942895 35.7919 -0.0538734 36.6079 0.0605902C37.3836 0.126338 38.119 0.434458 38.7099 0.941318C39.3008 1.44818 39.7173 2.12809 39.9004 2.88478C40.0456 3.57394 40.1524 4.27062 40.2204 4.97162H32.7124C32.5733 6.95643 33.6399 8.5517 35.1517 8.93661C37.0345 9.40035 38.6437 8.58417 39.228 6.79412C39.3579 6.33502 39.5944 6.27009 40.0117 6.39994ZM32.7124 4.33629H39.4228C39.381 2.22163 38.064 0.691278 36.2786 0.668091C34.2567 0.635629 32.8005 2.11033 32.7124 4.33629Z" fill="black"/>
<path d="M41.3936 6.44709H42.0521C42.0764 6.93164 42.2339 7.4001 42.5071 7.80099C42.7804 8.20187 43.1589 8.51966 43.601 8.71943C44.1562 8.96927 44.7606 9.09068 45.3692 9.07462C45.9778 9.05856 46.5749 8.90545 47.1161 8.62668C47.4111 8.49371 47.6582 8.27347 47.824 7.99566C47.9899 7.71786 48.0665 7.39587 48.0436 7.07314C48.0606 6.76188 47.9756 6.45358 47.8015 6.19498C47.6275 5.93639 47.3738 5.74161 47.079 5.64018C46.3556 5.37121 45.5858 5.22281 44.8484 4.9863C44.0813 4.76783 43.3311 4.49349 42.6039 4.16548C41.4168 3.5858 41.3426 1.32738 42.6874 0.613217C43.376 0.224618 44.151 0.0146631 44.9416 0.00251232C45.7322 -0.00963843 46.5133 0.176401 47.2135 0.543655C47.6377 0.778089 47.9804 1.13626 48.1958 1.57041C48.4112 2.00457 48.4892 2.49407 48.4193 2.97366H47.8535C47.8535 2.94584 47.8025 2.92265 47.8025 2.89483C47.7329 1.09087 46.2211 0.53438 44.598 0.692052C44.1135 0.751819 43.6429 0.894574 43.2068 1.11406C42.9448 1.23387 42.7265 1.43206 42.5819 1.68126C42.4374 1.93046 42.3738 2.21838 42.3999 2.50528C42.4007 2.79231 42.4903 3.07207 42.6563 3.3062C42.8224 3.54032 43.0568 3.71736 43.3274 3.81304C44.0415 4.07273 44.7882 4.23968 45.5209 4.44372C46.1098 4.60603 46.722 4.71269 47.2924 4.90747C47.695 5.03944 48.048 5.29057 48.3047 5.62761C48.5614 5.96465 48.7097 6.37171 48.73 6.7949C48.7988 7.25857 48.7198 7.73215 48.5042 8.14838C48.2886 8.56461 47.9473 8.90234 47.5289 9.11361C45.98 9.99008 43.4294 9.75821 42.2932 8.64986C42.0053 8.36027 41.7775 8.01652 41.6231 7.63845C41.4687 7.26038 41.3907 6.85547 41.3936 6.44709Z" fill="black"/>
<path d="M57.0775 2.97326H56.4607C56.4607 2.88978 56.4282 2.81558 56.419 2.74602C56.409 2.2837 56.2404 1.83885 55.9416 1.48596C55.6427 1.13307 55.2317 0.89358 54.7773 0.80758C53.92 0.561603 53.0055 0.605619 52.1757 0.932791C51.8478 1.02683 51.559 1.22441 51.3526 1.49604C51.1461 1.76767 51.0331 2.09879 51.0303 2.43995C51.0188 2.775 51.1232 3.10377 51.326 3.37075C51.5287 3.63773 51.8174 3.82657 52.1433 3.90538C53.0708 4.1929 54.0214 4.36912 54.9628 4.62881C55.2679 4.70203 55.5683 4.7934 55.8625 4.90242C56.3018 5.05959 56.6834 5.34561 56.9576 5.72311C57.2317 6.10062 57.3856 6.55204 57.3991 7.01839C57.4126 7.48474 57.2852 7.94433 57.0334 8.33708C56.7816 8.72984 56.4171 9.0375 55.9877 9.21986C55.3333 9.51703 54.624 9.67425 53.9053 9.68143C53.1865 9.68862 52.4743 9.54562 51.814 9.2616C51.2711 9.02742 50.8129 8.63254 50.5011 8.1301C50.1894 7.62766 50.039 7.04179 50.0703 6.45132H50.33H50.6732C50.7847 6.98939 51.0257 7.49217 51.3754 7.91612C51.725 8.34006 52.1727 8.67239 52.6797 8.88432C53.1867 9.09625 53.7377 9.1814 54.285 9.1324C54.8323 9.0834 55.3595 8.90171 55.8207 8.60308C56.1017 8.45709 56.335 8.23358 56.4928 7.95905C56.6506 7.68451 56.7264 7.37048 56.7111 7.05419C56.7251 6.74274 56.6371 6.43524 56.4605 6.17831C56.284 5.92139 56.0284 5.72906 55.7326 5.6305C55.0092 5.36153 54.2394 5.21777 53.502 4.98126C52.7304 4.76615 51.9756 4.49491 51.2436 4.16971C50.0843 3.59931 49.9915 1.35943 51.3132 0.645271C52.0103 0.240392 52.8005 0.0228983 53.6066 0.013959C54.4128 0.00501976 55.2075 0.204939 55.9135 0.594259C56.3172 0.835283 56.6422 1.18848 56.8489 1.61085C57.0555 2.03322 57.135 2.50656 57.0775 2.97326Z" fill="black"/>
<path d="M16.6807 9.41961C16.4379 9.51154 16.1699 9.51135 15.9272 9.41907C15.6845 9.32679 15.4841 9.1488 15.3637 8.91876C14.6078 7.78723 13.7731 6.70671 12.9708 5.60301L12.623 5.13927C11.6677 6.41919 10.7124 7.64811 9.84054 8.9234C9.72695 9.14325 9.53732 9.31433 9.30698 9.40476C9.07663 9.49519 8.82126 9.49882 8.58844 9.41497L12.1732 4.60596L8.83886 0.2607C9.07888 0.174036 9.34144 0.172848 9.58223 0.257335C9.82302 0.341823 10.0273 0.50681 10.1605 0.724442C10.935 1.85597 11.7929 2.93649 12.6462 4.08193C13.5041 2.94577 14.3528 1.86061 15.1458 0.738355C15.26 0.522072 15.4497 0.355316 15.6789 0.26981C15.908 0.184304 16.1606 0.186014 16.3886 0.274613L15.0947 1.99046C14.5151 2.75563 13.9447 3.52544 13.3418 4.27207C13.2932 4.31556 13.2544 4.36882 13.2278 4.42835C13.2011 4.48788 13.1874 4.55235 13.1874 4.61756C13.1874 4.68276 13.2011 4.74723 13.2278 4.80676C13.2544 4.8663 13.2932 4.91955 13.3418 4.96304C14.4501 6.43311 15.5492 7.90781 16.6807 9.41961Z" fill="black"/>
<path d="M31.9008 0.213867V0.863107C31.4317 0.832343 30.9615 0.900269 30.5203 1.0625C30.0791 1.22473 29.6769 1.47766 29.3396 1.80497C29.0022 2.13227 28.7372 2.52668 28.5617 2.96273C28.3862 3.39878 28.3041 3.86678 28.3207 4.33653C28.3207 5.86379 28.3207 7.39105 28.3207 8.9183C28.3207 9.08061 28.3207 9.24292 28.3207 9.4377H27.6575V0.250967H28.3068V2.13376C29.109 0.761082 30.3472 0.250967 31.9008 0.213867Z" fill="black"/>
<path d="M0 4.54554C0.0973858 4.0818 0.157672 3.57632 0.292157 3.1033C1.09443 0.251289 4.36381 -0.935889 6.61296 0.830968C7.92999 1.86511 8.25924 3.33053 8.19432 4.98146H0.774449C0.653876 7.93085 2.78245 9.71163 5.50462 8.80269C5.94619 8.64474 6.34148 8.37931 6.65481 8.03036C6.96813 7.68141 7.18963 7.25993 7.2993 6.80396C7.44306 6.34022 7.67493 6.26138 8.11548 6.39587C8.04292 6.96043 7.8433 7.5012 7.53165 7.97751C7.22 8.45382 6.80442 8.85328 6.31617 9.14586C5.50944 9.58701 4.58388 9.76178 3.67184 9.64517C2.75979 9.52856 1.90797 9.12655 1.23819 8.49662C0.575577 7.75159 0.174926 6.81023 0.0973857 5.81619C0.0973857 5.65852 0.0370994 5.50085 0.00463742 5.35245C0.0015458 5.0773 0 4.80833 0 4.54554ZM0.783724 4.34613H7.49407C7.45233 2.20828 6.10284 0.691844 4.30353 0.677932C2.30016 0.650108 0.867197 2.13408 0.779086 4.33685L0.783724 4.34613Z" fill="black"/>
</svg>
