<svg width="37" height="47" viewBox="0 0 37 47" fill="none" xmlns="http://www.w3.org/2000/svg">
<path d="M10.8775 28.5708C9.4912 27.4931 8.01202 26.4605 7.0015 25.0053C4.87423 22.4392 3.2368 19.4689 2.11736 16.347C1.44055 14.3168 1.20879 12.1403 0.335757 10.1889C-0.576233 8.77107 0.492873 7.22234 2.06433 6.7719C2.76346 6.6387 3.99353 5.9865 2.50866 6.45324C1.17722 7.41792 1.04897 5.57652 2.41397 5.45991C3.34558 5.33781 3.68853 4.58459 3.36961 3.90654C2.36918 3.26165 5.79461 2.55409 4.07087 1.59208C2.27647 -0.321527 6.5819 -0.689918 5.51948 1.48376C5.26553 3.15501 8.52902 1.17677 7.77116 3.1071C8.5411 4.03426 10.6536 3.31855 10.6005 4.61845C11.7218 4.69461 12.1067 5.62626 13.1582 5.69792C14.2498 6.18489 16.2266 6.56789 16.5974 7.78252C15.5154 8.62875 13.0105 6.03427 12.8895 8.37711C13.2168 11.8388 13.1333 15.4045 14.4146 18.7008C15.0206 20.6964 16.4905 22.2674 17.8173 23.822C19.0874 25.3442 20.8075 26.4165 22.5611 27.3186C24.0988 28.0352 25.7567 28.5101 27.4331 28.8088C28.1128 28.2951 29.313 26.3851 30.3728 27.1899C30.424 28.096 28.269 29.0826 30.2717 28.9824C31.4488 28.6315 32.2642 29.8808 33.2329 28.7536C34.1256 29.7983 36.9426 28.0866 36.3077 30.2218C35.4486 30.7694 34.1962 30.4386 33.3363 31.1921C31.9184 30.492 30.7894 31.8177 29.2191 31.6505C27.4759 31.9591 25.7017 32.0833 23.9344 32.0858C21.0344 31.8597 18.0732 31.7643 15.3145 30.7665C13.7599 30.3203 12.2435 29.4455 10.8775 28.5708ZM13.3266 29.62C14.844 30.2677 16.328 30.9513 17.9913 31.1579C20.63 31.52 23.355 32.0785 26.003 31.5696C24.8046 31.035 23.5652 31.7773 22.3714 31.1874C20.9396 31.4915 19.4028 31.1093 17.9465 30.9209C16.2914 30.1926 14.5047 29.6918 12.9547 28.7453C11.017 28.0463 13.9562 29.6421 14.4796 29.7718C15.6901 30.4504 13.148 29.4233 12.7889 29.1413C11.7749 28.5791 11.6458 28.6966 12.6888 29.2672C12.8989 29.3886 13.1063 29.5163 13.3266 29.62ZM10.4387 27.6034C11.9097 28.1418 10.4322 26.5817 9.75908 26.6719C9.46049 26.1601 8.61831 25.8366 9.21237 25.562C8.14411 25.9287 8.09293 24.1682 7.59101 24.4201C6.46033 24.0673 7.15108 22.8177 5.80385 22.0499C5.681 21.2412 4.46587 20.5402 4.07912 19.3209C3.90807 18.6963 2.70588 16.9039 3.44411 18.5721C4.07258 20.178 5.17809 21.5545 6.09861 22.928C6.81267 24.2361 7.65698 25.6042 8.95771 26.4201C9.39664 26.8363 9.81951 27.4729 10.4386 27.6034H10.4387ZM6.20283 23.007C6.47156 23.4819 6.25373 22.7874 6.20283 23.007V23.007ZM12.2007 28.2483C11.7321 28.0665 12.526 28.1042 12.2007 28.2483V28.2483ZM12.9984 28.5361C12.634 28.7583 12.9158 28.139 12.9984 28.5361V28.5361ZM13.998 28.9477C13.2643 28.6653 14.473 28.4999 13.998 28.9477V28.9477ZM15.7106 29.8909C14.7854 29.7321 15.9997 29.4693 15.7106 29.8909V29.8909ZM12.4221 27.6256C11.4672 27.619 13.1601 27.1533 12.4221 27.6256V27.6256ZM13.1714 27.9949C12.9045 28.1068 13.15 27.7457 13.1714 27.9949V27.9949ZM16.9174 30.3054C17.5198 30.6812 20.4348 31.1286 18.6097 30.4596C18.3035 30.5232 15.2252 29.5988 16.9174 30.3054ZM10.9707 25.7283C10.0351 25.4518 10.9121 25.4786 10.9707 25.7283V25.7283ZM12.7139 26.7336C11.772 26.4919 13.1684 26.4203 12.7139 26.7336V26.7336ZM14.181 27.622C13.1249 27.3785 14.8327 27.3795 14.181 27.622V27.622ZM10.2603 24.9648C10.967 25.5003 13.1111 25.0337 11.3425 24.6452C10.5383 24.2216 8.72523 23.9314 9.96113 24.9006L10.2603 24.9648ZM15.1751 27.9287C13.9402 27.6456 15.4697 27.4334 15.1751 27.9287V27.9287ZM13.6817 26.7562C15.4093 27.2387 12.2286 25.6758 13.2552 26.578L13.4831 26.6801L13.6817 26.7562ZM16.6759 28.4661C15.1975 28.243 18.3122 28.4815 16.6759 28.4661V28.4661ZM9.63097 24.0294C9.22744 24.0544 9.5667 23.7281 9.63097 24.0294V24.0294ZM19.4437 30.0004C18.91 30.4056 19.4874 29.4566 19.4437 30.0004V30.0004ZM12.424 25.719C11.9126 25.7071 12.3244 25.4324 12.424 25.719V25.719ZM9.78609 23.8403C8.4993 23.4314 10.7254 23.7843 9.78609 23.8403V23.8403ZM6.6611 21.8446C5.63934 21.0446 6.54408 21.3992 6.6611 21.8446V21.8446ZM14.8646 26.9889C14.7836 27.031 14.6926 26.7948 14.8646 26.9889V26.9889ZM19.9698 30.0851C19.6919 30.1969 19.9542 29.7882 19.9698 30.0851V30.0851ZM14.4127 26.5276C13.6114 26.4117 14.5049 26.1455 14.4127 26.5276V26.5276ZM10.6089 24.1453C9.48849 23.6786 11.3082 24.0717 10.6089 24.1453V24.1453ZM17.0432 28.096C15.9813 27.8882 18.1328 27.6696 17.0432 28.096V28.096ZM13.6968 25.8515C14.9519 26.0111 12.2027 25.0071 13.4207 25.7613L13.6968 25.8515ZM18.0591 28.5019C19.2317 27.8102 18.845 30.1236 20.0482 28.6976C21.2344 27.8414 19.0234 29.756 20.4851 28.8502C21.5431 28.1509 23.1051 29.1818 24.0917 29.5172C24.8009 29.4832 25.491 30.1236 26.2188 29.7338C27.6191 29.3608 23.4799 29.181 24.5648 28.5202C23.2836 28.8889 22.3373 28.0811 21.7068 27.2699C20.2693 26.9418 18.6078 26.2161 17.8901 24.9584C17.5972 24.4871 18.3124 25.0255 17.6373 24.2538C16.7716 23.493 16.3394 22.6283 15.7581 21.7033C15.0635 21.3375 14.9818 20.2599 14.9119 21.6676C14.9176 20.7791 14.0733 20.1809 13.8669 20.4291C13.8632 19.5736 14.7708 20.0026 14.1356 19.3697C13.9991 18.483 13.5489 17.5589 13.414 16.5574C13.2041 16.0751 13.3841 15.0416 12.6964 16.1338C12.4461 17.2887 12.6136 14.7154 13.0032 15.5634C13.5145 14.6979 12.8189 14.7998 12.7911 14.9194C13.1241 14.189 13.0022 13.1526 12.7038 13.5477C12.8814 12.7731 12.9846 10.6978 12.4389 11.0661C12.7698 10.2559 13.0665 7.35975 11.6288 8.46436C11.0469 8.47251 10.0382 8.673 9.56215 8.90722C11.0563 9.72128 9.41143 9.20114 8.80244 9.0716C8.72339 9.82496 8.12094 9.49971 7.36777 9.50701C8.57096 9.65398 6.78196 10.7223 6.0932 10.3073C5.19686 10.7299 6.86585 11.7865 6.11084 12.1134C6.20397 12.605 4.73844 11.9354 4.8529 13.0728C3.98343 12.7106 4.73389 14.4214 5.16899 13.8427C6.6483 14.2386 6.21037 15.1399 6.24748 15.997C6.00661 16.4958 5.05737 14.8238 6.03633 14.9011C5.26368 13.6615 5.18207 14.4526 4.54038 15.0287C4.39165 15.0701 6.17681 15.8481 5.05652 16.2322C6.04202 16.3829 6.07088 17.2355 6.27179 17.7749C6.864 18.3846 6.74201 17.1012 7.45166 17.8346C7.00235 17.1813 5.075 15.994 6.62698 16.3748C6.61844 15.7178 6.34601 15.1876 6.82206 15.2004C7.29355 14.3579 6.32838 17.2786 7.39024 16.2075C7.68385 16.0807 7.75751 15.364 8.28559 16.2755C9.05255 17.0215 8.56271 17.5615 7.48038 16.8781C7.67376 17.5276 8.92799 17.759 8.69182 18.7744C8.94178 19.6674 9.29157 19.3384 9.59642 19.2869C9.83529 20.1542 9.97136 19.5167 9.98245 19.1032C11.0767 19.335 10.8201 19.9743 11.163 20.4208C11.9171 20.7569 10.0837 18.1413 11.378 19.6343C12.7399 20.8497 11.8893 21.3568 10.6668 21.1622C11.4403 21.1004 11.6893 22.1959 12.6574 22.1572C13.5397 22.5724 14.1376 24.1655 12.6165 23.5021C12.0892 23.0317 10.2212 22.452 11.7471 23.346C13.1548 23.9909 14.2742 24.3759 15.6326 25.1854C16.6043 25.8708 17.0243 26.656 17.3925 26.8116C16.5754 27.1972 14.9307 26.5037 16.1522 26.2916C15.3898 26.1546 14.5327 25.7734 15.2624 26.7114C15.8835 27.2241 17.4614 27.1697 17.745 27.2276C17.5052 27.7495 17.0934 27.791 17.7543 27.8313C17.0169 28.2199 17.9914 28.2806 18.0593 28.5019H18.0591ZM16.5511 24.2932C16.1021 23.8293 15.9859 22.9612 16.4712 23.7161C16.7204 23.8154 17.2681 25.1358 16.5511 24.2932ZM21.4632 27.3765C21.4715 27.5867 21.7431 27.3582 21.4632 27.3765V27.3765ZM15.8428 23.1559C16.0044 23.6968 15.8249 22.4548 15.8428 23.1559V23.1559ZM15.3546 22.5072C16.0658 22.8122 14.7894 21.4296 15.3546 22.5072V22.5072ZM9.43745 18.4722C9.60111 19.0324 9.76946 18.3847 9.43745 18.4722V18.4722ZM14.1468 20.994C14.3859 21.6281 14.3504 20.2378 14.1468 20.994V20.994ZM10.8201 18.7081C11.3102 19.0997 10.5859 18.2911 10.8201 18.7081V18.7081ZM13.6745 19.6122C13.1399 18.4289 14.0538 18.9653 13.7935 19.8061L13.6745 19.6122ZM8.7514 16.3681C8.51252 15.9796 8.11724 14.8403 8.24464 14.4922C8.35896 15.059 9.46361 16.9305 8.78566 15.2677C8.03733 13.8739 9.68116 15.7195 9.85036 16.0678C9.92942 16.4133 9.38825 15.9732 9.75453 16.7844C9.08611 15.861 9.36024 17.2944 8.7514 16.3681ZM7.23028 15.3319C7.57807 15.951 7.29255 14.4287 7.23028 15.3319V15.3319ZM7.91462 15.5651C8.46773 16.5152 8.24094 14.8837 7.91462 15.5651V15.5651ZM6.26795 14.3066C5.70162 13.7497 5.29155 13.2371 6.29483 13.961C6.68072 13.9758 5.43587 12.7953 6.38796 13.5862C7.38825 13.7664 6.88149 15.2079 6.26795 14.3066ZM7.13259 14.2846C7.30748 14.6015 7.4619 13.9621 7.13259 14.2846V14.2846ZM7.66537 14.4526C8.27066 14.8404 7.16601 13.5292 7.66537 14.4526V14.4526ZM6.60735 13.4541C4.96083 12.005 8.67604 14.211 6.87609 13.7222L6.60735 13.4541ZM11.3258 16.1624C10.6128 15.7406 11.1362 13.1904 11.3799 14.9341C12.0726 14.7125 11.3415 15.8354 11.8576 15.8243C11.7769 16.5324 11.5454 16.7873 11.3258 16.1624ZM13.071 17.1821C13.2179 17.7079 13.1407 16.4133 13.071 17.1821V17.1821ZM12.768 16.8854C12.7754 17.2722 12.8461 16.5574 12.768 16.8854V16.8854ZM6.92983 12.9781C5.87196 11.5356 10.0046 14.4369 7.60778 13.3438C7.35753 13.2786 7.05553 13.2556 6.92983 12.9781ZM10.291 14.7385C10.5142 14.9394 10.1908 13.5239 10.291 14.7385V14.7385ZM12.8423 16.3561C12.8573 16.8139 13.0393 15.6644 12.8423 16.3561V16.3561ZM7.09264 12.4277C7.72125 12.2945 9.69779 13.5183 7.88292 12.7769C7.68129 12.5563 7.25075 12.6565 7.09264 12.4276V12.4277ZM12.4916 15.0865C12.5589 13.8445 12.8676 14.3451 12.4945 15.2648L12.4916 15.0864V15.0865ZM7.56029 11.9951C7.8168 11.6238 6.8795 10.3166 7.69494 11.5264C8.04757 11.8029 8.71485 11.9895 8.12549 12.1061C9.05241 12.9139 7.89969 12.3249 7.56029 11.9951ZM12.2247 14.6989C12.3812 15.5276 12.4016 13.2841 12.2247 14.6989V14.6989ZM7.02467 10.6886C7.12875 10.9466 7.22089 10.6057 7.02467 10.6886V10.6886ZM8.2418 11.4043C8.81908 12.1282 8.55489 10.7547 8.2418 11.4043V11.4043ZM11.6735 13.2904C11.7385 13.6533 11.6706 13.0414 11.6735 13.2904V13.2904ZM11.4744 12.856C11.918 13.4705 10.9984 11.6946 11.4744 12.856V12.856ZM11.1824 12.0942C11.4539 12.6969 11.1027 11.6145 11.1824 12.0942V12.0942ZM11.6584 11.3299C11.3312 10.761 12.0715 8.82165 12.1542 10.0243C11.8091 10.9615 12.0547 11.4853 12.2944 10.2283C12.739 9.23978 12.1987 12.1807 11.6584 11.3299ZM12.1475 8.44596C12.1792 8.65432 12.29 8.27314 12.1475 8.44596V8.44596ZM11.3305 24.352C11.3554 24.4578 11.137 24.1848 11.3305 24.352V24.352ZM13.0133 25.1927C13.9495 25.4307 13.9449 25.0493 13.0986 24.9353C12.6441 24.5175 11.2075 24.0736 12.4935 24.8839C12.5782 25.0972 12.847 25.0916 13.0133 25.1927ZM9.6904 23.0115C10.2054 23.3921 11.6325 24.0882 10.4248 23.1569C10.832 22.689 9.64561 22.4402 10.039 22.127C9.03762 21.5213 9.24848 21.5755 9.95075 21.5949C8.74756 21.0629 10.1245 21.1033 10.0595 20.8306C9.59556 20.7404 7.75452 20.0219 8.8377 20.8893C7.73689 20.3352 8.57537 21.096 8.24265 21.0161C7.11653 20.7129 9.24507 21.8633 8.06406 21.5775C8.70945 22.0828 9.80188 22.8729 8.33649 22.1121C8.14411 22.3868 9.38541 22.8031 9.69026 23.0115H9.6904ZM11.4503 24.0111C10.4005 23.1778 13.5897 24.692 11.4503 24.0111V24.0111ZM20.4598 29.4041C20.1678 29.7623 20.4877 28.9843 20.4598 29.4041V29.4041ZM21.3859 29.789C21.8796 29.317 21.4064 30.5424 22.204 29.6734C22.2123 29.0513 22.1798 28.684 21.2873 29.4399C21.0408 29.5751 20.9313 30.1473 21.3859 29.7892V29.789ZM6.68627 20.6672C5.62342 20.0808 6.53455 20.0782 6.68627 20.6672V20.6672ZM7.67447 21.3073C6.36436 20.7626 7.3072 20.7057 7.67447 21.3073V21.3073ZM13.3005 24.6598C13.8502 25.1423 15.8231 25.0136 13.9674 24.7197C13.693 24.3181 12.223 24.4146 13.3005 24.6598ZM21.0334 29.3796C20.2144 29.692 21.8786 28.6785 21.0334 29.3796V29.3796ZM22.7917 30.5729C22.4273 30.6712 22.7971 30.3478 22.7917 30.5729V30.5729ZM22.7945 30.2577C21.8879 30.3156 23.7307 29.2785 22.7945 30.2577V30.2577ZM4.25387 18.655C3.4562 17.5304 3.75835 17.025 2.98855 16.1063C2.84238 15.4035 1.66834 13.8104 2.38141 15.4981C3.03404 16.4858 3.22742 18.0144 4.25401 18.655H4.25387ZM22.5006 29.9463C21.7941 29.4676 24.2236 28.8464 22.5006 29.9463V29.9463ZM23.8154 30.4551C23.2696 30.3026 24.6782 29.7237 23.8154 30.4551V30.4551ZM6.39322 19.4238C5.75551 19.377 6.63977 19.0609 6.39322 19.4238V19.4238ZM23.541 30.1078C24.3759 29.576 23.3486 29.6577 23.3896 30.1564L23.541 30.1078ZM12.209 23.0501C11.7675 23.0804 12.1802 22.69 12.209 23.0501V23.0501ZM12.9091 23.448C12.567 23.5178 12.686 23.0033 12.9091 23.448V23.448ZM24.8808 30.4672C25.9509 29.7045 24.2329 30.321 24.6568 30.6124L24.8808 30.4672ZM24.4709 30.2715C23.5512 30.5912 25.3429 29.5502 24.4709 30.2715V30.2715ZM26.5645 31.6486C25.8534 31.5237 27.1496 31.2618 26.5645 31.6486V31.6486ZM6.92983 19.162C7.71357 19.3356 10.0639 21.0702 8.67774 19.2824C7.96752 19.0748 8.39337 17.3594 7.66907 17.6626C8.15535 18.4656 8.06861 18.8063 7.04771 18.3012C5.76575 17.6819 6.32724 18.6072 6.57849 18.8626C6.2361 18.9398 7.03022 19.1557 6.92969 19.1619L6.92983 19.162ZM3.35667 16.3738C3.49701 15.7994 2.06333 13.2169 2.67986 15.0792C2.90195 15.4697 2.87892 16.2091 3.35667 16.3738ZM9.9152 20.3692C9.89572 20.3214 9.51082 20.0358 9.9152 20.3692V20.3692ZM10.9091 20.5982C9.81027 20.3509 10.9091 19.9899 10.9091 20.5982V20.5982ZM19.5282 25.9663C18.8784 25.957 19.3637 25.5509 19.5282 25.9663V25.9663ZM19.942 26.2647C19.7028 26.3098 19.8804 26.0324 19.942 26.2647V26.2647ZM23.3579 28.3916C22.9478 28.3606 23.6862 28.1519 23.3579 28.3916V28.3916ZM5.14098 16.824C4.13386 16.5676 6.08083 16.4646 5.14098 16.824V16.824ZM18.7693 25.3074C18.1697 25.4573 18.7584 24.7066 18.7693 25.3074V25.3074ZM4.76987 15.9685C4.21107 15.8364 5.37331 15.7676 4.76987 15.9685V15.9685ZM6.52162 16.8073C6.33663 16.8827 6.51124 16.6099 6.52162 16.8073V16.8073ZM27.8924 29.7569C28.6687 29.6016 30.4381 30.1475 30.7235 29.554C29.7808 29.5309 27.4628 28.896 27.3531 29.7045L27.5595 29.7368L27.8925 29.7569H27.8924ZM7.07842 16.9461C6.59783 16.9232 7.09264 16.3369 7.07842 16.9461V16.9461ZM2.47269 13.7883C1.67673 13.6127 2.26353 12.6278 2.47269 13.7883V13.7883ZM3.57066 14.0612C2.5654 13.7258 3.58474 13.6882 3.57066 14.0612V14.0612ZM4.19827 14.3662C4.05694 14.5489 4.01699 14.2209 4.19827 14.3662V14.3662ZM8.14881 16.8698C7.70817 16.7449 8.33493 16.7006 8.14881 16.8698V16.8698ZM3.78081 13.679C2.50795 13.5477 3.67403 12.8026 3.78081 13.679V13.679ZM1.52785 12.2347C1.30832 12.3871 1.49615 11.8305 1.52785 12.2347V12.2347ZM1.86342 11.985C1.5752 12.0454 1.80867 11.5052 1.86342 11.985V11.985ZM3.71398 13.0763C4.49687 12.7731 2.28841 12.4478 3.55402 13.0194L3.71398 13.0763ZM28.4867 28.1969C27.8507 28.0564 28.9878 27.7431 28.4867 28.1969V28.1969ZM31.4796 29.7293C30.9737 29.8066 31.6805 29.1433 31.4796 29.7293V29.7293ZM3.90309 12.1181C3.28216 12.231 3.98599 11.5504 3.90309 12.1181V12.1181ZM1.26936 10.3745C1.12802 9.57333 1.1475 8.16664 2.50042 8.64167C0.694637 8.99629 3.75095 10.8602 3.36506 9.38843C4.12462 9.42538 4.85091 8.94487 4.45194 9.67322C5.94888 9.51067 6.98571 8.22818 8.43133 8.4083C9.55717 8.2605 10.7882 8.14922 12.0017 7.70088C12.9992 7.63007 13.9596 6.56888 13.4131 5.93958C12.0528 5.82577 10.6283 5.99381 9.12492 6.2897C7.45891 6.6314 5.94533 7.28177 4.26411 7.56123C2.62483 7.779 4.59327 8.16018 4.12363 8.2456C3.26908 8.53869 5.14368 8.73623 4.013 9.04575C3.31486 8.91452 2.58772 8.6775 2.88617 7.94985C1.31671 8.15189 -0.0630788 8.79496 1.17736 10.3733L1.2695 10.3742L1.26936 10.3745ZM5.05268 8.47068C5.41995 7.1313 7.02368 9.57333 5.65513 8.64898C5.49232 8.52759 5.22259 8.42924 5.05268 8.47068ZM5.12406 7.82101C5.40587 8.04075 5.65513 7.4307 5.12406 7.82101V7.82101ZM5.79817 7.83225C5.84679 7.21574 7.34275 8.15835 6.04472 8.05368L5.79817 7.83211V7.83225ZM6.72053 7.46569C6.81836 7.81104 7.05809 7.07594 6.72053 7.46569V7.46569ZM6.95685 7.30959C7.51835 6.64348 10.1337 6.88402 8.21933 7.24412C7.70604 6.86196 7.31289 7.4692 6.95685 7.30959ZM10.3708 6.78946C12.0676 7.43534 10.2863 4.96928 10.3708 6.78946V6.78946ZM11.3398 6.78384C11.6938 5.86708 12.7147 6.41559 11.5043 6.59922C11.5302 6.69757 11.468 7.07341 11.3398 6.78384ZM3.52132 11.6477C2.39804 11.092 4.57919 11.0073 3.52132 11.6477V11.6477ZM4.30406 11.8618C3.49701 11.7037 4.67517 11.4723 4.30406 11.8618V11.8618ZM1.99835 10.2458C1.28244 10.0713 2.60265 9.78633 1.99835 10.2458V10.2458ZM33.246 29.5621C32.7839 29.8018 33.2636 29.0292 33.246 29.5621V29.5621ZM30.0708 27.4205C29.6627 27.4739 30.161 26.8079 30.0708 27.4205V27.4205ZM34.119 29.7689C34.9643 29.7718 36.6804 29.5087 34.8413 29.5097C34.5523 29.554 33.1596 29.5448 34.119 29.7689ZM4.99225 11.4858C5.6766 11.4399 6.06235 10.7406 4.85916 10.7802C2.99509 10.5901 6.50384 11.4115 4.62029 11.1763C4.36748 11.3417 4.97718 11.5318 4.99225 11.4858ZM5.5947 11.7873C5.38255 12.0177 5.52303 11.3536 5.5947 11.7873V11.7873ZM6.30961 9.90378C5.89869 9.80642 6.60622 9.53989 6.30961 9.90378V9.90378ZM4.03348 6.14541C5.2553 5.73571 6.92514 5.27445 7.50171 6.34773C6.91491 5.65043 7.26469 4.9631 7.81879 5.98383C8.60253 7.01567 8.99468 5.51442 8.48522 5.16795C9.06648 5.88085 9.72652 6.21819 8.87382 5.21319C9.80088 4.11153 7.01899 5.35734 6.38682 5.34442C6.08282 5.4793 3.24605 6.05914 4.03362 6.14541H4.03348ZM4.74939 4.79141C5.44597 4.2724 7.15847 5.10093 6.05951 4.27493C5.95173 4.18136 3.65341 4.90156 4.74939 4.79141ZM7.28872 4.8951C8.10316 4.91533 6.93737 3.81283 7.90794 4.31259C7.74898 3.79822 6.77741 3.70169 6.30236 3.496C6.03363 3.96639 6.84879 4.90156 7.28872 4.8951ZM5.19472 2.61745C4.7002 2.80952 5.47654 2.23993 5.19472 2.61745V2.61745ZM6.23269 2.86263C7.54622 2.69093 5.8977 2.30414 5.96737 2.849L6.23255 2.86263H6.23269ZM4.29468 1.36518C3.36946 0.171768 6.03434 1.56553 5.0942 0.315922C4.30307 -0.305932 3.5435 1.01702 4.29468 1.36518ZM16.1631 7.68164C16.5873 6.93909 14.4124 6.68015 15.8777 7.41862C16.0125 7.46288 15.982 7.73292 16.1631 7.68164ZM7.55134 35.335C7.45749 35.7011 7.39934 36.3155 7.37758 37.1779C7.37758 37.3474 7.30037 37.4322 7.14553 37.4322C6.99069 37.4322 6.88291 37.3582 6.82191 37.2108C6.65612 36.8121 6.49915 36.534 6.34928 36.3753C6.17269 36.1898 5.93779 36.0777 5.64475 36.0395C5.3298 35.9903 4.54521 35.9657 3.29084 35.9657C3.00362 35.9657 2.8155 35.9959 2.72735 36.0562C2.67204 36.0941 2.64445 36.1762 2.64445 36.3019V40.0124C2.64445 40.138 2.7245 40.1978 2.88446 40.1926C3.37657 40.187 4.08936 40.1539 5.02296 40.0943C5.20553 40.0721 5.32866 40.0135 5.39208 39.9178C5.45606 39.8223 5.5182 39.5756 5.57863 39.1767C5.61702 38.9582 5.74726 38.8735 5.96822 38.9229C6.15591 38.9612 6.23667 39.0459 6.20894 39.1767C6.05396 39.9197 6.00391 40.8862 6.05922 42.0766C6.06505 42.2182 5.97391 42.2949 5.7858 42.3059C5.63081 42.3223 5.53412 42.2403 5.49573 42.06C5.35241 41.3776 5.08524 41.0129 4.69607 40.9662C4.30648 40.9202 3.6719 40.8968 2.79361 40.8968C2.69408 40.8968 2.64445 40.9321 2.64445 41.0032V44.6892C2.64445 44.9623 2.7464 45.1482 2.95072 45.2461C3.1114 45.3281 3.45663 45.402 3.98684 45.4674C4.25799 45.4947 4.37644 45.6124 4.34373 45.8195C4.31032 45.9998 4.06746 46.0709 3.61388 46.0327C2.30434 45.9287 1.22372 45.9343 0.37301 46.0494C0.13513 46.0817 0.0166882 45.9862 0.0166882 45.7626C0.0166882 45.6203 0.13513 45.5385 0.37301 45.5168C0.914601 45.4565 1.18518 44.9868 1.18518 44.108V37.0959C1.18518 36.7359 1.12006 36.4589 0.990529 36.2648C0.860428 36.0709 0.618567 35.8946 0.265374 35.7364C0.0441304 35.6381 -0.0386226 35.5044 0.0165461 35.335C0.0441304 35.2314 0.0884928 35.1738 0.148922 35.1632C0.204233 35.1466 0.350971 35.1575 0.588139 35.196C0.936498 35.2506 1.75735 35.278 3.05025 35.278C4.57578 35.278 5.89343 35.2449 7.00448 35.1796C7.3746 35.1574 7.56001 35.1876 7.56001 35.2695C7.56001 35.2917 7.55717 35.3132 7.55134 35.335ZM12.927 45.733C12.927 45.9515 12.8026 46.047 12.5541 46.0196C11.7919 45.9485 10.8467 45.9592 9.71941 46.0521C9.49262 46.0743 9.35342 46.0685 9.30052 46.0362C9.24792 46.0032 9.22204 45.9132 9.22204 45.7653C9.22204 45.6346 9.37233 45.5242 9.67348 45.4337C9.97506 45.3439 10.1252 45.0749 10.1252 44.6272V37.2142C10.1252 36.7716 10.0602 36.4468 9.9307 36.2391C9.8006 36.0316 9.57267 35.8706 9.24678 35.7562C9.0753 35.6958 8.98942 35.6112 8.98942 35.5019C8.98942 35.3381 9.11383 35.2153 9.36252 35.1334C9.73846 35.0133 10.1282 34.8279 10.5317 34.5764C10.8633 34.3797 11.0735 34.2818 11.1615 34.2818C11.3658 34.2818 11.4685 34.4206 11.4685 34.6992C11.4685 34.6777 11.4574 34.9507 11.4349 35.5183C11.4188 36.0589 11.4131 36.5912 11.4188 37.1158L11.4515 44.4303C11.4515 44.7635 11.5346 45.0053 11.7004 45.1555C11.8662 45.3056 12.1511 45.4052 12.5541 45.4542C12.8026 45.4813 12.927 45.5742 12.927 45.7328V45.733ZM20.4244 45.2499C20.4244 45.3649 20.2131 45.538 19.7905 45.7698C19.3675 46.002 19.029 46.1181 18.775 46.1181C18.5592 46.1181 18.3688 46.0145 18.203 45.8069C18.0372 45.5994 17.9208 45.4958 17.8547 45.4958C17.805 45.4958 17.5426 45.6078 17.0669 45.8313C16.5922 46.0554 16.1139 46.1675 15.6331 46.1675C15.1801 46.1675 14.8013 46.0362 14.4975 45.7746C14.1659 45.4849 14.0001 45.0917 14.0001 44.5946C14.0001 43.6499 15.0944 42.973 17.2829 42.5634C17.6583 42.4923 17.8494 42.3422 17.8545 42.1129L17.8714 41.5885C17.9047 40.6931 17.504 40.2455 16.6694 40.2455C16.4316 40.2455 16.2066 40.4554 15.9934 40.8758C15.7811 41.2967 15.4754 41.523 15.0776 41.5561C14.6246 41.5993 14.3978 41.4111 14.3978 40.9907C14.3978 40.7284 14.7351 40.4231 15.4092 40.0732C16.1167 39.7075 16.7966 39.5243 17.4487 39.5243C18.5703 39.5243 19.1257 40.0516 19.1147 41.1055L19.0813 44.4799C19.0762 44.8349 19.2282 45.0122 19.5373 45.0122C19.5983 45.0122 19.7145 44.9987 19.8855 44.9713C20.0571 44.9441 20.1567 44.9303 20.1844 44.9303C20.3444 44.9303 20.4244 45.0372 20.4244 45.2499ZM17.8714 43.3827C17.8771 43.246 17.8448 43.1555 17.7757 43.1124C17.7066 43.0687 17.598 43.06 17.4487 43.0874C16.1167 43.3223 15.4507 43.7511 15.4507 44.3735C15.4507 45.0015 15.7961 45.3154 16.4868 45.3154C16.7632 45.3154 17.0482 45.2637 17.3405 45.1602C17.6836 45.0396 17.8547 44.8952 17.8547 44.7256L17.8714 43.3826V43.3827ZM26.5874 44.3076C26.5874 44.8865 26.3616 45.3469 25.9116 45.688C25.4612 46.0294 24.8466 46.2 24.0671 46.2C23.5478 46.2 23.028 46.1455 22.5087 46.0362C22.0608 45.9378 21.8012 45.8479 21.7294 45.766C21.685 45.6891 21.6631 45.3156 21.6631 44.6437C21.6631 44.3543 21.7294 44.2039 21.8622 44.1932C21.9947 44.1767 22.1082 44.2479 22.202 44.406C22.6164 45.1215 23.2852 45.4794 24.2082 45.4794C24.9869 45.4794 25.3766 45.2114 25.3766 44.6761C25.3766 44.4418 25.2885 44.2449 25.1113 44.0867C24.9178 43.9065 24.5426 43.6962 23.9842 43.4559C23.1772 43.1011 22.6383 42.7899 22.3677 42.522C22.0746 42.2382 21.9283 41.856 21.9283 41.3752C21.9283 40.7853 22.1577 40.327 22.6164 39.9993C23.0418 39.6823 23.6111 39.5243 24.3237 39.5243C24.7716 39.5243 25.1804 39.5594 25.5511 39.6306C25.949 39.7017 26.1561 39.7888 26.1728 39.8928C26.2165 40.1983 26.3081 40.6408 26.4463 41.22C26.463 41.2905 26.3852 41.348 26.2143 41.3917C26.0317 41.4299 25.9103 41.3997 25.8493 41.3018C25.4129 40.597 24.8604 40.2449 24.1914 40.2449C23.4344 40.2449 23.0557 40.4852 23.0557 40.9657C23.0557 41.2335 23.1581 41.4462 23.3624 41.6044C23.545 41.741 23.9731 41.9542 24.6474 42.2438C25.3547 42.544 25.8355 42.8144 26.09 43.0545C26.4216 43.3656 26.5874 43.7837 26.5874 44.3076ZM36.3396 45.7411C36.3396 45.9322 36.2095 46.0334 35.9498 46.0442C35.5629 46.0498 35.0569 46.0771 34.433 46.1261C34.1233 46.1864 33.9022 46.1483 33.7698 46.0117C32.8965 45.0834 32.1557 44.1113 31.5477 43.0954C31.4982 43.0083 31.4348 42.9646 31.3572 42.9646C31.2633 42.9646 31.1005 43.0465 30.8685 43.2104C30.6083 43.3521 30.4788 43.5544 30.4788 43.816C30.4788 44.002 30.4839 44.2694 30.4954 44.6194C30.5065 44.9685 30.5945 45.1977 30.7603 45.307C30.8765 45.3838 31.1449 45.4436 31.5644 45.4874C31.8241 45.5203 31.9542 45.6158 31.9542 45.774C31.9542 45.8998 31.9335 45.9777 31.892 46.0072C31.8507 46.0373 31.7412 46.0442 31.5644 46.0278C31.0118 45.9789 30.0781 46.0061 28.7628 46.1097C28.4313 46.1369 28.2515 46.0959 28.2239 45.9867C28.213 45.9488 28.2072 45.894 28.2072 45.8229C28.2072 45.654 28.3759 45.5253 28.7134 45.4385C29.0172 45.3615 29.1691 45.0094 29.1691 44.3815V37.2223C29.1691 36.7747 29.125 36.4635 29.0361 36.2888C28.9147 36.0648 28.6602 35.89 28.2734 35.7644C28.0914 35.7047 28 35.6199 28 35.5106C28 35.3519 28.1301 35.2291 28.3896 35.1421C28.8073 35.004 29.2056 34.814 29.5749 34.5767C29.879 34.3804 30.0671 34.2819 30.1385 34.2819C30.3654 34.2819 30.4788 34.4236 30.4788 34.7081C30.4788 34.6694 30.4759 34.9402 30.4701 35.5188C30.4641 36.054 30.4615 36.5892 30.4621 37.1244L30.4788 42.2518C30.4788 42.394 30.5173 42.4645 30.5945 42.4645C30.6774 42.4645 30.8046 42.394 30.9761 42.2518C31.4348 41.8968 31.9985 41.4327 32.6669 40.8593C32.7998 40.7229 32.8659 40.6136 32.8659 40.5317C32.8659 40.3844 32.6421 40.2802 32.1948 40.2206C32.0014 40.1983 31.9099 40.092 31.9207 39.9008C31.9375 39.7097 32.0343 39.6278 32.2109 39.6551C32.6093 39.7099 33.1896 39.74 33.9517 39.7456C34.4825 39.7506 35.0103 39.7536 35.5354 39.7536C35.7063 39.7592 35.7922 39.8599 35.7922 40.0568C35.7922 40.2422 35.6568 40.3434 35.3862 40.36C34.9602 40.3759 34.5595 40.4714 34.1843 40.6466C33.6592 40.881 33.098 41.2933 32.5011 41.8833C32.4573 41.9162 32.4348 41.957 32.4348 42.0061C32.4348 42.0824 32.5287 42.2656 32.7169 42.555C33.4077 43.5926 34.0599 44.3759 34.673 44.9059C35.0656 45.2388 35.4328 45.4053 35.7754 45.4053C36.0299 45.4053 36.1874 45.423 36.2479 45.4587C36.309 45.4943 36.3396 45.5886 36.3396 45.7411Z" fill="black"/>
</svg>
