<svg width="34" height="46" viewBox="0 0 34 46" fill="none" xmlns="http://www.w3.org/2000/svg">
<path fill-rule="evenodd" clip-rule="evenodd" d="M0.42047 24.7268C0.496548 26.0582 1.82791 25.4496 2.43653 25.0311C3.00711 24.6127 3.19731 24.9551 3.23535 24.1562C3.27338 23.6237 3.31142 23.1292 3.31142 22.5967C2.43653 22.5206 1.48556 22.7108 0.76282 23.2433C0.42047 23.5096 -0.302268 24.3845 0.42047 24.7268Z" fill="#F6D2A2"/>
<path d="M1.14324 25.6772C0.876968 25.6772 0.382462 25.5631 0.306384 24.8023C0.0781513 24.6501 0.00207385 24.46 0.00207385 24.3458C-0.035965 23.8894 0.45854 23.3568 0.724812 23.1666C1.33343 22.7102 2.13225 22.4819 2.96911 22.4819H3.46361V22.596C3.50165 23.0145 3.46361 23.4329 3.42557 23.8133C3.42557 23.9274 3.42557 24.0415 3.38753 24.1556C3.34949 24.7262 3.23538 24.8023 2.96911 24.9164C2.85499 24.9545 2.74087 24.9925 2.55068 25.1447C2.36048 25.2588 1.71382 25.6772 1.14324 25.6772ZM2.96911 22.7102C2.17029 22.7102 1.44755 22.9384 0.876967 23.3568C0.610695 23.547 0.230307 24.0035 0.268346 24.3078C0.268346 24.4219 0.344423 24.536 0.496579 24.6121L0.572657 24.6501V24.7262C0.610696 25.3348 0.915007 25.4109 1.14324 25.4109C1.52363 25.4109 2.05617 25.1447 2.39852 24.9164C2.62676 24.7643 2.77891 24.7262 2.89303 24.6882C3.08322 24.6121 3.12126 24.6121 3.1593 24.1556C3.1593 24.0415 3.1593 23.9274 3.19734 23.8133C3.23538 23.4709 3.23538 23.0906 3.23538 22.7482C3.12126 22.7102 3.04518 22.7102 2.96911 22.7102Z" fill="black"/>
<path fill-rule="evenodd" clip-rule="evenodd" d="M0.420593 24.7272C0.610788 24.6511 0.839021 24.613 0.953137 24.4229L0.420593 24.7272Z" fill="#C6B198"/>
<path d="M0.420483 24.8403C0.382444 24.8403 0.306366 24.8023 0.306366 24.7642C0.268327 24.6881 0.306366 24.6121 0.382444 24.6121C0.420483 24.6121 0.458522 24.574 0.458522 24.574C0.610677 24.4979 0.762833 24.4599 0.83891 24.3458C0.876949 24.3077 0.953027 24.2697 1.0291 24.3077C1.06714 24.3458 1.10518 24.4219 1.06714 24.4979C0.914987 24.6881 0.724793 24.7642 0.572638 24.8023L0.49656 24.8403H0.420483Z" fill="black"/>
<path fill-rule="evenodd" clip-rule="evenodd" d="M3.53953 8.63659C-1.63376 7.19112 2.20817 0.610394 6.35441 3.31115L3.53953 8.63659Z" fill="#6AD7E5"/>
<path d="M3.61562 8.78818L3.5015 8.75014C0.838778 7.98936 0.876817 6.08742 0.952895 5.51684C1.14309 4.07136 2.51249 2.5498 4.33835 2.5498C5.06109 2.5498 5.74579 2.77804 6.43049 3.2345L6.54461 3.31058L3.61562 8.78818ZM4.33835 2.81608C2.6266 2.81608 1.37132 4.22351 1.18113 5.55487C0.990934 6.92427 1.82779 7.98936 3.46346 8.48387L6.16422 3.34862C5.59364 3.00627 4.98501 2.81608 4.33835 2.81608Z" fill="black"/>
<path fill-rule="evenodd" clip-rule="evenodd" d="M26.4773 2.81609C30.5475 -0.0368297 34.2753 6.42978 29.5204 8.06545L26.4773 2.81609Z" fill="#6AD7E5"/>
<path d="M29.4821 8.21782L26.3248 2.77826L26.4389 2.70218C27.1617 2.20768 27.8844 1.94141 28.6072 1.94141C30.3569 1.94141 31.6122 3.38688 31.8785 4.79432C31.9926 5.3649 32.1067 7.30489 29.5962 8.14174L29.4821 8.21782ZM26.6672 2.89238L29.5962 7.95155C31.0797 7.419 31.8405 6.27784 31.6122 4.90844C31.384 3.61512 30.2048 2.28376 28.6072 2.28376C27.9605 2.24572 27.3138 2.43591 26.6672 2.89238Z" fill="black"/>
<path fill-rule="evenodd" clip-rule="evenodd" d="M27.3899 41.3115C28.417 41.9582 30.3189 43.8982 28.7593 44.8491C27.2758 46.2185 26.439 43.3276 25.1076 42.9472C25.6782 42.1864 26.4009 41.4637 27.3899 41.3115Z" fill="#F6D2A2"/>
<path d="M27.9605 45.3435C27.3519 45.3435 26.8193 44.7349 26.3628 44.1643C25.9444 43.7078 25.526 43.2133 25.0695 43.0612L24.8793 43.0231L24.9934 42.871C25.4499 42.2243 26.2107 41.3875 27.3519 41.1973H27.3899L27.4279 41.2353C28.0746 41.6537 29.482 42.8329 29.444 43.9361C29.444 44.3545 29.2158 44.6968 28.7973 44.9631C28.5311 45.2294 28.2648 45.3435 27.9605 45.3435ZM25.2978 42.871C25.7542 43.0612 26.1346 43.5557 26.515 43.9741C26.9715 44.5447 27.4279 45.0392 27.9224 45.0392C28.1507 45.0392 28.3789 44.9251 28.6071 44.6968H28.6452C28.9875 44.4686 29.1777 44.2023 29.1777 43.86C29.1777 42.9851 28.0746 41.882 27.3138 41.3875C26.6291 41.5777 25.9444 42.0341 25.2978 42.871ZM28.7593 44.9631C28.7213 44.9631 28.6832 44.9251 28.6452 44.887C28.5691 44.7349 28.493 44.5447 28.455 44.3925C28.3409 44.0882 28.2268 43.7839 27.9985 43.5557C27.9605 43.5176 27.9605 43.4416 27.9985 43.3655C28.0366 43.3274 28.1126 43.3274 28.1887 43.3655C28.455 43.6318 28.6071 43.9741 28.7213 44.3165L28.9115 44.7729C28.9495 44.849 28.9115 44.9251 28.8734 44.9631H28.7593Z" fill="black"/>
<path fill-rule="evenodd" clip-rule="evenodd" d="M8.82692 43.5178C7.60967 43.708 6.92497 44.8111 5.89792 45.3817C4.94695 45.9523 4.56656 45.1915 4.49048 45.0393C4.33833 44.9632 4.33833 45.1154 4.1101 44.8872C3.2352 43.4797 5.02303 42.4527 5.974 41.768C7.30536 41.4637 8.14222 42.6048 8.82692 43.5178Z" fill="#F6D2A2"/>
<path d="M5.25131 45.6858C4.7568 45.6858 4.49053 45.2674 4.41445 45.1153H4.37641C4.2623 45.1153 4.18622 45.0772 4.03406 44.9251V44.887C3.19721 43.5557 4.64269 42.5286 5.59366 41.8439L5.93601 41.6157H6.01208C6.16424 41.5776 6.27836 41.5776 6.43051 41.5776C7.57168 41.5776 8.29442 42.5666 8.90304 43.3655L9.09323 43.6317L8.865 43.6698C8.14226 43.7839 7.60972 44.2404 7.07717 44.6968C6.73482 45.0011 6.39247 45.2674 6.01208 45.4956C5.70777 45.6098 5.47954 45.6858 5.25131 45.6858ZM4.41445 44.887C4.45249 44.887 4.49053 44.887 4.56661 44.9251H4.60465L4.64269 44.9631C4.71876 45.0772 4.90896 45.4196 5.28935 45.4196C5.47954 45.4196 5.66974 45.3435 5.85993 45.2294C6.24032 45.0392 6.58267 44.7349 6.88698 44.4686C7.38148 44.0502 7.91403 43.5937 8.59873 43.4035C8.02814 42.6427 7.34344 41.8059 6.39247 41.8059C6.27836 41.8059 6.16424 41.8059 6.05012 41.8439L5.74581 42.0721C4.7568 42.7568 3.53956 43.6317 4.2623 44.7729C4.30034 44.849 4.33837 44.887 4.41445 44.887ZM4.49053 45.1533C4.41445 45.1533 4.33837 45.0772 4.37641 45.0011C4.41445 44.6207 4.60465 44.3545 4.79484 44.0502C4.90896 43.898 4.98503 43.7459 5.06111 43.5937C5.09915 43.5176 5.17523 43.5176 5.21327 43.5176C5.28935 43.5557 5.28935 43.6317 5.28935 43.6698C5.21327 43.86 5.09915 44.0121 4.98503 44.1643C4.79484 44.4306 4.64268 44.6588 4.60465 44.9631C4.60465 45.1153 4.56661 45.1533 4.49053 45.1533Z" fill="black"/>
<path fill-rule="evenodd" clip-rule="evenodd" d="M3.7681 6.84828C3.0834 6.50593 2.5889 6.01143 3.00732 5.21261C3.38771 4.48987 4.11045 4.56595 4.79515 4.9083L3.7681 6.84828ZM28.4553 6.16358C29.14 5.82123 29.6345 5.32673 29.2161 4.52791C28.8357 3.80518 28.113 3.88125 27.4283 4.2236L28.4553 6.16358Z" fill="black"/>
<path fill-rule="evenodd" clip-rule="evenodd" d="M33.1336 24.5359C33.0576 25.8673 31.7262 25.2587 31.1176 24.8402C30.547 24.4218 30.3568 24.7641 30.3188 23.9653C30.2807 23.4328 30.2427 22.9383 30.2427 22.4057C31.1176 22.3297 32.0685 22.5199 32.7913 23.0524C33.1717 23.3567 33.8564 24.1936 33.1336 24.5359Z" fill="#F6D2A2"/>
<path d="M32.4493 25.4877C31.8787 25.4877 31.232 25.0693 31.0418 24.9552C30.8517 24.8411 30.7375 24.765 30.6234 24.727C30.3191 24.6129 30.243 24.5368 30.205 23.9662C30.205 23.8521 30.205 23.738 30.167 23.6238C30.1289 23.2435 30.0909 22.825 30.1289 22.4066V22.2925H30.6234C31.4603 22.2925 32.2591 22.5207 32.8677 22.9772C33.134 23.1674 33.6285 23.6999 33.5905 24.1564C33.5905 24.3085 33.5144 24.4987 33.2861 24.6129C33.2101 25.3736 32.7156 25.4877 32.4493 25.4877ZM30.3572 22.5588C30.3572 22.9011 30.3571 23.2815 30.3952 23.6238C30.3952 23.738 30.3952 23.8521 30.4332 23.9662C30.4713 24.4227 30.5093 24.4227 30.6995 24.4987C30.8136 24.5368 30.9658 24.6129 31.194 24.727C31.5364 24.9552 32.0689 25.2215 32.4493 25.2215C32.6775 25.2215 32.9818 25.1454 33.0199 24.5368V24.4607L33.0959 24.4227C33.2481 24.3466 33.3242 24.2705 33.3242 24.1183C33.3622 23.814 32.9818 23.3576 32.7156 23.1674C32.145 22.7489 31.3842 22.5207 30.6234 22.5207C30.5473 22.5588 30.4713 22.5588 30.3572 22.5588Z" fill="black"/>
<path fill-rule="evenodd" clip-rule="evenodd" d="M33.1337 24.5367C32.9435 24.4607 32.7153 24.4226 32.6012 24.2324L33.1337 24.5367Z" fill="#C6B198"/>
<path d="M33.134 24.6884H33.0959L33.0199 24.6504C32.8297 24.5743 32.6395 24.5362 32.5254 24.346C32.4873 24.308 32.4873 24.1939 32.5634 24.1558C32.6014 24.1178 32.7155 24.1178 32.7536 24.1939C32.8297 24.308 32.9818 24.346 33.134 24.4221C33.172 24.4221 33.2101 24.4602 33.2101 24.4602C33.2861 24.4982 33.3242 24.5743 33.2861 24.6123C33.2481 24.6504 33.172 24.6884 33.134 24.6884Z" fill="black"/>
<path fill-rule="evenodd" clip-rule="evenodd" d="M16.2827 0.115234C21.456 0.115234 26.2869 0.837973 28.8355 5.82106C31.1178 11.3747 30.281 17.3849 30.6614 23.2809C30.9657 28.3401 31.6123 34.16 29.292 38.8388C26.8194 43.7458 20.6571 45.0011 15.598 44.8109C11.6039 44.6587 6.811 43.3654 4.52867 39.7137C1.90398 35.4533 3.12123 29.1008 3.31142 24.346C3.53966 18.7162 1.78987 13.0484 3.65377 7.57085C5.51768 1.82698 10.691 0.533662 16.2827 0.115234Z" fill="#6AD7E5"/>
<path d="M16.473 44.9633H15.5221C13.9625 44.9253 11.6041 44.659 9.28369 43.708C7.0394 42.7951 5.40372 41.5018 4.33863 39.79C2.20846 36.3285 2.58885 31.5736 2.9312 27.3513C3.00727 26.2862 3.08335 25.2972 3.12139 24.3462C3.19747 22.3682 3.04531 20.3141 2.85512 18.3741C2.55081 14.7985 2.2465 11.1087 3.4257 7.53307C4.33864 4.87035 5.97431 2.96841 8.44683 1.75116C10.3868 0.800191 12.7833 0.267647 16.2068 0.001375C21.304 -0.0366639 26.3631 0.686074 28.9117 5.74524C30.5855 9.8154 30.5855 14.1899 30.6235 18.4122C30.6235 20.0098 30.6235 21.6455 30.7376 23.2431C30.7756 23.7376 30.8137 24.2321 30.8137 24.7266C31.118 29.3674 31.4603 34.6167 29.3302 38.8771C28.2651 41.0453 26.4012 42.6429 23.8526 43.67C21.7985 44.5068 19.2118 44.9633 16.473 44.9633ZM16.2828 0.229608C10.9194 0.648036 5.67 1.82724 3.73001 7.60915C2.55081 11.1468 2.85512 14.7985 3.15943 18.3361C3.31159 20.3141 3.50178 22.3302 3.4257 24.3462C3.38766 25.2972 3.31159 26.2862 3.23551 27.3513C2.89316 31.5356 2.51277 36.2524 4.60491 39.6379C5.4798 41.0453 8.29468 44.3927 15.5601 44.659H16.5111C24.9177 44.659 28.0368 40.9312 29.178 38.7249C31.2702 34.5407 30.9278 29.2913 30.6615 24.6886C30.6235 24.1941 30.5855 23.6996 30.5855 23.2051C30.5094 21.6074 30.4713 19.9718 30.4713 18.3741C30.4333 14.1899 30.4333 9.8154 28.7976 5.78328C27.6565 3.53899 25.9447 2.01743 23.5863 1.14254C21.1518 0.343725 18.413 0.229608 16.2828 0.229608Z" fill="black"/>
<path fill-rule="evenodd" clip-rule="evenodd" d="M17.1957 7.03864C18.1087 12.4402 26.9337 10.9947 25.6784 5.55513C24.5372 0.686153 16.8914 2.05555 17.1957 7.03864Z" fill="white"/>
<path d="M21.38 10.5759C19.6683 10.5759 17.5001 9.66293 17.0436 7.07629C16.9675 5.85904 17.3479 4.75592 18.1467 3.91906C19.0216 2.96809 20.353 2.43555 21.7224 2.43555C23.32 2.43555 25.2219 3.2724 25.7545 5.59277C26.0588 6.88609 25.8306 8.02726 25.1078 8.94019C24.309 9.9292 22.9016 10.5759 21.38 10.5759ZM17.3099 7.03825C17.5001 8.10334 17.9946 8.94019 18.7934 9.54881C19.4781 10.0814 20.429 10.3476 21.38 10.3476C22.7875 10.3476 24.1569 9.73901 24.9176 8.78804C25.6023 7.95118 25.7925 6.84805 25.5263 5.63081C25.0318 3.4626 23.2439 2.70182 21.7224 2.70182C20.429 2.70182 19.1738 3.23436 18.3369 4.10926C17.6142 4.87003 17.2338 5.89708 17.3099 7.03825Z" fill="black"/>
<path fill-rule="evenodd" clip-rule="evenodd" d="M6.65908 7.91297C7.87632 12.5917 15.37 11.4125 15.1037 6.69572C14.7614 1.06597 5.47987 2.13106 6.65908 7.91297Z" fill="white"/>
<path d="M10.6531 11.0324C9.01739 11.0324 7.11545 10.2335 6.50683 7.95121C6.24055 6.61985 6.50683 5.40261 7.2676 4.48968C8.10446 3.46263 9.47386 2.854 10.9574 2.854C12.9354 2.854 15.0275 4.03321 15.1797 6.69593C15.2558 7.79906 14.9134 8.78807 14.1526 9.58688C13.3538 10.4618 12.0225 11.0324 10.6531 11.0324ZM10.9574 3.12028C9.54994 3.12028 8.25661 3.69086 7.4578 4.64183C6.73506 5.51672 6.50683 6.61985 6.7731 7.87513C7.30564 10.0053 9.13151 10.7661 10.6531 10.7661C11.9464 10.7661 13.2017 10.2716 14.0005 9.39669C14.6852 8.67395 15.0275 7.72298 14.9515 6.69593C14.8754 5.06026 13.7723 3.12028 10.9574 3.12028Z" fill="black"/>
<path fill-rule="evenodd" clip-rule="evenodd" d="M18.2605 13.5048C18.2605 14.1895 18.4127 14.9883 18.2986 15.7491C18.1084 16.0914 17.766 16.1294 17.4617 16.2436C17.0433 16.1675 16.701 15.9012 16.5108 15.5208C16.3966 14.684 16.5488 13.8471 16.5868 13.0103L18.2605 13.5048Z" fill="white"/>
<path d="M17.4621 16.3961C16.9676 16.32 16.5872 16.0157 16.397 15.5972C16.3209 14.9886 16.359 14.418 16.397 13.8475C16.4351 13.5812 16.4351 13.3149 16.4351 13.0486V12.8965L18.375 13.5051V13.5812C18.375 13.8094 18.4131 14.0377 18.4131 14.3039C18.4511 14.7984 18.4892 15.331 18.4131 15.8255V15.8635C18.2609 16.1678 17.9946 16.2439 17.7284 16.358C17.6523 16.32 17.5762 16.358 17.4621 16.3961ZM16.6252 15.4831C16.7774 15.8255 17.0817 16.0537 17.4241 16.1298C17.5001 16.0917 17.5762 16.0918 17.6143 16.0537C17.8425 15.9776 18.0327 15.9016 18.1468 15.7114C18.2229 15.2549 18.1848 14.7604 18.1468 14.2659C18.1468 14.0377 18.1088 13.8094 18.1088 13.6192L16.6633 13.1628C16.6633 13.391 16.6252 13.6192 16.6252 13.8094C16.5872 14.418 16.5492 14.9506 16.6252 15.4831Z" fill="black"/>
<path fill-rule="evenodd" clip-rule="evenodd" d="M10.0062 7.15309C10.0062 7.91387 9.43559 8.52249 8.75089 8.52249C8.06619 8.52249 7.49561 7.91387 7.49561 7.15309C7.49561 6.39231 8.06619 5.78369 8.75089 5.78369C9.43559 5.78369 10.0062 6.39231 10.0062 7.15309Z" fill="black"/>
<path fill-rule="evenodd" clip-rule="evenodd" d="M9.58787 7.45661C9.58787 7.6468 9.43572 7.79896 9.28356 7.79896C9.1314 7.79896 8.97925 7.6468 8.97925 7.45661C8.97925 7.26641 9.1314 7.11426 9.28356 7.11426C9.47375 7.11426 9.58787 7.26641 9.58787 7.45661Z" fill="white"/>
<path fill-rule="evenodd" clip-rule="evenodd" d="M20.619 6.80983C20.619 7.57061 20.0484 8.17923 19.3637 8.17923C18.679 8.17923 18.1085 7.57061 18.1085 6.80983C18.1085 6.04905 18.679 5.44043 19.3637 5.44043C20.0484 5.44043 20.619 6.04905 20.619 6.80983Z" fill="black"/>
<path fill-rule="evenodd" clip-rule="evenodd" d="M20.2386 7.11481C20.2386 7.305 20.1245 7.45716 19.9343 7.45716C19.7821 7.45716 19.63 7.305 19.63 7.11481C19.63 6.92462 19.7441 6.77246 19.9343 6.77246C20.0865 6.77246 20.2386 6.92462 20.2386 7.11481ZM14.6089 13.4293C14.0383 14.7606 14.9132 17.4614 16.4347 15.4834C16.3206 14.6465 16.4728 13.8096 16.5108 12.9728L14.6089 13.4293Z" fill="white"/>
<path d="M15.4078 16.3198C15.1416 16.3198 14.8753 16.1677 14.6851 15.8634C14.2667 15.2548 14.1906 14.1136 14.4949 13.3908L14.533 13.3148L16.6251 12.7822V12.9344L16.587 13.7712C16.549 14.3418 16.511 14.8744 16.587 15.4449V15.483L16.549 15.521C16.1686 16.0536 15.7882 16.3198 15.4078 16.3198ZM14.7231 13.543C14.4949 14.1897 14.571 15.2167 14.9133 15.7112C15.0655 15.9395 15.2177 16.0536 15.4078 16.0536C15.6741 16.0536 15.9784 15.8253 16.2827 15.4449C16.2067 14.8744 16.2447 14.3038 16.3208 13.7712L16.3588 13.1246L14.7231 13.543Z" fill="black"/>
<path fill-rule="evenodd" clip-rule="evenodd" d="M14.7993 10.8421C13.7723 10.9182 12.9354 12.1735 13.468 13.1244C14.1907 14.4178 15.7503 13.0103 16.7393 13.1244C17.8805 13.1625 18.7934 14.3417 19.7064 13.3527C20.7334 12.2495 19.2499 11.1844 18.1468 10.6899L14.7993 10.8421Z" fill="#F6D2A2"/>
<path d="M18.9072 13.8851C18.5648 13.8851 18.2225 13.7329 17.8801 13.5808C17.5378 13.4286 17.1574 13.2764 16.739 13.2764H16.6249C16.3205 13.2764 15.9782 13.3906 15.5978 13.5427C15.1794 13.6949 14.761 13.809 14.3806 13.809C13.9241 13.809 13.5817 13.6188 13.3535 13.2004C13.0872 12.7439 13.1253 12.2114 13.3916 11.7168C13.6959 11.1463 14.2284 10.8039 14.799 10.7278L18.1845 10.5757H18.2225C19.0593 10.918 20.0103 11.5647 20.2005 12.3255C20.2766 12.7059 20.1625 13.0862 19.8582 13.4286C19.5538 13.7709 19.2495 13.8851 18.9072 13.8851ZM16.777 13.0482C17.1954 13.0482 17.6139 13.2384 17.9943 13.3906C18.3366 13.5427 18.6409 13.6568 18.9452 13.6568C19.2115 13.6568 19.4397 13.5427 19.668 13.3145C19.9342 13.0482 20.0103 12.7439 19.9723 12.4396C19.8201 11.7929 18.9072 11.1843 18.1845 10.88L14.8751 11.0322C14.3806 11.0702 13.9241 11.4125 13.6578 11.869C13.4296 12.2874 13.4296 12.7439 13.6198 13.1243C13.81 13.4666 14.0382 13.6188 14.4186 13.6188C14.761 13.6188 15.1413 13.4666 15.5217 13.3525C15.9402 13.2004 16.2825 13.0862 16.6629 13.0862C16.6629 13.0102 16.7009 13.0102 16.777 13.0482Z" fill="#231F20"/>
<path fill-rule="evenodd" clip-rule="evenodd" d="M14.685 10.8045C14.6089 9.01668 18.0324 8.78844 18.4128 10.272C18.8313 11.7935 14.8372 12.1359 14.685 10.8045Z" fill="black"/>
</svg>
