<svg width="30" height="35" viewBox="0 0 30 35" fill="none" xmlns="http://www.w3.org/2000/svg">
<path d="M2.72727 31.4453L0 0H30L27.2727 31.4453L14.9667 35" fill="#E34F26"/>
<path d="M15.0331 32.2651L24.9444 29.4624L27.2726 2.52881H15.0331" fill="#EF652A"/>
<path d="M15.0332 14.2183H10.0443L9.71169 10.2534H15.0332V6.42529H5.58752L6.58531 18.1147H15.0332V14.2183ZM14.9667 24.2671L10.776 23.105L10.5099 20.0288H6.78486L7.2505 26.1128L14.9667 28.3003V24.2671Z" fill="#EBEBEB"/>
<path d="M14.9667 14.2183V18.1147H19.6231L19.1574 23.105L14.9667 24.2671V28.3003L22.6829 26.1128L23.7472 14.2183H14.9667ZM14.9667 6.42529V10.2534H24.0798L24.4124 6.42529H14.9667Z" fill="white"/>
</svg>
