<svg width="41" height="41" viewBox="0 0 41 41" fill="none" xmlns="http://www.w3.org/2000/svg">
<path d="M20.3357 28.607C24.9168 28.607 28.6306 24.8932 28.6306 20.312C28.6306 15.7309 24.9168 12.0171 20.3357 12.0171C15.7545 12.0171 12.0407 15.7309 12.0407 20.312C12.0407 24.8932 15.7545 28.607 20.3357 28.607Z" fill="#4E8EF7"/>
<path d="M37.2633 6.23704C37.2641 5.68999 37.1074 5.15428 36.8119 4.69391C36.5164 4.23354 36.0946 3.86799 35.5969 3.64093C35.0992 3.41388 34.5467 3.33493 34.0053 3.41351C33.4639 3.49209 32.9566 3.72488 32.544 4.08407C28.434 0.991421 23.3042 -0.427826 18.189 0.112504C13.0739 0.652833 8.35382 3.11254 4.98065 6.99566C1.60748 10.8788 -0.16789 15.8965 0.0125161 21.0369C0.192922 26.1774 2.31569 31.0582 5.95278 34.6953C9.58987 38.3324 14.4707 40.4552 19.6112 40.6356C24.7517 40.816 29.7693 39.0406 33.6524 35.6675C37.5356 32.2943 39.9953 27.5742 40.5356 22.4591C41.0759 17.3439 39.6567 12.2141 36.564 8.10409C37.0152 7.58677 37.2637 6.92347 37.2633 6.23704ZM20.3358 39.9474C17.2249 39.9499 14.1579 39.2132 11.3875 37.798C8.61713 36.3828 6.22266 34.3296 4.40139 31.8075C2.58011 29.2855 1.38417 26.3668 0.912098 23.2919C0.440023 20.217 0.705328 17.0739 1.68615 14.1217C2.66698 11.1694 4.33525 8.49245 6.55351 6.31136C8.77178 4.13028 11.4765 2.50749 14.445 1.5767C17.4134 0.645906 20.5605 0.433759 23.6269 0.957734C26.6934 1.48171 29.5915 2.72681 32.0824 4.59045C31.6932 5.13917 31.5107 5.80792 31.5673 6.47827C31.6239 7.14863 31.9159 7.77733 32.3916 8.25303C32.8673 8.72872 33.496 9.02073 34.1664 9.07732C34.8367 9.13392 35.5055 8.95145 36.0542 8.56224C38.2337 11.4802 39.5587 14.9469 39.881 18.5747C40.2033 22.2025 39.5103 25.8484 37.8793 29.1049C36.2484 32.3614 33.7438 35.1001 30.6457 37.0149C27.5476 38.9296 23.9779 39.945 20.3358 39.9474Z" fill="#4E8EF7"/>
</svg>
