<svg width="34" height="34" viewBox="0 0 34 34" fill="none" xmlns="http://www.w3.org/2000/svg">
<path d="M33.5999 0H16.8699L0.894531 16.8H16.7705L16.8447 16.7244L33.5999 0Z" fill="url(#paint0_linear_311_2507)"/>
<path d="M33.6001 33.5997H6.10352e-05H33.6001ZM16.8449 16.7241L16.7707 16.7997H16.9205L16.8449 16.7241Z" fill="url(#paint1_linear_311_2507)"/>
<path d="M16.87 0H0V17.7408V16.8H0.8946L16.87 0Z" fill="url(#paint2_linear_311_2507)"/>
<path d="M16.7707 16.7998H0.894661L6.10352e-05 17.7406V33.5998L16.7707 16.7998Z" fill="url(#paint3_linear_311_2507)"/>
<path d="M16.9205 16.7998H16.7707L6.10352e-05 33.5998H33.6001L16.9205 16.7998Z" fill="url(#paint4_linear_311_2507)"/>
<path d="M0.894661 16.7998H6.10352e-05V17.7406L0.894661 16.7998Z" fill="url(#paint5_linear_311_2507)"/>
<defs>
<linearGradient id="paint0_linear_311_2507" x1="-5.99699" y1="30.7058" x2="25.2696" y2="-0.560786" gradientUnits="userSpaceOnUse">
<stop stop-color="#C757BC"/>
<stop offset="0.108" stop-color="#C757BC"/>
<stop offset="0.173" stop-color="#CD5CA9"/>
<stop offset="0.492" stop-color="#E8744F"/>
<stop offset="0.716" stop-color="#F88316"/>
<stop offset="0.823" stop-color="#FF8900"/>
<stop offset="1" stop-color="#FF8900"/>
</linearGradient>
<linearGradient id="paint1_linear_311_2507" x1="10.8542" y1="39.6521" x2="26.094" y2="24.4122" gradientUnits="userSpaceOnUse">
<stop stop-color="#00AFFF"/>
<stop offset="0.296" stop-color="#00AFFF"/>
<stop offset="0.694" stop-color="#5282FF"/>
<stop offset="1" stop-color="#945DFF"/>
</linearGradient>
<linearGradient id="paint2_linear_311_2507" x1="-0.354365" y1="9.28577" x2="10.3366" y2="-1.40548" gradientUnits="userSpaceOnUse">
<stop stop-color="#00AFFF"/>
<stop offset="0.296" stop-color="#00AFFF"/>
<stop offset="0.694" stop-color="#5282FF"/>
<stop offset="1" stop-color="#945DFF"/>
</linearGradient>
<linearGradient id="paint3_linear_311_2507" x1="-5.80926" y1="30.8932" x2="25.4573" y2="-0.373383" gradientUnits="userSpaceOnUse">
<stop stop-color="#AD4CA4"/>
<stop offset="0.108" stop-color="#AD4CA4"/>
<stop offset="0.173" stop-color="#B25093"/>
<stop offset="0.492" stop-color="#CA6545"/>
<stop offset="0.716" stop-color="#D87213"/>
<stop offset="0.823" stop-color="#DE7700"/>
<stop offset="1" stop-color="#DE7700"/>
</linearGradient>
<linearGradient id="paint4_linear_311_2507" x1="10.8542" y1="39.6522" x2="26.094" y2="24.4123" gradientUnits="userSpaceOnUse">
<stop stop-color="#0098DE"/>
<stop offset="0.296" stop-color="#0098DE"/>
<stop offset="0.694" stop-color="#4771DE"/>
<stop offset="1" stop-color="#8151DE"/>
</linearGradient>
<linearGradient id="paint5_linear_311_2507" x1="3.84735" y1="13.4871" x2="14.5383" y2="2.79588" gradientUnits="userSpaceOnUse">
<stop stop-color="#0098DE"/>
<stop offset="0.296" stop-color="#0098DE"/>
<stop offset="0.694" stop-color="#4771DE"/>
<stop offset="1" stop-color="#8151DE"/>
</linearGradient>
</defs>
</svg>
