<svg width="60" height="60" viewBox="0 0 60 60" fill="none" xmlns="http://www.w3.org/2000/svg">
<path d="M53.8592 28.7433L48.2134 21.7463C47.4068 20.8044 47.138 20.9389 46.6003 21.0735L39.7447 22.15C39.0726 22.2845 38.6693 22.5536 39.0726 23.0919L44.0462 30.0889L29.1252 33.722L17.2958 13.9419C16.8926 13.2691 16.7582 13 15.6828 13L5.8698 13.8074C5.3321 13.8074 4.65998 14.0765 5.19768 15.5566L15.4139 37.4896C15.6828 38.0279 16.3549 39.1043 17.968 38.7007L28.1842 36.0095L33.6956 45.6977C34.5021 46.9087 35.0398 46.6396 36.3841 46.3705L52.2461 40.5845C52.9182 40.3154 53.3215 40.1808 52.9182 39.508L46.8692 31.2999L53.4559 29.5507C54.1281 29.4161 54.1281 29.0125 53.7248 28.7433H53.8592ZM26.84 34.2602L17.968 36.4132L17.4303 36.2786C14.1468 29.2289 10.831 22.187 7.48289 15.1529L15.5483 14.3456C19.3113 20.9395 23.0752 27.5328 26.84 34.1257V34.2602ZM50.3642 38.7007C50.4986 38.8352 50.633 38.9698 50.2298 39.1043L35.8464 43.9484C35.5775 44.083 35.3087 44.083 35.0398 43.6793L30.2006 35.4713L44.7184 31.7036C45.1216 31.5691 45.1216 31.5691 45.3905 31.8382L50.3642 38.7007ZM51.1707 28.3397L45.6593 29.6852L41.2233 23.7647C41.0889 23.6301 40.9545 23.4956 41.3578 23.361L46.7347 22.4191C47.0036 22.4191 47.2724 22.2845 47.5413 22.6882L51.7084 27.936C51.8428 28.2051 51.574 28.3397 51.1707 28.3397Z" fill="#FB503B"/>
</svg>
