<svg width="35" height="35" viewBox="0 0 35 35" fill="none" xmlns="http://www.w3.org/2000/svg">
<path d="M20.5069 0C20.2269 0 20.017 0.0699895 19.807 0.139979C20.2969 0.419937 20.5069 0.839873 20.6469 1.3298C20.6469 1.39979 20.6469 1.46978 20.7169 1.46978C20.7169 1.53977 20.7169 1.60976 20.7169 1.60976C20.7869 2.37964 20.5069 2.51962 20.3669 2.93956C20.087 3.56946 20.157 4.19937 20.5069 4.68929C20.5069 4.75928 20.5769 4.82927 20.6469 4.89926C20.2969 2.58961 22.1866 2.23966 22.5366 1.53977C22.5366 0.909863 22.0467 0.489926 21.6267 0.209968C21.2068 0.0699894 20.8568 0 20.5069 0ZM23.3765 0.489926C23.3065 0.699894 23.3765 0.629905 23.3765 0.769884C23.3765 0.839873 23.3765 0.909863 23.3765 0.979852C23.3765 1.04984 23.3065 1.11983 23.3065 1.18982C23.3065 1.25981 23.2365 1.3298 23.2365 1.39979C23.1665 1.46978 23.1665 1.53977 23.1665 1.60976C23.1665 1.67975 23.0965 1.67975 23.0965 1.74974L23.0265 1.81973C22.9565 1.88971 22.9565 1.9597 22.8865 2.02969C22.8166 2.09968 22.8166 2.16967 22.7466 2.16967C22.6766 2.23966 22.6066 2.23966 22.6066 2.30965C22.3966 2.44963 22.1866 2.58961 21.9767 2.72959C21.9067 2.79958 21.8367 2.79958 21.7667 2.86957C21.6967 2.93956 21.6267 2.93956 21.6267 3.00955C21.5567 3.07953 21.4868 3.14952 21.4868 3.14952C21.4168 3.21951 21.4168 3.2895 21.3468 3.35949C21.2768 3.42948 21.2768 3.49947 21.2068 3.56946C21.1368 3.63945 21.1368 3.70944 21.1368 3.77943C21.1368 3.84942 21.0668 3.91941 21.0668 3.9894C21.0668 4.05939 20.9968 4.12938 20.9968 4.19937C20.9968 4.26935 20.9968 4.26935 20.9968 4.33934C20.9968 4.40933 20.9968 4.40933 20.9968 4.47932C20.9968 4.54931 20.9968 4.6193 20.9968 4.68929C20.9968 4.75928 20.9968 4.82927 20.9968 4.82927C20.9968 4.89926 20.9968 4.96925 20.9968 5.03924C20.9968 5.10923 20.9968 5.17922 21.0668 5.24921C21.0668 5.3192 21.1368 5.38919 21.1368 5.45918C21.1368 5.52916 21.2068 5.52916 21.2068 5.59915L19.1071 4.82927C18.7572 4.75928 18.4072 4.6193 18.0573 4.54931C17.8473 4.47932 17.7073 4.47932 17.4974 4.40933C16.9374 4.26935 16.3775 4.19937 15.8176 4.19937C15.8176 4.19937 15.8176 4.19937 15.7476 4.19937C15.1877 4.12938 14.6978 4.12938 14.1379 4.12938C13.7179 4.12938 13.368 4.12938 12.948 4.19937C12.3881 4.26935 11.8282 4.33934 11.2683 4.40933C11.1283 4.40933 10.9883 4.47932 10.8484 4.47932C10.5684 4.54931 10.2884 4.6193 10.0085 4.68929C9.86851 4.75928 9.72853 4.75928 9.58855 4.82927C9.44857 4.89926 9.30859 4.96925 9.16862 4.96925C9.09863 5.03924 8.95865 5.03924 8.88866 5.10923H8.81867C8.74868 5.17922 8.67869 5.17922 8.53871 5.24921H8.46872C8.39873 5.3192 8.25875 5.3192 8.18876 5.38919C8.11877 5.38919 8.04878 5.45918 7.97879 5.45918L7.90881 5.52916C7.83882 5.59915 7.76883 5.59915 7.69884 5.66914C7.69884 5.59915 7.62885 5.66914 7.55886 5.66914C7.48887 5.73913 7.41888 5.73913 7.34889 5.80912C7.2789 5.87911 7.20891 5.87911 7.20891 5.9491C7.13892 6.01909 7.13892 6.01909 7.06893 6.08908C7.06893 6.08908 6.99894 6.08908 6.99894 6.15907C6.92895 6.22906 6.92895 6.22906 6.85896 6.29905C6.85896 6.29905 6.85896 6.29905 6.78897 6.36904C6.71898 6.43903 6.649 6.43903 6.649 6.50902C6.57901 6.57901 6.50902 6.57901 6.50902 6.649C6.43903 6.71898 6.43903 6.71898 6.36904 6.78897L6.29905 6.85896C6.22906 6.92895 6.22906 6.99894 6.15907 6.99894C6.15907 6.99894 6.15907 6.99894 6.08908 7.06893C6.01909 7.13892 5.9491 7.20891 5.87911 7.2789C5.73913 7.41888 5.59915 7.55886 5.38919 7.69884C5.24921 7.83882 5.03924 7.97879 4.89926 8.11877C4.68929 8.25875 4.54931 8.32874 4.33934 8.46872C4.12938 8.53871 3.9894 8.67869 3.77943 8.74868C3.56946 8.81867 3.35949 8.88866 3.21951 8.95865C2.86957 9.02864 2.44963 9.16861 2.09968 9.2386C2.02969 9.2386 1.9597 9.2386 1.88971 9.2386C1.81973 9.2386 1.74974 9.30859 1.67975 9.30859C1.60976 9.30859 1.53977 9.37858 1.46978 9.37858C1.39979 9.37858 1.3298 9.44857 1.25981 9.44857C1.18982 9.51856 1.11983 9.51856 1.04984 9.58855C0.979852 9.65854 0.909863 9.65854 0.839873 9.72853C0.769884 9.79852 0.699894 9.86851 0.629905 9.86851C0.559915 9.9385 0.489926 10.0085 0.489926 10.0785C0.419937 10.1485 0.419937 10.2185 0.349947 10.2884C0.279958 10.3584 0.279958 10.4284 0.209968 10.4984C0.139979 10.5684 0.139979 10.6384 0.139979 10.7084C0.139979 10.7784 0.0699894 10.8484 0.0699894 10.9184C0.0699894 10.9883 0 11.0583 0 11.1283C0 11.1983 0 11.3383 0 11.3383C0 11.4083 0 11.4783 0 11.5483C0 11.6182 0 11.6182 0 11.6882C0 11.7582 1.56439e-08 11.8282 0.0699894 11.8282C0.0699894 11.8982 0.139979 11.9682 0.139979 11.9682C0.139979 12.0382 0.209968 12.1082 0.209968 12.1082C0.279958 12.1782 0.279958 12.2481 0.349947 12.2481C0.419937 12.3181 0.419937 12.3181 0.489926 12.3881C0.559915 12.4581 0.629905 12.4581 0.629905 12.5281C0.839873 12.7381 0.909863 12.8081 1.18982 12.948C1.25981 12.948 1.25981 13.018 1.3298 13.018C1.3298 13.018 1.3298 13.018 1.3298 13.088C1.3298 13.158 1.3298 13.228 1.39979 13.298C1.39979 13.368 1.46978 13.438 1.46978 13.508C1.46978 13.5779 1.53977 13.6479 1.53977 13.6479V13.7179C1.60976 13.7879 1.60976 13.8579 1.67975 13.9279C1.74974 13.9979 1.74974 14.0679 1.81973 14.1379C1.88971 14.2079 1.88971 14.2778 1.9597 14.2778C2.02969 14.3478 2.09968 14.3478 2.09968 14.4178C2.16967 14.4878 2.23966 14.4878 2.23966 14.5578C2.30965 14.6278 2.37964 14.6278 2.44963 14.6978C2.51962 14.7678 2.58961 14.7678 2.6596 14.7678C2.72959 14.7678 2.79958 14.8378 2.86957 14.8378C2.86957 14.8378 2.86957 14.8378 2.93956 14.8378C3.00955 14.8378 3.00955 14.8378 3.07953 14.8378C3.07953 15.3277 3.00955 15.8176 3.14952 15.9576C3.21951 16.1676 3.63945 15.6076 4.05939 14.9777C3.9894 15.6076 3.9894 16.3075 4.05939 16.5175C4.12938 16.7275 4.68929 16.0276 5.17922 15.2577C11.6182 13.7879 17.4274 18.1973 18.0573 24.4263C17.9173 23.4465 16.7275 22.8865 16.1676 23.0265C15.8876 23.7264 15.4677 24.5663 14.6978 25.0562C14.7678 24.4263 14.7678 23.8664 14.6278 23.2365C14.4178 24.0764 14.0679 24.8462 13.508 25.5461C12.6681 25.6161 11.7582 25.1962 11.3383 24.5663C11.2683 24.5663 11.2683 24.4963 11.2683 24.4263C11.2683 24.3563 11.1983 24.2863 11.1983 24.2163C11.1983 24.1464 11.1283 24.0764 11.1283 24.0064C11.1283 23.9364 11.1283 23.8664 11.1283 23.7964C11.1283 23.7264 11.1283 23.7264 11.1283 23.6564C11.1283 23.5864 11.1283 23.5164 11.1983 23.4465C11.1983 23.3765 11.2683 23.3065 11.2683 23.2365C11.3383 23.1665 11.3383 23.0965 11.4083 23.0265C11.5483 22.6066 11.5483 22.2566 11.2683 22.0467C11.1983 21.9767 11.1283 21.9767 11.1283 21.9767C11.0583 21.9767 11.0583 21.9767 10.9883 21.9067H10.9184C10.8484 21.9067 10.7784 21.8367 10.7084 21.8367C10.6384 21.8367 10.5684 21.8367 10.4984 21.8367C10.4284 21.8367 10.3584 21.8367 10.2884 21.8367C10.2185 21.8367 10.2185 21.8367 10.1485 21.8367C10.0785 21.8367 10.0085 21.8367 9.9385 21.8367C9.86851 21.8367 9.79852 21.8367 9.72853 21.9067C9.65854 21.9067 9.58855 21.9767 9.51856 21.9767C9.44857 21.9767 9.37858 22.0467 9.30859 22.0467C9.2386 22.0467 9.16862 22.1167 9.16862 22.1167C7.06893 23.5164 8.32874 26.736 9.72853 27.6458C9.16861 27.7158 8.6087 27.8558 8.46872 27.9958C8.88866 28.2057 9.2386 28.4157 9.65854 28.6257C10.2185 28.8356 10.8484 28.9756 11.1283 29.0456C11.8982 29.1856 12.6681 29.2556 13.438 29.1856C17.4274 28.9056 20.7169 25.8261 21.3468 21.8367C21.3468 21.9067 21.4168 21.9767 21.4168 22.0467C21.4168 22.1866 21.4868 22.3966 21.4868 22.5366C21.4868 22.6066 21.4868 22.6766 21.5567 22.7466C21.5567 22.7466 21.5567 22.7466 21.5567 22.8166C21.5567 22.8865 21.5567 22.9565 21.5567 23.0265C21.5567 23.0965 21.5567 23.2365 21.5567 23.3065C21.5567 23.3765 21.5567 23.3765 21.5567 23.4465C21.5567 23.5164 21.5567 23.5164 21.5567 23.5864C21.5567 23.6564 21.5567 23.7264 21.5567 23.7264C21.5567 23.7964 21.5567 23.7964 21.5567 23.8664C21.5567 23.9364 21.5567 24.0064 21.5567 24.0764C21.5567 24.1464 21.5567 24.1464 21.5567 24.2163C21.5567 24.2863 21.5567 24.3563 21.5567 24.4263V24.4963C21.5567 24.5663 21.5567 24.6363 21.5567 24.7063V24.7763C21.5567 24.8462 21.5567 24.9162 21.4868 25.0562C21.4868 25.1262 21.4168 25.1962 21.4168 25.3362C21.4168 25.4062 21.3468 25.4762 21.3468 25.5461C21.3468 25.5461 21.3468 25.5461 21.3468 25.6161C21.3468 25.6861 21.2768 25.7561 21.2768 25.8261C21.2768 25.8961 21.2068 25.9661 21.2068 26.1061C21.2068 26.176 21.1368 26.316 21.1368 26.386C21.0668 26.456 21.0668 26.526 21.0668 26.666C20.9968 26.736 20.9968 26.8759 20.9968 26.9459C20.9268 27.0159 20.9268 27.0859 20.8568 27.2259C20.7869 27.2959 20.7869 27.3659 20.7169 27.5058V27.5758C20.157 28.7657 19.2471 29.8155 18.1973 30.5854C18.1273 30.6554 18.0573 30.6554 17.9873 30.7254C17.9873 30.7254 17.9173 30.7254 17.9173 30.7953C17.8473 30.8653 17.7773 30.8653 17.7073 30.9353V31.0053C17.8473 31.0053 17.9873 30.9353 18.0573 30.9353C18.2672 30.8653 18.5472 30.8653 18.7572 30.7953C18.8272 30.7953 18.8971 30.7953 18.9671 30.7254C19.0371 30.7254 19.0371 30.7254 19.1071 30.7254C19.1771 30.7254 19.2471 30.7254 19.3171 30.6554C19.3871 30.6554 19.4571 30.6554 19.4571 30.5854C20.3669 30.3754 21.2068 30.0955 22.0467 29.7455C20.5769 31.7052 18.6872 33.315 16.4475 34.2948C17.4974 34.2248 18.5472 34.0849 19.5271 33.7349C23.1665 32.6851 26.246 30.2354 28.0658 26.9459C27.7158 29.0456 26.8759 31.0053 25.6161 32.7551C26.526 32.1951 27.2959 31.4952 27.9958 30.7254C30.0255 28.6257 31.3553 25.8961 31.7752 23.0265C32.0552 24.4263 32.1951 25.8961 32.0552 27.3659C38.5642 18.2672 32.6151 8.81867 30.0955 6.36904C30.0955 6.36904 30.0955 6.36904 30.0955 6.29905C30.0955 6.43903 30.0955 6.50902 30.0955 6.649C30.0955 6.85896 30.0255 7.06893 30.0255 7.2789C29.9555 7.48887 29.9555 7.69884 29.8855 7.90881C29.8155 8.11877 29.7455 8.32874 29.6755 8.46872C29.6055 8.67869 29.5355 8.81867 29.3956 9.02864C29.3256 9.16861 29.1856 9.37858 29.0456 9.51856C28.9056 9.65854 28.8356 9.86851 28.6957 10.0085C28.5557 10.1485 28.4157 10.2884 28.2757 10.4284C28.2057 10.4984 28.1357 10.5684 27.9958 10.6384C27.9258 10.7084 27.8558 10.7784 27.7858 10.8484C27.6458 10.9883 27.4359 11.0583 27.2959 11.1983C27.1559 11.3383 26.9459 11.4083 26.736 11.4783C26.526 11.5483 26.386 11.6182 26.176 11.7582C25.9661 11.8282 25.7561 11.8982 25.6161 11.9682C25.4062 12.0382 25.1962 12.0382 24.9862 12.1082C24.7763 12.1782 24.5663 12.1782 24.3563 12.1782C24.2163 12.1782 24.0764 12.1782 23.9364 12.1782C23.7264 12.1782 23.5164 12.1782 23.3065 12.1082C23.0965 12.1082 22.8865 12.0382 22.6766 12.0382C22.4666 11.9682 22.2566 11.9682 22.0467 11.8982C22.2566 11.8982 22.4666 11.8282 22.6766 11.8282C22.8865 11.7582 23.0965 11.7582 23.3065 11.6882C23.5164 11.6182 23.7264 11.5483 23.8664 11.4783C24.0764 11.4083 24.2863 11.3383 24.4263 11.1983C24.6363 11.1283 24.7763 10.9883 24.9862 10.9184C25.1262 10.7784 25.3362 10.7084 25.4762 10.5684C25.6161 10.4284 25.8261 10.2884 25.9661 10.1485C26.1061 10.0085 26.246 9.86851 26.386 9.72853C26.526 9.58855 26.666 9.37858 26.736 9.2386L26.806 9.16862C26.8759 9.02864 27.0159 8.88866 27.0859 8.74868C27.1559 8.53871 27.2959 8.39873 27.3659 8.18876C27.4359 7.97879 27.5058 7.83882 27.5758 7.62885C27.6458 7.41888 27.7158 7.20891 27.7158 7.06893C27.7858 6.85896 27.7858 6.649 27.7858 6.43903C27.7858 6.22906 27.8558 6.01909 27.8558 5.80912C27.8558 5.66914 27.8558 5.52916 27.8558 5.38919C27.8558 5.17922 27.7858 4.96925 27.7858 4.75928C27.7158 4.54931 27.7158 4.33934 27.6458 4.12938C27.5758 3.91941 27.5058 3.70944 27.4359 3.56946C27.3659 3.35949 27.2959 3.21951 27.1559 3.00955C27.0859 2.79958 26.9459 2.6596 26.8759 2.44963C26.736 2.30965 26.666 2.09968 26.526 1.9597C26.386 1.81973 26.246 1.67975 26.1061 1.46978C26.0361 1.39979 25.9661 1.3298 25.8961 1.25981C25.4762 0.909863 25.0562 0.629905 24.6363 0.349947C24.5663 0.279958 24.4963 0.279958 24.4263 0.279958C23.9364 0.699894 23.6564 0.629905 23.3765 0.489926Z" fill="#E0234E"/>
</svg>
