<svg width="42" height="48" viewBox="0 0 42 48" fill="none" xmlns="http://www.w3.org/2000/svg">
<path d="M40.3031 10.5471L22.9761 0.467658C21.8845 -0.155886 20.4546 -0.155886 19.3544 0.467658L1.89194 10.5471C0.765806 11.197 0 12.4185 0 13.7251V33.8572C0 35.1637 0.7819 36.3856 1.90843 37.0391L6.51229 39.6718C8.721 40.7631 9.33294 40.7631 10.3378 40.7631C13.6091 40.7631 15.3079 38.7794 15.3079 35.3196V15.4441C15.3083 15.1635 15.4829 14.7458 15.2078 14.7458H13.001C12.7216 14.7458 12.1681 15.1635 12.1681 15.4438V35.3192C12.1681 36.8529 10.7488 38.3791 8.16362 37.0828L3.4055 34.3221C3.23986 34.2316 3.14016 34.0493 3.14016 33.8572V13.7251C3.14016 13.5353 3.32189 13.3448 3.48989 13.2476L20.9091 3.18543C21.072 3.09292 21.3024 3.09292 21.4645 3.18543L38.7209 13.2452C38.8861 13.3448 38.8598 13.5294 38.8598 13.7251V33.8572C38.8598 34.0493 38.896 34.2363 38.7331 34.3288L21.41 44.3969C21.2616 44.4862 21.0685 44.4862 20.9056 44.3969L16.4635 41.7401C16.3296 41.6622 16.1683 41.6342 16.0395 41.7062C14.8051 42.4081 14.5758 42.5014 13.4179 42.9041C13.1325 43.0037 12.7118 43.1765 13.578 43.6635L19.3865 47.1095C19.9424 47.4323 20.5747 47.6 21.2106 47.6C21.8551 47.6 22.4859 47.4323 23.0421 47.1095L40.3035 37.0391C41.4305 36.3809 42 35.1637 42 33.8572V13.7251C41.9996 12.4185 41.4301 11.2002 40.3031 10.5471ZM26.5842 30.6671C21.9811 30.6671 20.9676 29.3936 20.6297 27.0982C20.5896 26.851 20.3808 26.5554 20.1296 26.5554H17.8805C17.6022 26.5554 17.378 26.8939 17.378 27.1718C17.378 30.1108 18.9717 33.6718 26.5842 33.6718C32.0944 33.6718 35.2542 31.5244 35.2542 27.7241C35.2542 23.9561 32.7157 22.9672 27.3716 22.2579C21.9697 21.5418 21.421 21.18 21.421 19.9109C21.421 18.8646 21.8857 17.4691 25.8855 17.4691C29.459 17.4691 30.7763 18.2383 31.3184 20.6541C31.3651 20.8813 31.5719 21.0442 31.8055 21.0442H34.064C34.203 21.0442 34.3353 20.9879 34.4326 20.8884C34.5272 20.7813 34.5767 20.647 34.5645 20.503C34.214 16.3425 31.4585 14.4037 25.8851 14.4037C20.9268 14.4037 17.9696 16.5035 17.9696 20.0231C17.9696 23.8407 20.9123 24.8957 25.6716 25.3677C31.3651 25.9275 31.8078 26.762 31.8078 27.8851C31.8078 29.8361 30.2464 30.6671 26.5842 30.6671Z" fill="#83CD29"/>
</svg>
