<svg width="42" height="37" viewBox="0 0 42 37" fill="none" xmlns="http://www.w3.org/2000/svg">
<path d="M20.7999 21.9189C22.8552 21.9189 24.5214 20.2528 24.5214 18.1975C24.5214 16.1422 22.8552 14.4761 20.7999 14.4761C18.7446 14.4761 17.0785 16.1422 17.0785 18.1975C17.0785 20.2528 18.7446 21.9189 20.7999 21.9189Z" fill="#61DAFB"/>
<path d="M7.8242 24.7877C8.18993 24.909 8.55566 25.0321 8.93006 25.1378C8.80873 25.6249 8.703 26.105 8.6042 26.6007C7.7514 31.1108 8.417 34.6849 10.5455 35.9121C12.7399 37.1792 16.4284 35.8792 20.0198 32.735C20.3041 32.4836 20.5884 32.2236 20.8726 31.9463C21.2297 32.2964 21.6041 32.6292 21.9768 32.9534C25.4538 35.9433 28.891 37.1532 31.0126 35.9277C33.2069 34.6607 33.9211 30.8179 32.9955 26.1379C32.9227 25.7809 32.8412 25.4151 32.7511 25.0407C33.0111 24.9679 33.2624 24.8865 33.5155 24.805C38.2041 23.2537 41.5997 20.7421 41.5997 18.1664C41.5997 15.7051 38.3982 13.3166 33.9783 11.7965V11.7947C33.5397 11.6491 33.1012 11.5105 32.6627 11.3805C32.7355 11.0806 32.8013 10.779 32.8655 10.4791C33.8656 5.63623 33.2069 1.74666 30.9883 0.462275C28.8511 -0.764916 25.3654 0.510807 21.8398 3.58225C21.4897 3.88211 21.15 4.19931 20.8241 4.51651C20.604 4.30504 20.3769 4.09358 20.1498 3.89078C16.4527 0.607873 12.7486 -0.773582 10.5299 0.519474C8.4014 1.75533 7.767 5.41957 8.6614 9.999C8.75153 10.4549 8.8486 10.9003 8.96126 11.3562C8.44127 11.5018 7.92994 11.6647 7.44981 11.8363C3.11131 13.3391 0 15.712 0 18.1664C0 20.7022 3.31411 23.2433 7.8242 24.7877ZM18.8741 31.4072C17.5343 32.6344 15.9812 33.6085 14.2912 34.2759C13.3899 34.7057 12.3499 34.7473 11.4226 34.3816C10.1313 33.6345 9.59392 30.7659 10.3254 26.9058C10.4155 26.4517 10.5126 25.9958 10.6252 25.5486C12.4452 25.9386 14.2808 26.2073 16.1424 26.3442C17.2153 27.8643 18.3923 29.3186 19.6524 30.6827C19.3924 30.934 19.1324 31.1784 18.8724 31.4055L18.8741 31.4072ZM29.1926 16.1505C28.8112 15.4347 28.4212 14.7206 28.0139 14.022C27.6152 13.3322 27.201 12.6492 26.7711 11.975C28.0798 12.1379 29.3312 12.3563 30.5012 12.625C30.1268 13.8279 29.6883 14.9979 29.1926 16.1505ZM29.2082 20.1961C29.7282 21.3748 30.184 22.569 30.581 23.7962C29.3208 24.0805 28.0468 24.3006 26.7625 24.4462C27.201 23.7633 27.6152 23.0648 28.0226 22.3662C28.4368 21.6504 28.8268 20.9276 29.2082 20.1961ZM28.2687 18.1751C27.7244 19.2965 27.1386 20.4007 26.5146 21.4892C25.8975 22.569 25.2389 23.6177 24.549 24.6577C23.3391 24.7478 22.079 24.7877 20.8033 24.7877C19.5276 24.7877 18.2935 24.7478 17.0992 24.6733C16.392 23.642 15.7264 22.5846 15.1007 21.5048C14.4749 20.4249 13.8978 19.3277 13.3535 18.2063H13.35C13.8856 17.0848 14.4715 15.9876 15.0885 14.9078C15.7056 13.8279 16.3729 12.7792 17.0715 11.7479C18.29 11.6578 19.5328 11.6093 20.8016 11.6093C22.0704 11.6093 23.3201 11.6578 24.5317 11.7479C25.2215 12.7723 25.8802 13.8192 26.5059 14.8922C27.1316 15.9651 27.7158 17.0623 28.2687 18.1751ZM13.5754 14.0376C13.1767 14.7275 12.7867 15.433 12.421 16.1488C11.9096 14.939 11.478 13.7534 11.121 12.6076C12.291 12.3476 13.5338 12.1362 14.8251 11.9733C14.397 12.6475 13.974 13.3374 13.5754 14.0376ZM12.4227 20.2603C12.7971 20.9761 13.1784 21.6833 13.584 22.3818C13.9983 23.089 14.4212 23.7962 14.8684 24.4861C13.6014 24.3474 12.3412 24.1446 11.0984 23.876C11.4555 22.706 11.9027 21.4961 12.4227 20.2603ZM20.8657 29.4312C20.0372 28.5386 19.2086 27.5489 18.4044 26.4829C19.1844 26.5158 19.9886 26.5314 20.8016 26.5314C21.6388 26.5314 22.4586 26.5158 23.2715 26.4742C22.5245 27.5055 21.7202 28.4901 20.8657 29.4312ZM31.4857 31.8718C31.4112 32.8615 30.9242 33.7871 30.1442 34.4128C28.8528 35.1599 26.0986 34.1857 23.1242 31.6343C22.7827 31.3414 22.4413 31.0242 22.0929 30.7C23.3357 29.3272 24.4814 27.873 25.5214 26.3459C27.3812 26.1917 29.2342 25.9074 31.0628 25.4931C31.1443 25.8259 31.2171 26.1587 31.2829 26.4846C31.6816 28.2405 31.7457 30.0674 31.4857 31.8718ZM32.1912 13.0548C32.6141 13.1762 33.0197 13.3062 33.4097 13.4362C37.1953 14.7362 39.8525 16.6705 39.8525 18.1491C39.8525 19.742 37.0168 21.7977 32.9625 23.1376C32.7355 23.2104 32.5084 23.2832 32.2727 23.349C31.7041 21.5776 31.0056 19.8477 30.2014 18.1647C30.9813 16.5076 31.64 14.8003 32.1912 13.0548ZM22.9838 4.89784C26.0085 2.26666 28.8268 1.23534 30.1112 1.97373C31.484 2.76239 32.0127 5.9465 31.1512 10.1307C31.094 10.4063 31.0368 10.675 30.964 10.9437C29.1596 10.5381 27.3327 10.2451 25.4954 10.0822C24.4398 8.56901 23.2854 7.12342 22.034 5.76623C22.3512 5.46637 22.6597 5.1821 22.9838 4.89784ZM20.8172 7.01076C21.67 7.93635 22.4742 8.91047 23.2213 9.91753C21.6128 9.84473 19.9956 9.84473 18.3871 9.91753C19.1826 8.87061 20.0042 7.89648 20.8172 7.01076ZM11.3914 2.03093C12.7572 1.23534 15.7871 2.37239 18.9798 5.19944C19.1826 5.37797 19.3854 5.57383 19.5969 5.76797C18.3368 7.12342 17.1755 8.56901 16.1112 10.0805C14.2756 10.2434 12.4556 10.5277 10.6512 10.9263C10.5455 10.5121 10.4571 10.0891 10.367 9.6662C9.60259 5.7333 10.107 2.76932 11.3914 2.03093ZM8.02007 13.4847C8.48287 13.3218 8.95433 13.1762 9.42579 13.0375C9.97872 14.8003 10.6443 16.5319 11.4156 18.2045C10.6356 19.9032 9.96139 21.6573 9.40152 23.4444L9.39979 23.4461C9.05833 23.349 8.72553 23.2433 8.39273 23.1289C6.66288 22.5846 4.69556 21.7232 3.27424 20.5948C2.45438 20.0263 1.90145 19.1492 1.74719 18.1647C1.74719 16.6775 4.31423 14.776 8.02007 13.4847Z" fill="#61DAFB"/>
</svg>
