<svg width="35" height="31" viewBox="0 0 35 31" fill="none" xmlns="http://www.w3.org/2000/svg">
<path d="M17.5001 18.4413C19.2293 18.4413 20.6311 17.0395 20.6311 15.3102C20.6311 13.581 19.2293 12.1792 17.5001 12.1792C15.7708 12.1792 14.369 13.581 14.369 15.3102C14.369 17.0395 15.7708 18.4413 17.5001 18.4413Z" fill="#61DAFB"/>
<path d="M6.58292 20.8552C6.89062 20.9573 7.19833 21.0608 7.51333 21.1498C7.41125 21.5596 7.32229 21.9635 7.23917 22.3806C6.52167 26.1752 7.08167 29.1823 8.8725 30.2148C10.7188 31.2808 13.8221 30.1871 16.8438 27.5416C17.0829 27.3302 17.3221 27.1114 17.5613 26.8781C17.8617 27.1727 18.1767 27.4527 18.4902 27.7254C21.4156 30.241 24.3075 31.2589 26.0925 30.2279C27.9388 29.1619 28.5396 25.9287 27.7608 21.9912C27.6996 21.6908 27.631 21.3831 27.5552 21.0681C27.774 21.0069 27.9854 20.9383 28.1983 20.8698C32.1431 19.5646 35 17.4514 35 15.2844C35 13.2135 32.3065 11.2039 28.5877 9.92498V9.92352C28.2188 9.80102 27.8498 9.68435 27.4808 9.57498C27.5421 9.32269 27.5975 9.06894 27.6515 8.81664C28.4929 4.74206 27.9388 1.46956 26.0721 0.388936C24.274 -0.643564 21.3413 0.429769 18.375 3.01394C18.0804 3.26623 17.7946 3.5331 17.5204 3.79998C17.3352 3.62206 17.1442 3.44414 16.9531 3.27352C13.8425 0.511436 10.726 -0.650856 8.85938 0.437061C7.06854 1.47685 6.53479 4.55977 7.28729 8.41269C7.36313 8.79623 7.44479 9.17102 7.53958 9.55456C7.10208 9.67706 6.67188 9.81415 6.26792 9.95852C2.61771 11.2229 0 13.2194 0 15.2844C0 17.4179 2.78833 19.5558 6.58292 20.8552ZM15.8798 26.4246C14.7525 27.4571 13.4458 28.2766 12.024 28.8381C11.2656 29.1998 10.3906 29.2348 9.61042 28.9271C8.52396 28.2985 8.07187 25.885 8.68729 22.6373C8.76312 22.2552 8.84479 21.8716 8.93958 21.4954C10.4708 21.8235 12.0152 22.0496 13.5815 22.1648C14.4842 23.4437 15.4744 24.6673 16.5346 25.815C16.3158 26.0264 16.0971 26.2321 15.8783 26.4231L15.8798 26.4246ZM24.5612 13.5883C24.2404 12.986 23.9123 12.3852 23.5696 11.7975C23.2342 11.2171 22.8856 10.6425 22.524 10.0752C23.625 10.2123 24.6779 10.396 25.6623 10.6221C25.3473 11.6341 24.9783 12.6185 24.5612 13.5883ZM24.5744 16.9921C25.0119 17.9837 25.3954 18.9885 25.7294 20.021C24.6692 20.2602 23.5973 20.4454 22.5167 20.5679C22.8856 19.9933 23.2342 19.4056 23.5769 18.8179C23.9254 18.2156 24.2535 17.6075 24.5744 16.9921ZM23.784 15.2916C23.326 16.2352 22.8331 17.1641 22.3081 18.08C21.789 18.9885 21.2348 19.8708 20.6544 20.7458C19.6365 20.8216 18.5763 20.8552 17.5029 20.8552C16.4296 20.8552 15.3912 20.8216 14.3865 20.7589C13.7915 19.8912 13.2315 19.0016 12.705 18.0931C12.1785 17.1846 11.6929 16.2614 11.235 15.3179H11.2321C11.6827 14.3744 12.1756 13.4512 12.6948 12.5427C13.214 11.6341 13.7754 10.7519 14.3631 9.88414C15.3883 9.80831 16.434 9.76748 17.5015 9.76748C18.569 9.76748 19.6204 9.80831 20.6398 9.88414C21.2202 10.746 21.7744 11.6269 22.3008 12.5296C22.8273 13.4323 23.3188 14.3554 23.784 15.2916ZM11.4217 11.8106C11.0863 12.391 10.7581 12.9846 10.4504 13.5869C10.0202 12.5689 9.65708 11.5714 9.35667 10.6075C10.341 10.3887 11.3867 10.2108 12.4731 10.0737C12.1129 10.641 11.7571 11.2214 11.4217 11.8106ZM10.4519 17.046C10.7669 17.6483 11.0877 18.2433 11.429 18.831C11.7775 19.426 12.1333 20.021 12.5096 20.6014C11.4435 20.4848 10.3833 20.3141 9.33771 20.0881C9.63813 19.1037 10.0144 18.0858 10.4519 17.046ZM17.5554 24.7621C16.8583 24.011 16.1613 23.1783 15.4846 22.2814C16.1408 22.3091 16.8175 22.3223 17.5015 22.3223C18.2058 22.3223 18.8956 22.3091 19.5796 22.2741C18.951 23.1419 18.2744 23.9702 17.5554 24.7621ZM26.4906 26.8154C26.4279 27.6481 26.0181 28.4269 25.3619 28.9533C24.2754 29.5819 21.9581 28.7623 19.4556 26.6156C19.1683 26.3691 18.881 26.1023 18.5879 25.8296C19.6335 24.6746 20.5975 23.451 21.4725 22.1662C23.0373 22.0364 24.5963 21.7973 26.1348 21.4487C26.2033 21.7287 26.2646 22.0087 26.32 22.2829C26.6554 23.7602 26.7094 25.2973 26.4906 26.8154ZM27.0842 10.9837C27.44 11.0858 27.7812 11.1952 28.1094 11.3046C31.2944 12.3983 33.53 14.0258 33.53 15.2698C33.53 16.61 31.1442 18.3396 27.7331 19.4669C27.5421 19.5281 27.351 19.5894 27.1527 19.6448C26.6744 18.1544 26.0867 16.6989 25.41 15.2829C26.0662 13.8887 26.6204 12.4523 27.0842 10.9837ZM19.3375 4.12081C21.8823 1.90706 24.2535 1.03935 25.3342 1.6606C26.4892 2.32414 26.934 5.0031 26.2092 8.52352C26.161 8.75539 26.1129 8.98144 26.0517 9.20748C24.5335 8.86623 22.9965 8.61977 21.4506 8.48269C20.5625 7.20956 19.5912 5.99331 18.5383 4.85144C18.8052 4.59914 19.0648 4.35998 19.3375 4.12081ZM17.5146 5.89852C18.2321 6.67727 18.9088 7.49685 19.5373 8.34414C18.184 8.2829 16.8233 8.2829 15.47 8.34414C16.1394 7.46331 16.8306 6.64373 17.5146 5.89852ZM9.58417 1.70873C10.7333 1.03935 13.2825 1.99602 15.9688 4.37456C16.1394 4.52477 16.31 4.68956 16.4879 4.85289C15.4277 5.99331 14.4506 7.20956 13.5552 8.48123C12.0108 8.61831 10.4796 8.85748 8.96146 9.19289C8.8725 8.84435 8.79813 8.48852 8.72229 8.13269C8.07917 4.82373 8.50354 2.32998 9.58417 1.70873ZM6.74771 11.3454C7.13708 11.2083 7.53375 11.0858 7.93042 10.9691C8.39563 12.4523 8.95563 13.9091 9.60458 15.3164C8.94833 16.7456 8.38104 18.2214 7.91 19.725L7.90854 19.7264C7.62125 19.6448 7.34125 19.5558 7.06125 19.4596C5.60583 19.0016 3.95063 18.2769 2.75479 17.3275C2.065 16.8491 1.59979 16.1112 1.47 15.2829C1.47 14.0316 3.62979 12.4319 6.74771 11.3454Z" fill="#61DAFB"/>
</svg>
