<svg width="44" height="53" viewBox="0 0 44 53" fill="none" xmlns="http://www.w3.org/2000/svg">
<g clip-path="url(#clip0_2294_14305)">
<path d="M41.1744 7.00702C36.2855 -0.0446713 26.5525 -2.11077 19.5556 2.33584L7.22125 10.2409C3.85734 12.3519 1.52502 15.8104 0.852241 19.718C0.269163 22.9969 0.762536 26.3655 2.33236 29.285C1.25591 30.9019 0.538276 32.6986 0.22431 34.585C-0.493325 38.5825 0.448571 42.7147 2.78088 45.9935C7.71463 53.0452 17.4027 55.1113 24.3996 50.6647L36.734 42.8045C40.0979 40.6935 42.4302 37.235 43.103 33.3274C43.6861 30.0486 43.1927 26.6799 41.6229 23.7604C42.6993 22.1435 43.417 20.3469 43.7309 18.4604C44.4934 14.418 43.5515 10.2858 41.1744 7.00702Z" fill="#FF3E00"/>
<path d="M18.3444 46.6668C14.3525 47.6999 10.1813 46.1278 7.84895 42.7592C6.41368 40.7829 5.87545 38.3126 6.27912 35.8871C6.36883 35.4829 6.45853 35.1236 6.54823 34.7193L6.7725 34.0007L7.40043 34.4499C8.88055 35.5278 10.4952 36.3363 12.2445 36.8753L12.693 37.01L12.6481 37.4592C12.6033 38.088 12.7827 38.7617 13.1415 39.3007C13.8591 40.3338 15.115 40.8278 16.326 40.5134C16.5951 40.4236 16.8642 40.3338 17.0885 40.199L29.378 32.3388C30.0059 31.9346 30.4096 31.3507 30.5442 30.6321C30.6787 29.9134 30.4993 29.1499 30.0956 28.566C29.378 27.5329 28.1221 27.0838 26.9111 27.3982C26.642 27.488 26.3729 27.5778 26.1486 27.7126L21.4392 30.7219C20.6767 31.216 19.8245 31.5753 18.9274 31.7999C14.9356 32.8329 10.7643 31.2609 8.43203 27.8922C7.04161 25.916 6.45853 23.4456 6.90705 21.0202C7.31072 18.6846 8.74599 16.5736 10.7643 15.3159L23.0987 7.45578C23.8612 6.96171 24.7134 6.60239 25.6104 6.3329C29.6023 5.29985 33.7735 6.87188 36.1058 10.2405C37.5411 12.2168 38.0793 14.6871 37.6757 17.1126C37.5859 17.5168 37.4962 17.8761 37.3617 18.2804L37.1374 18.999L36.5095 18.5498C35.0294 17.4719 33.4147 16.6634 31.6655 16.1244L31.2169 15.9897L31.2618 15.5405C31.3066 14.9117 31.1272 14.238 30.7684 13.699C30.0508 12.666 28.7949 12.2168 27.5839 12.5312C27.3148 12.621 27.0457 12.7109 26.8214 12.8456L14.5319 20.7058C13.904 21.11 13.5003 21.6939 13.3658 22.4126C13.2312 23.1312 13.4106 23.8948 13.8143 24.4787C14.5319 25.5117 15.7878 25.9609 16.9988 25.6465C17.2679 25.5566 17.537 25.4668 17.7613 25.3321L22.4708 22.3227C23.2332 21.8287 24.0854 21.4693 24.9825 21.1999C28.9743 20.1668 33.1456 21.7388 35.4779 25.1075C36.9132 27.0838 37.4514 29.5541 37.0477 31.9795C36.644 34.3151 35.2088 36.4261 33.1904 37.6838L20.8561 45.5439C20.0936 46.038 19.2414 46.3973 18.3444 46.6668Z" fill="white"/>
</g>
<defs>
<clipPath id="clip0_2294_14305">
<rect width="44" height="53" fill="white"/>
</clipPath>
</defs>
</svg>
