<svg width="38" height="34" viewBox="0 0 38 34" fill="none" xmlns="http://www.w3.org/2000/svg">
<path d="M23.3199 0C27.1339 5.11685 28.6408 11.203 27.3125 16.6725C27.2224 17.112 27.0469 17.6418 26.8682 18.0829C26.5868 17.9264 26.3543 17.7825 26.1329 17.6244L26.1567 17.6418C26.1567 17.6418 17.5564 12.3494 8.33781 3.08656C8.07058 2.82249 13.3013 10.4946 19.1534 16.5823C16.4052 14.9948 8.60188 9.43834 3.72379 4.93817C4.25824 5.90905 5.05518 6.87992 5.85212 7.85079C9.93169 13.0562 15.2525 19.4064 21.6375 24.256C17.1152 26.9931 10.8172 27.1686 4.43376 24.256C2.83672 23.5524 1.50849 22.6701 0 21.6106C2.65962 25.7566 6.82774 29.55 11.7944 31.5787C17.735 34.1387 23.7643 33.9632 28.1095 31.5787H28.1996C28.3767 31.4901 28.5554 31.4032 28.7309 31.2261C30.8592 30.1666 35.0273 29.0203 37.3328 33.4303C37.951 34.6652 39.1053 28.9317 34.7617 23.6378H34.7601C34.8487 23.4622 34.8487 23.2867 34.9372 23.1096C37.0671 14.8193 32.0104 5.11685 23.3199 0Z" fill="#E94E36"/>
<path d="M3.72379 4.93945C4.25824 5.90875 5.05518 6.87962 5.85212 7.85049C9.93169 13.0559 15.2525 19.4061 21.6375 24.2557C19.3416 25.6456 16.5871 26.3746 13.597 26.3746C10.697 26.3746 7.57566 25.6899 4.43218 24.2557C2.83672 23.5521 1.50849 22.6698 0 21.6103C2.65962 25.7563 6.82774 29.5497 11.7944 31.5784C14.7117 32.8355 17.6512 33.4332 20.401 33.4332C23.2504 33.4332 25.8989 32.7912 28.1095 31.5784H28.1996C28.3767 31.4898 28.5554 31.4029 28.7309 31.2258C29.686 30.7498 31.0537 30.2565 32.4784 30.2565C33.0524 30.2565 33.6343 30.3371 34.2035 30.53L19.1534 16.582C16.4052 14.9961 8.60188 9.43963 3.72379 4.93945Z" fill="#CB442F"/>
</svg>
