<svg width="49" height="34" viewBox="0 0 49 34" fill="none" xmlns="http://www.w3.org/2000/svg">
<path d="M48.8592 15.7433L43.2134 8.7463C42.4068 7.80439 42.138 7.93895 41.6003 8.07351L34.7447 9.14997C34.0726 9.28453 33.6693 9.55365 34.0726 10.0919L39.0462 17.0889L24.1252 20.722L12.2958 0.941909C11.8926 0.269117 11.7582 0 10.6828 0L0.869799 0.807351C0.332103 0.807351 -0.340017 1.07647 0.197679 2.55661L10.4139 24.4896C10.6828 25.0279 11.3549 26.1043 12.968 25.7007L23.1842 23.0095L28.6956 32.6977C29.5021 33.9087 30.0398 33.6396 31.3841 33.3705L47.2461 27.5845C47.9182 27.3154 48.3215 27.1808 47.9182 26.508L41.8691 18.2999L48.4559 16.5507C49.1281 16.4161 49.1281 16.0125 48.7248 15.7433H48.8592ZM21.84 21.2602L12.968 23.4132L12.4303 23.2786C9.14679 16.2289 5.83098 9.187 2.48289 2.15294L10.5483 1.34558C14.3113 7.93945 18.0752 14.5328 21.84 21.1257V21.2602ZM45.3642 25.7007C45.4986 25.8352 45.633 25.9698 45.2298 26.1043L30.8464 30.9484C30.5775 31.083 30.3087 31.083 30.0398 30.6793L25.2006 22.4713L39.7184 18.7036C40.1216 18.5691 40.1216 18.5691 40.3905 18.8382L45.3642 25.7007ZM46.1707 15.3397L40.6593 16.6852L36.2233 10.7647C36.0889 10.6301 35.9545 10.4956 36.3578 10.361L41.7347 9.41909C42.0036 9.41909 42.2724 9.28453 42.5413 9.68821L46.7084 14.936C46.8428 15.2051 46.574 15.3397 46.1707 15.3397Z" fill="#FB503B"/>
</svg>
