<svg width="14" height="14" viewBox="0 0 14 14" fill="none" xmlns="http://www.w3.org/2000/svg">
<path opacity="0.5" d="M8 13V2C8 1.44772 7.55228 1 7 1C6.44772 1 6 1.44772 6 2L6 13C6 13.5523 6.44772 14 7 14C7.55228 14 8 13.5523 8 13Z" fill="white"/>
<path d="M7.56569 3.56554L11.75 7.74985C12.1642 8.16405 12.8358 8.16405 13.25 7.74985C13.6642 7.33565 13.6642 6.66405 13.25 6.24985L7.70709 0.70696C7.31659 0.31643 6.68339 0.31643 6.29289 0.70696L0.749989 6.24985C0.335779 6.66405 0.335779 7.33565 0.749989 7.74985C1.1642 8.16405 1.83578 8.16405 2.24999 7.74985L6.43429 3.56554C6.74669 3.25312 7.25329 3.25312 7.56569 3.56554Z" fill="white"/>
</svg>
