<svg width="21" height="21" viewBox="0 0 21 21" fill="none" xmlns="http://www.w3.org/2000/svg">
<rect x="1" y="1" width="19" height="19" rx="9.5" fill="#2544DD" fill-opacity="0.05"/>
<path fill-rule="evenodd" clip-rule="evenodd" d="M10.5001 6C10.6658 6 10.8248 6.06585 10.942 6.18306C11.0592 6.30027 11.1251 6.45924 11.1251 6.625V10.375H14.8751C15.0408 10.375 15.1998 10.4408 15.317 10.5581C15.4342 10.6753 15.5001 10.8342 15.5001 11C15.5001 11.1658 15.4342 11.3247 15.317 11.4419C15.1998 11.5592 15.0408 11.625 14.8751 11.625H11.1251V15.375C11.1251 15.5408 11.0592 15.6997 10.942 15.8169C10.8248 15.9342 10.6658 16 10.5001 16C10.3343 16 10.1753 15.9342 10.0581 15.8169C9.94091 15.6997 9.87506 15.5408 9.87506 15.375V11.625H6.12506C5.9593 11.625 5.80033 11.5592 5.68312 11.4419C5.56591 11.3247 5.50006 11.1658 5.50006 11C5.50006 10.8342 5.56591 10.6753 5.68312 10.5581C5.80033 10.4408 5.9593 10.375 6.12506 10.375H9.87506V6.625C9.87506 6.45924 9.94091 6.30027 10.0581 6.18306C10.1753 6.06585 10.3343 6 10.5001 6Z" fill="#2544DD"/>
<rect x="1" y="1" width="19" height="19" rx="9.5" stroke="#2544DD"/>
</svg>
