<svg width="34" height="34" viewBox="0 0 34 34" fill="none" xmlns="http://www.w3.org/2000/svg">
<rect width="34" height="34" rx="10" fill="#FEECF0"/>
<g filter="url(#filter0_d_4834_2817)">
<path d="M9.64 20.27V25.09C9.64263 25.3323 9.74072 25.5637 9.91297 25.7341C10.0852 25.9045 10.3177 26 10.56 26H16.18V20.27H9.64ZM17.82 26H23.44C23.6823 26 23.9148 25.9045 24.087 25.7341C24.2593 25.5637 24.3574 25.3323 24.36 25.09V20.27H17.82V26ZM25.1 12.09H23.26C23.4485 11.7072 23.5476 11.2867 23.55 10.86C23.5474 10.1006 23.2438 9.37313 22.7059 8.83706C22.1679 8.301 21.4394 8 20.68 8C19.8866 8.03762 19.1201 8.29891 18.4689 8.75367C17.8178 9.20843 17.3085 9.83811 17 10.57C16.6915 9.83811 16.1822 9.20843 15.5311 8.75367C14.8799 8.29891 14.1134 8.03762 13.32 8C12.5606 8 11.8321 8.301 11.2941 8.83706C10.7562 9.37313 10.4526 10.1006 10.45 10.86C10.4524 11.2867 10.5515 11.7072 10.74 12.09H8.9C8.4 12.09 8 12.68 8 13.4V17.33C8 18.05 8.4 18.64 8.9 18.64H16.18V12.09H17.82V18.64H25.1C25.6 18.64 26 18.05 26 17.33V13.4C26 12.68 25.6 12.09 25.1 12.09ZM13.32 12.09C13.1498 12.1054 12.9783 12.0852 12.8164 12.0306C12.6545 11.976 12.5057 11.8883 12.3796 11.7731C12.2534 11.6578 12.1527 11.5175 12.0837 11.3612C12.0148 11.2049 11.9792 11.0359 11.9792 10.865C11.9792 10.6941 12.0148 10.5251 12.0837 10.3688C12.1527 10.2125 12.2534 10.0722 12.3796 9.95693C12.5057 9.84168 12.6545 9.75398 12.8164 9.69941C12.9783 9.64484 13.1498 9.62461 13.32 9.64C14.72 9.64 15.51 11.08 15.9 12.09H13.32ZM20.68 12.09H18.1C18.49 11.09 19.28 9.64 20.68 9.64C20.8502 9.62461 21.0217 9.64484 21.1836 9.69941C21.3455 9.75398 21.4943 9.84168 21.6204 9.95693C21.7466 10.0722 21.8473 10.2125 21.9163 10.3688C21.9852 10.5251 22.0208 10.6941 22.0208 10.865C22.0208 11.0359 21.9852 11.2049 21.9163 11.3612C21.8473 11.5175 21.7466 11.6578 21.6204 11.7731C21.4943 11.8883 21.3455 11.976 21.1836 12.0306C21.0217 12.0852 20.8502 12.1054 20.68 12.09Z" fill="url(#paint0_linear_4834_2817)"/>
</g>
<defs>
<filter id="filter0_d_4834_2817" x="5.78" y="6.78" width="22.44" height="22.44" filterUnits="userSpaceOnUse" color-interpolation-filters="sRGB">
<feFlood flood-opacity="0" result="BackgroundImageFix"/>
<feColorMatrix in="SourceAlpha" type="matrix" values="0 0 0 0 0 0 0 0 0 0 0 0 0 0 0 0 0 0 127 0" result="hardAlpha"/>
<feOffset dy="1"/>
<feGaussianBlur stdDeviation="1.11"/>
<feComposite in2="hardAlpha" operator="out"/>
<feColorMatrix type="matrix" values="0 0 0 0 0 0 0 0 0 0 0 0 0 0 0 0 0 0 0.22 0"/>
<feBlend mode="normal" in2="BackgroundImageFix" result="effect1_dropShadow_4834_2817"/>
<feBlend mode="normal" in="SourceGraphic" in2="effect1_dropShadow_4834_2817" result="shape"/>
</filter>
<linearGradient id="paint0_linear_4834_2817" x1="17" y1="8" x2="17" y2="26" gradientUnits="userSpaceOnUse">
<stop stop-color="#F1416C"/>
<stop offset="1" stop-color="#B53151"/>
</linearGradient>
</defs>
</svg>
