<svg width="24" height="18" viewBox="0 0 24 18" fill="none" xmlns="http://www.w3.org/2000/svg">
<rect y="0.831238" width="23.0888" height="17.1686" rx="6.25291" fill="#ECEFF9"/>
<g clip-path="url(#clip0_4792_21214)">
<path d="M9.68804 7.5592C9.78651 7.5592 9.88094 7.59832 9.95056 7.66795C10.0202 7.73757 10.0593 7.832 10.0593 7.93047V12.3857C10.0593 12.4841 10.0202 12.5786 9.95056 12.6482C9.88094 12.7178 9.78651 12.7569 9.68804 12.7569C9.58957 12.7569 9.49514 12.7178 9.42551 12.6482C9.35589 12.5786 9.31677 12.4841 9.31677 12.3857V7.93047C9.31677 7.832 9.35589 7.73757 9.42551 7.66795C9.49514 7.59832 9.58957 7.5592 9.68804 7.5592ZM11.5444 7.5592C11.6428 7.5592 11.7373 7.59832 11.8069 7.66795C11.8765 7.73757 11.9156 7.832 11.9156 7.93047V12.3857C11.9156 12.4841 11.8765 12.5786 11.8069 12.6482C11.7373 12.7178 11.6428 12.7569 11.5444 12.7569C11.4459 12.7569 11.3515 12.7178 11.2818 12.6482C11.2122 12.5786 11.1731 12.4841 11.1731 12.3857V7.93047C11.1731 7.832 11.2122 7.73757 11.2818 7.66795C11.3515 7.59832 11.4459 7.5592 11.5444 7.5592ZM13.772 7.93047C13.772 7.832 13.7329 7.73757 13.6632 7.66795C13.5936 7.59832 13.4992 7.5592 13.4007 7.5592C13.3022 7.5592 13.2078 7.59832 13.1382 7.66795C13.0686 7.73757 13.0294 7.832 13.0294 7.93047V12.3857C13.0294 12.4841 13.0686 12.5786 13.1382 12.6482C13.2078 12.7178 13.3022 12.7569 13.4007 12.7569C13.4992 12.7569 13.5936 12.7178 13.6632 12.6482C13.7329 12.5786 13.772 12.4841 13.772 12.3857V7.93047Z" fill="#2544DD"/>
<path fill-rule="evenodd" clip-rule="evenodd" d="M16.3709 5.70288C16.3709 5.89981 16.2927 6.08868 16.1534 6.22793C16.0142 6.36718 15.8253 6.44542 15.6284 6.44542H15.2571V13.1282C15.2571 13.5221 15.1006 13.8998 14.8221 14.1783C14.5436 14.4568 14.1659 14.6133 13.772 14.6133H9.31682C8.92296 14.6133 8.54523 14.4568 8.26672 14.1783C7.98822 13.8998 7.83176 13.5221 7.83176 13.1282V6.44542H7.46049C7.26356 6.44542 7.07469 6.36718 6.93544 6.22793C6.79619 6.08868 6.71796 5.89981 6.71796 5.70288V4.96035C6.71796 4.76342 6.79619 4.57455 6.93544 4.4353C7.07469 4.29605 7.26356 4.21781 7.46049 4.21781H10.0594C10.0594 4.02088 10.1376 3.83202 10.2768 3.69276C10.4161 3.55351 10.605 3.47528 10.8019 3.47528H12.287C12.4839 3.47528 12.6728 3.55351 12.812 3.69276C12.9513 3.83202 13.0295 4.02088 13.0295 4.21781H15.6284C15.8253 4.21781 16.0142 4.29605 16.1534 4.4353C16.2927 4.57455 16.3709 4.76342 16.3709 4.96035V5.70288ZM8.66191 6.44542L8.57429 6.48922V13.1282C8.57429 13.3251 8.65252 13.514 8.79177 13.6533C8.93103 13.7925 9.11989 13.8708 9.31682 13.8708H13.772C13.969 13.8708 14.1578 13.7925 14.2971 13.6533C14.4363 13.514 14.5146 13.3251 14.5146 13.1282V6.48922L14.4269 6.44542H8.66191ZM7.46049 5.70288V4.96035H15.6284V5.70288H7.46049Z" fill="#2544DD"/>
</g>
<defs>
<clipPath id="clip0_4792_21214">
<rect width="11.8805" height="11.8805" fill="white" transform="translate(5.60413 3.47528)"/>
</clipPath>
</defs>
</svg>
