<svg width="24" height="18" viewBox="0 0 24 18" fill="none" xmlns="http://www.w3.org/2000/svg">
<rect y="-6.10352e-05" width="23.0888" height="17.1686" rx="6.25291" fill="#ECEFF9"/>
<g clip-path="url(#clip0_4792_21216)">
<path d="M17.1147 4.08443C17.1841 4.15403 17.223 4.24828 17.223 4.34655C17.223 4.44481 17.1841 4.53907 17.1147 4.60866L16.3402 5.38387L14.8552 3.8988L15.6296 3.12359C15.6992 3.05399 15.7937 3.01489 15.8921 3.01489C15.9906 3.01489 16.085 3.05399 16.1546 3.12359L17.1147 4.08369V4.08443ZM15.8153 5.90809L14.3302 4.42303L9.27131 9.48265C9.23044 9.52351 9.19968 9.57334 9.18146 9.62819L8.58372 11.4207C8.57288 11.4533 8.57134 11.4884 8.57928 11.5219C8.58721 11.5554 8.60431 11.586 8.62865 11.6104C8.653 11.6347 8.68363 11.6518 8.71713 11.6597C8.75064 11.6677 8.78568 11.6661 8.81836 11.6553L10.6108 11.0576C10.6656 11.0396 10.7154 11.0091 10.7564 10.9685L15.8153 5.90884V5.90809Z" fill="#2544DD"/>
<path fill-rule="evenodd" clip-rule="evenodd" d="M6.34668 12.6682C6.34668 12.9636 6.46403 13.2469 6.6729 13.4558C6.88178 13.6647 7.16508 13.782 7.46048 13.782H15.6283C15.9237 13.782 16.207 13.6647 16.4159 13.4558C16.6248 13.2469 16.7421 12.9636 16.7421 12.6682V8.213C16.7421 8.11454 16.703 8.0201 16.6334 7.95048C16.5638 7.88085 16.4693 7.84174 16.3709 7.84174C16.2724 7.84174 16.178 7.88085 16.1084 7.95048C16.0387 8.0201 15.9996 8.11454 15.9996 8.213V12.6682C15.9996 12.7667 15.9605 12.8611 15.8909 12.9307C15.8212 13.0004 15.7268 13.0395 15.6283 13.0395H7.46048C7.36201 13.0395 7.26758 13.0004 7.19795 12.9307C7.12833 12.8611 7.08921 12.7667 7.08921 12.6682V4.50034C7.08921 4.40187 7.12833 4.30744 7.19795 4.23781C7.26758 4.16818 7.36201 4.12907 7.46048 4.12907H12.2869C12.3854 4.12907 12.4798 4.08995 12.5495 4.02033C12.6191 3.9507 12.6582 3.85627 12.6582 3.7578C12.6582 3.65934 12.6191 3.5649 12.5495 3.49528C12.4798 3.42565 12.3854 3.38654 12.2869 3.38654H7.46048C7.16508 3.38654 6.88178 3.50388 6.6729 3.71276C6.46403 3.92164 6.34668 4.20494 6.34668 4.50034V12.6682Z" fill="#2544DD"/>
</g>
<defs>
<clipPath id="clip0_4792_21216">
<rect width="11.8805" height="11.8805" fill="white" transform="translate(5.60413 2.64398)"/>
</clipPath>
</defs>
</svg>
