<svg width="24" height="27" viewBox="0 0 24 27" fill="none" xmlns="http://www.w3.org/2000/svg">
<path d="M12 26.5992C12.862 26.5992 13.6886 26.2568 14.2981 25.6473C14.9076 25.0378 15.25 24.2112 15.25 23.3492H8.75C8.75 24.2112 9.09241 25.0378 9.7019 25.6473C10.3114 26.2568 11.138 26.5992 12 26.5992ZM13.6169 2.38509C13.6396 2.15914 13.6146 1.93095 13.5437 1.71522C13.4728 1.4995 13.3574 1.30104 13.2051 1.13263C13.0527 0.964233 12.8668 0.829631 12.6592 0.73751C12.4517 0.645389 12.2271 0.597794 12 0.597794C11.7729 0.597794 11.5484 0.645389 11.3408 0.73751C11.1332 0.829631 10.9473 0.964233 10.7949 1.13263C10.6426 1.30104 10.5272 1.4995 10.4563 1.71522C10.3854 1.93095 10.3604 2.15914 10.3831 2.38509C8.54642 2.75868 6.89526 3.75555 5.70924 5.2069C4.52323 6.65826 3.87524 8.4749 3.875 10.3492C3.875 12.1335 3.0625 20.0992 0.625 21.7242H23.375C20.9375 20.0992 20.125 12.1335 20.125 10.3492C20.125 6.41671 17.33 3.13421 13.6169 2.38509Z" fill="#2544DD"/>
</svg>
