<svg width="34" height="34" viewBox="0 0 34 34" fill="none" xmlns="http://www.w3.org/2000/svg">
<rect width="34" height="34" rx="10" fill="#E5F5FE"/>
<g filter="url(#filter0_d_4840_2839)">
<path fill-rule="evenodd" clip-rule="evenodd" d="M10.7967 8.5625C10.7967 8.41332 10.8561 8.27024 10.9619 8.16475C11.0677 8.05926 11.2111 8 11.3608 8H22.6426C22.7922 8 22.9357 8.05926 23.0415 8.16475C23.1473 8.27024 23.2067 8.41332 23.2067 8.5625C23.2067 9.16775 23.1932 9.74375 23.1684 10.2905C23.6141 10.3641 24.0406 10.526 24.4227 10.7666C24.8047 11.0072 25.1346 11.3216 25.3928 11.6914C25.6511 12.0611 25.8324 12.4787 25.9262 12.9194C26.0201 13.3602 26.0244 13.8152 25.9391 14.2577C25.8537 14.7002 25.6804 15.1211 25.4293 15.4957C25.1782 15.8703 24.8544 16.191 24.477 16.4388C24.0997 16.6866 23.6763 16.8566 23.2321 16.9387C22.7878 17.0208 22.3315 17.0133 21.8901 16.9167C20.9989 19.0149 19.7714 20.0409 18.694 20.3041V22.7487L20.3016 23.1493C20.5205 23.2032 20.727 23.3011 20.9075 23.4361L22.9811 24.9875C23.0758 25.0583 23.1458 25.1571 23.1811 25.2698C23.2164 25.3825 23.2152 25.5034 23.1778 25.6154C23.1403 25.7274 23.0685 25.8248 22.9725 25.8938C22.8764 25.9629 22.761 26 22.6426 26H11.3608C11.2424 26 11.127 25.9629 11.0309 25.8938C10.9349 25.8248 10.863 25.7274 10.8256 25.6154C10.7882 25.5034 10.787 25.3825 10.8223 25.2698C10.8576 25.1571 10.9276 25.0583 11.0223 24.9875L13.0959 23.4361C13.2764 23.3011 13.4829 23.2032 13.7017 23.1493L15.3094 22.7487V20.3041C14.232 20.0409 13.0045 19.0149 12.1133 16.9156C11.6717 17.0127 11.215 17.0206 10.7704 16.9387C10.3257 16.8569 9.90195 16.6871 9.52419 16.4392C9.14644 16.1913 8.82232 15.8705 8.57098 15.4957C8.31964 15.1208 8.14617 14.6996 8.06083 14.2568C7.97548 13.8139 7.97999 13.3586 8.07408 12.9175C8.16817 12.4765 8.34993 12.0587 8.60864 11.6889C8.86735 11.3191 9.19775 11.0047 9.58033 10.7643C9.96292 10.5239 10.3899 10.3624 10.8361 10.2894C10.8096 9.71413 10.7964 9.13835 10.7967 8.5625ZM10.9083 11.42C10.3196 11.5274 9.79784 11.8636 9.45774 12.3547C9.11763 12.8457 8.98707 13.4514 9.09479 14.0384C9.2025 14.6255 9.53967 15.1458 10.0321 15.485C10.5246 15.8241 11.1319 15.9543 11.7206 15.8469C11.345 14.6656 11.0573 13.2076 10.9083 11.42ZM22.2839 15.8469C22.8726 15.9543 23.4799 15.8241 23.9724 15.485C24.4648 15.1458 24.802 14.6255 24.9097 14.0384C25.0174 13.4514 24.8869 12.8457 24.5468 12.3547C24.2067 11.8636 23.6849 11.5274 23.0962 11.42C22.9461 13.2087 22.6584 14.6656 22.2839 15.8469Z" fill="url(#paint0_linear_4840_2839)"/>
</g>
<defs>
<filter id="filter0_d_4840_2839" x="5.78" y="6.78" width="22.44" height="22.44" filterUnits="userSpaceOnUse" color-interpolation-filters="sRGB">
<feFlood flood-opacity="0" result="BackgroundImageFix"/>
<feColorMatrix in="SourceAlpha" type="matrix" values="0 0 0 0 0 0 0 0 0 0 0 0 0 0 0 0 0 0 127 0" result="hardAlpha"/>
<feOffset dy="1"/>
<feGaussianBlur stdDeviation="1.11"/>
<feComposite in2="hardAlpha" operator="out"/>
<feColorMatrix type="matrix" values="0 0 0 0 0 0 0 0 0 0 0 0 0 0 0 0 0 0 0.22 0"/>
<feBlend mode="normal" in2="BackgroundImageFix" result="effect1_dropShadow_4840_2839"/>
<feBlend mode="normal" in="SourceGraphic" in2="effect1_dropShadow_4840_2839" result="shape"/>
</filter>
<linearGradient id="paint0_linear_4840_2839" x1="17" y1="8" x2="17" y2="26" gradientUnits="userSpaceOnUse">
<stop stop-color="#009EF7"/>
<stop offset="1" stop-color="#0077B9"/>
</linearGradient>
</defs>
</svg>
