<svg width="34" height="34" viewBox="0 0 34 34" fill="none" xmlns="http://www.w3.org/2000/svg">
<rect width="34" height="34" rx="10" fill="#EDFAF3"/>
<g filter="url(#filter0_d_4840_2825)">
<path d="M24.8639 14.9762C24.5608 14.6601 24.2474 14.3334 24.129 14.047C24.0201 13.784 24.0135 13.3483 24.0072 12.9269C23.9953 12.1427 23.9819 11.2539 23.364 10.636C22.7461 10.0181 21.8573 10.0047 21.0731 9.99284C20.6517 9.98648 20.216 9.97989 19.953 9.87105C19.6667 9.75263 19.3399 9.43921 19.0238 9.13607C18.4686 8.60354 17.8391 8 17 8C16.1609 8 15.5315 8.60354 14.9762 9.13607C14.6601 9.43921 14.3334 9.75263 14.047 9.87105C13.784 9.97989 13.3483 9.98648 12.9269 9.99284C12.1427 10.0047 11.2539 10.0181 10.636 10.636C10.0181 11.2539 10.0047 12.1427 9.99284 12.9269C9.98648 13.3483 9.97989 13.784 9.87105 14.047C9.75263 14.3333 9.43921 14.6601 9.13607 14.9762C8.60354 15.5314 8 16.1609 8 17C8 17.8391 8.60354 18.4685 9.13607 19.0238C9.43921 19.3399 9.75263 19.6666 9.87105 19.953C9.97989 20.216 9.98648 20.6517 9.99284 21.0731C10.0047 21.8573 10.0181 22.7461 10.636 23.364C11.2539 23.9819 12.1427 23.9953 12.9269 24.0072C13.3483 24.0135 13.784 24.0201 14.047 24.129C14.3333 24.2474 14.6601 24.5608 14.9762 24.8639C15.5314 25.3965 16.1609 26 17 26C17.8391 26 18.4685 25.3965 19.0238 24.8639C19.3399 24.5608 19.6666 24.2474 19.953 24.129C20.216 24.0201 20.6517 24.0135 21.0731 24.0072C21.8573 23.9953 22.7461 23.9819 23.364 23.364C23.9819 22.7461 23.9953 21.8573 24.0072 21.0731C24.0135 20.6517 24.0201 20.216 24.129 19.953C24.2474 19.6667 24.5608 19.3399 24.8639 19.0238C25.3965 18.4686 26 17.8391 26 17C26 16.1609 25.3965 15.5315 24.8639 14.9762ZM17 22.1429C16.8093 22.1429 16.6228 22.0863 16.4643 21.9803C16.3057 21.8744 16.1821 21.7238 16.1091 21.5476C16.0361 21.3714 16.017 21.1775 16.0542 20.9904C16.0914 20.8034 16.1833 20.6316 16.3181 20.4967C16.453 20.3619 16.6248 20.27 16.8119 20.2328C16.9989 20.1956 17.1928 20.2147 17.369 20.2877C17.5452 20.3607 17.6958 20.4843 17.8018 20.6428C17.9077 20.8014 17.9643 20.9879 17.9643 21.1786C17.9643 21.4343 17.8627 21.6796 17.6819 21.8604C17.501 22.0413 17.2557 22.1429 17 22.1429ZM17.6428 18.2141V18.2861C17.6428 18.4566 17.575 18.6201 17.4545 18.7407C17.3339 18.8612 17.1704 18.929 16.9999 18.929C16.8294 18.929 16.6659 18.8612 16.5454 18.7407C16.4248 18.6201 16.3571 18.4566 16.3571 18.2861V17.6432C16.3571 17.4728 16.4248 17.3092 16.5454 17.1887C16.6659 17.0681 16.8294 17.0004 16.9999 17.0004C17.3178 17.0004 17.6285 16.9061 17.8928 16.7295C18.1571 16.5529 18.3631 16.3019 18.4847 16.0083C18.6064 15.7146 18.6382 15.3915 18.5762 15.0797C18.5142 14.768 18.3611 14.4816 18.1363 14.2568C17.9116 14.0321 17.6252 13.879 17.3135 13.817C17.0017 13.755 16.6786 13.7868 16.3849 13.9084C16.0912 14.0301 15.8402 14.2361 15.6636 14.5004C15.487 14.7647 15.3928 15.0754 15.3928 15.3932C15.3928 15.5637 15.325 15.7273 15.2045 15.8478C15.0839 15.9684 14.9204 16.0361 14.7499 16.0361C14.5794 16.0361 14.4159 15.9684 14.2954 15.8478C14.1748 15.7273 14.1071 15.5637 14.1071 15.3932C14.1071 14.8487 14.2609 14.3152 14.5507 13.8542C14.8405 13.3931 15.2545 13.0232 15.7452 12.787C16.2359 12.5508 16.7833 12.4579 17.3244 12.519C17.8655 12.5801 18.3784 12.7927 18.8041 13.1323C19.2298 13.4719 19.5509 13.9248 19.7307 14.4388C19.9104 14.9529 19.9414 15.5072 19.8201 16.0381C19.6988 16.569 19.4301 17.0548 19.0449 17.4398C18.6597 17.8247 18.1737 18.0931 17.6428 18.2141Z" fill="url(#paint0_linear_4840_2825)"/>
</g>
<defs>
<filter id="filter0_d_4840_2825" x="5.78" y="6.78" width="22.44" height="22.44" filterUnits="userSpaceOnUse" color-interpolation-filters="sRGB">
<feFlood flood-opacity="0" result="BackgroundImageFix"/>
<feColorMatrix in="SourceAlpha" type="matrix" values="0 0 0 0 0 0 0 0 0 0 0 0 0 0 0 0 0 0 127 0" result="hardAlpha"/>
<feOffset dy="1"/>
<feGaussianBlur stdDeviation="1.11"/>
<feComposite in2="hardAlpha" operator="out"/>
<feColorMatrix type="matrix" values="0 0 0 0 0 0 0 0 0 0 0 0 0 0 0 0 0 0 0.22 0"/>
<feBlend mode="normal" in2="BackgroundImageFix" result="effect1_dropShadow_4840_2825"/>
<feBlend mode="normal" in="SourceGraphic" in2="effect1_dropShadow_4840_2825" result="shape"/>
</filter>
<linearGradient id="paint0_linear_4840_2825" x1="17" y1="8" x2="17" y2="26" gradientUnits="userSpaceOnUse">
<stop stop-color="#50CD89"/>
<stop offset="1" stop-color="#3C9A67"/>
</linearGradient>
</defs>
</svg>
