<svg width="34" height="34" viewBox="0 0 34 34" fill="none" xmlns="http://www.w3.org/2000/svg">
<rect width="34" height="34" rx="10" fill="#FFF9E5"/>
<g filter="url(#filter0_d_4840_2856)">
<path d="M25.4696 15.4195C26.0078 14.3279 26.1416 13.0808 25.8472 11.8998C25.5527 10.7189 24.8491 9.68057 23.8613 8.96944C22.8736 8.25831 21.6657 7.92043 20.4523 8.01584C19.2389 8.11125 18.0987 8.63377 17.2342 9.49054C16.9085 9.81591 16.6261 10.1819 16.394 10.5795C17.1974 11.3432 17.7061 12.3656 17.8308 13.4671C17.9554 14.5686 17.6881 15.6788 17.0756 16.6028C17.8169 17.4246 18.8056 17.9829 19.8922 18.1933C20.2102 18.2532 20.5331 18.2833 20.8568 18.2833C21.5305 18.2827 22.1975 18.1502 22.8202 17.8932C22.905 17.8558 22.9989 17.8439 23.0903 17.8589L24.505 18.159C24.6348 18.1856 24.769 18.1816 24.897 18.1474C25.025 18.1132 25.1432 18.0496 25.2424 17.9618C25.3439 17.8757 25.4233 17.7665 25.474 17.6435C25.5247 17.5204 25.5453 17.387 25.5339 17.2544L25.4182 15.6468C25.4151 15.5678 25.4328 15.4894 25.4696 15.4195ZM19.1462 13.7819C19.0191 13.7819 18.8947 13.7442 18.789 13.6735C18.6832 13.6028 18.6008 13.5024 18.5521 13.3849C18.5035 13.2674 18.4907 13.1381 18.5156 13.0134C18.5404 12.8886 18.6016 12.774 18.6915 12.6841C18.7815 12.5942 18.8961 12.5329 19.0208 12.5081C19.1455 12.4833 19.2748 12.496 19.3923 12.5447C19.5098 12.5934 19.6103 12.6758 19.6809 12.7816C19.7516 12.8873 19.7893 13.0116 19.7893 13.1388C19.7893 13.3094 19.7216 13.4729 19.601 13.5935C19.4804 13.7141 19.3168 13.7819 19.1462 13.7819ZM21.2898 13.7819C21.1626 13.7819 21.0382 13.7442 20.9325 13.6735C20.8267 13.6028 20.7443 13.5024 20.6957 13.3849C20.647 13.2674 20.6342 13.1381 20.6591 13.0134C20.6839 12.8886 20.7451 12.774 20.8351 12.6841C20.925 12.5942 21.0396 12.5329 21.1643 12.5081C21.289 12.4833 21.4183 12.496 21.5358 12.5447C21.6533 12.5934 21.7538 12.6758 21.8244 12.7816C21.8951 12.8873 21.9328 13.0116 21.9328 13.1388C21.9328 13.3094 21.8651 13.4729 21.7445 13.5935C21.6239 13.7141 21.4603 13.7819 21.2898 13.7819ZM23.4333 13.7819C23.3061 13.7819 23.1818 13.7442 23.076 13.6735C22.9703 13.6028 22.8878 13.5024 22.8392 13.3849C22.7905 13.2674 22.7778 13.1381 22.8026 13.0134C22.8274 12.8886 22.8886 12.774 22.9786 12.6841C23.0685 12.5942 23.1831 12.5329 23.3078 12.5081C23.4326 12.4833 23.5619 12.496 23.6794 12.5447C23.7969 12.5934 23.8973 12.6758 23.9679 12.7816C24.0386 12.8873 24.0763 13.0116 24.0763 13.1388C24.0763 13.3094 24.0086 13.4729 23.888 13.5935C23.7674 13.7141 23.6038 13.7819 23.4333 13.7819ZM13.5731 18.2833H12.7157C11.4655 18.2848 10.2669 18.7821 9.38283 19.6661C8.49878 20.5502 8.00147 21.7488 8 22.9991V24.7139C8 25.055 8.1355 25.3821 8.37669 25.6233C8.61788 25.8645 8.94501 26 9.28611 26H17.0027C17.3438 26 17.671 25.8645 17.9122 25.6233C18.1533 25.3821 18.2888 25.055 18.2888 24.7139V22.9991C18.2874 21.7488 17.7901 20.5502 16.906 19.6661C16.022 18.7821 14.8234 18.2848 13.5731 18.2833Z" fill="#FFC700"/>
<path d="M13.3182 17.8182C15.3516 17.8182 17 16.1698 17 14.1363C17 12.1029 15.3516 10.4545 13.3182 10.4545C11.2848 10.4545 9.63635 12.1029 9.63635 14.1363C9.63635 16.1698 11.2848 17.8182 13.3182 17.8182Z" fill="#FFC700"/>
</g>
<defs>
<filter id="filter0_d_4840_2856" x="5.78" y="6.78" width="22.44" height="22.44" filterUnits="userSpaceOnUse" color-interpolation-filters="sRGB">
<feFlood flood-opacity="0" result="BackgroundImageFix"/>
<feColorMatrix in="SourceAlpha" type="matrix" values="0 0 0 0 0 0 0 0 0 0 0 0 0 0 0 0 0 0 127 0" result="hardAlpha"/>
<feOffset dy="1"/>
<feGaussianBlur stdDeviation="1.11"/>
<feComposite in2="hardAlpha" operator="out"/>
<feColorMatrix type="matrix" values="0 0 0 0 0 0 0 0 0 0 0 0 0 0 0 0 0 0 0.22 0"/>
<feBlend mode="normal" in2="BackgroundImageFix" result="effect1_dropShadow_4840_2856"/>
<feBlend mode="normal" in="SourceGraphic" in2="effect1_dropShadow_4840_2856" result="shape"/>
</filter>
</defs>
</svg>
